<svg class="circuit" viewBox="0 -140 1050 340" preserveAspectRatio="xMidYMid meet" xmlns="http://www.w3.org/2000/svg" aria-hidden="true">
          <path class="trace-base" pathLength="1000" d="M27 9L45 9M27 9L9 27M45 9L63 9M63 9L81 27M9 27L9 45M9 45L9 63M9 63L9 81M9 81L9 99M9 99L27 117M81 99L63 117M27 117L45 117M45 117L63 117M27 117L27 160M147 9L165 9M147 9L129 27M165 9L183 9M183 9L201 27M129 27L129 45M201 27L201 45M129 45L129 63M201 45L201 63M129 63L129 81M201 63L201 81M129 81L129 99M201 81L201 99M129 99L147 117M201 99L183 117M147 117L165 117M165 117L183 117M147 117L147 160M249 9L249 27M249 9L267 27M321 9L321 27M321 9L303 27M249 27L267 27M249 27L249 45M267 27L285 45M267 27L249 45M303 27L321 27M303 27L321 45M303 27L285 45M321 27L321 45M249 45L249 63M321 45L321 63M249 63L249 81M321 63L321 81M249 81L249 99M321 81L321 99M249 99L249 117M321 99L321 117M249 117L249 160M369 9L387 9M369 9L369 27M387 9L405 9M387 9L369 27M405 9L423 9M423 9L441 27M369 27L369 45M441 27L441 45M369 45L369 63M369 45L387 63M441 45L423 63M369 63L387 63M369 63L369 81M387 63L405 63M387 63L369 81M405 63L423 63M369 81L369 99M369 99L369 117M369 117L369 160M489 9L489 27M561 9L561 27M489 27L489 45M561 27L561 45M489 45L489 63M561 45L561 63M489 63L489 81M561 63L561 81M489 81L489 99M561 81L561 99M489 99L507 117M561 99L543 117M507 117L525 117M525 117L543 117M507 117L507 160M609 9L627 9M627 9L645 9M627 9L645 27M645 9L663 9M645 9L645 27M663 9L681 9M663 9L645 27M645 27L645 45M645 45L645 63M645 63L645 81M645 81L645 99M645 99L645 117M645 117L645 160M729 9L747 9M729 9L729 27M747 9L765 9M747 9L729 27M765 9L783 9M783 9L801 9M729 27L729 45M729 45L729 63M729 45L747 63M729 63L747 63M729 63L729 81M747 63L765 63M747 63L729 81M729 81L729 99M729 99L729 117M729 99L747 117M729 117L747 117M747 117L765 117M765 117L783 117M783 117L801 117M747 117L747 160M849 9L867 9M849 9L849 27M867 9L885 9M867 9L849 27M885 9L903 9M903 9L921 27M849 27L849 45M921 27L921 45M849 45L849 63M849 45L867 63M921 45L903 63M849 63L867 63M849 63L849 81M867 63L885 63M867 63L885 81M867 63L849 81M885 63L903 63M885 63L885 81M903 63L885 81M849 81L849 99M885 81L903 99M849 99L849 117M903 99L921 117M849 117L849 160M987 9L1005 9M987 9L969 27M1005 9L1023 9M1023 9L1041 9M969 27L969 45M969 45L987 63M987 63L1005 63M1005 63L1023 63M1023 63L1041 81M1041 81L1041 99M1041 99L1023 117M969 117L987 117M987 117L1005 117M1005 117L1023 117M987 117L987 160M27 160L1041 160"/>
          <path class="trace-flow" pathLength="1000" d="M27 9L45 9M27 9L9 27M45 9L63 9M63 9L81 27M9 27L9 45M9 45L9 63M9 63L9 81M9 81L9 99M9 99L27 117M81 99L63 117M27 117L45 117M45 117L63 117M27 117L27 160M147 9L165 9M147 9L129 27M165 9L183 9M183 9L201 27M129 27L129 45M201 27L201 45M129 45L129 63M201 45L201 63M129 63L129 81M201 63L201 81M129 81L129 99M201 81L201 99M129 99L147 117M201 99L183 117M147 117L165 117M165 117L183 117M147 117L147 160M249 9L249 27M249 9L267 27M321 9L321 27M321 9L303 27M249 27L267 27M249 27L249 45M267 27L285 45M267 27L249 45M303 27L321 27M303 27L321 45M303 27L285 45M321 27L321 45M249 45L249 63M321 45L321 63M249 63L249 81M321 63L321 81M249 81L249 99M321 81L321 99M249 99L249 117M321 99L321 117M249 117L249 160M369 9L387 9M369 9L369 27M387 9L405 9M387 9L369 27M405 9L423 9M423 9L441 27M369 27L369 45M441 27L441 45M369 45L369 63M369 45L387 63M441 45L423 63M369 63L387 63M369 63L369 81M387 63L405 63M387 63L369 81M405 63L423 63M369 81L369 99M369 99L369 117M369 117L369 160M489 9L489 27M561 9L561 27M489 27L489 45M561 27L561 45M489 45L489 63M561 45L561 63M489 63L489 81M561 63L561 81M489 81L489 99M561 81L561 99M489 99L507 117M561 99L543 117M507 117L525 117M525 117L543 117M507 117L507 160M609 9L627 9M627 9L645 9M627 9L645 27M645 9L663 9M645 9L645 27M663 9L681 9M663 9L645 27M645 27L645 45M645 45L645 63M645 63L645 81M645 81L645 99M645 99L645 117M645 117L645 160M729 9L747 9M729 9L729 27M747 9L765 9M747 9L729 27M765 9L783 9M783 9L801 9M729 27L729 45M729 45L729 63M729 45L747 63M729 63L747 63M729 63L729 81M747 63L765 63M747 63L729 81M729 81L729 99M729 99L729 117M729 99L747 117M729 117L747 117M747 117L765 117M765 117L783 117M783 117L801 117M747 117L747 160M849 9L867 9M849 9L849 27M867 9L885 9M867 9L849 27M885 9L903 9M903 9L921 27M849 27L849 45M921 27L921 45M849 45L849 63M849 45L867 63M921 45L903 63M849 63L867 63M849 63L849 81M867 63L885 63M867 63L885 81M867 63L849 81M885 63L903 63M885 63L885 81M903 63L885 81M849 81L849 99M885 81L903 99M849 99L849 117M903 99L921 117M849 117L849 160M987 9L1005 9M987 9L969 27M1005 9L1023 9M1023 9L1041 9M969 27L969 45M969 45L987 63M987 63L1005 63M1005 63L1023 63M1023 63L1041 81M1041 81L1041 99M1041 99L1023 117M969 117L987 117M987 117L1005 117M1005 117L1023 117M987 117L987 160M27 160L1041 160"/>
          <g class="sig-input"><path class="trace-base" pathLength="1000" d="M27 173L27 160"/><path class="trace-flow" pathLength="1000" d="M27 173L27 160"/><circle class="src-ring" cx="27" cy="184" r="11"/><path class="src-sine" d="M19 184Q23 176 27 184Q31 192 35 184"/></g><text class="silk" x="9" y="-50">Santrupti loves</text><g class="gnd"><path class="trace-base" pathLength="1000" d="M1041 160L1041 172"/><path class="trace-flow" pathLength="1000" d="M1041 160L1041 172"/><path class="gnd-bar" d="M1029 172L1053 172"/><path class="gnd-bar" d="M1033 179L1049 179"/><path class="gnd-bar" d="M1037 186L1045 186"/></g><g class="vwrap"><circle class="via" cx="27" cy="160" r="4.2"/><circle class="via" cx="147" cy="160" r="4.2"/><circle class="via" cx="249" cy="160" r="4.2"/><circle class="via" cx="369" cy="160" r="4.2"/><circle class="via" cx="507" cy="160" r="4.2"/><circle class="via" cx="645" cy="160" r="4.2"/><circle class="via" cx="747" cy="160" r="4.2"/><circle class="via" cx="849" cy="160" r="4.2"/><circle class="via" cx="987" cy="160" r="4.2"/></g>
          <g class="pwrap"><circle class="pad" cx="27" cy="9" r="3"/><circle class="pad" cx="45" cy="9" r="3"/><circle class="pad" cx="63" cy="9" r="3"/><circle class="pad" cx="9" cy="27" r="3"/><circle class="pad" cx="81" cy="27" r="3"/><circle class="pad" cx="9" cy="45" r="3"/><circle class="pad" cx="9" cy="63" r="3"/><circle class="pad" cx="9" cy="81" r="3"/><circle class="pad" cx="9" cy="99" r="3"/><circle class="pad" cx="81" cy="99" r="3"/><circle class="pad" cx="27" cy="117" r="3"/><circle class="pad" cx="45" cy="117" r="3"/><circle class="pad" cx="63" cy="117" r="3"/><circle class="pad" cx="147" cy="9" r="3"/><circle class="pad" cx="165" cy="9" r="3"/><circle class="pad" cx="183" cy="9" r="3"/><circle class="pad" cx="129" cy="27" r="3"/><circle class="pad" cx="201" cy="27" r="3"/><circle class="pad" cx="129" cy="45" r="3"/><circle class="pad" cx="201" cy="45" r="3"/><circle class="pad" cx="129" cy="63" r="3"/><circle class="pad" cx="201" cy="63" r="3"/><circle class="pad" cx="129" cy="81" r="3"/><circle class="pad" cx="201" cy="81" r="3"/><circle class="pad" cx="129" cy="99" r="3"/><circle class="pad" cx="201" cy="99" r="3"/><circle class="pad" cx="147" cy="117" r="3"/><circle class="pad" cx="165" cy="117" r="3"/><circle class="pad" cx="183" cy="117" r="3"/><circle class="pad" cx="249" cy="9" r="3"/><circle class="pad" cx="321" cy="9" r="3"/><circle class="pad" cx="249" cy="27" r="3"/><circle class="pad" cx="267" cy="27" r="3"/><circle class="pad" cx="303" cy="27" r="3"/><circle class="pad" cx="321" cy="27" r="3"/><circle class="pad" cx="249" cy="45" r="3"/><circle class="pad" cx="285" cy="45" r="3"/><circle class="pad" cx="321" cy="45" r="3"/><circle class="pad" cx="249" cy="63" r="3"/><circle class="pad" cx="321" cy="63" r="3"/><circle class="pad" cx="249" cy="81" r="3"/><circle class="pad" cx="321" cy="81" r="3"/><circle class="pad" cx="249" cy="99" r="3"/><circle class="pad" cx="321" cy="99" r="3"/><circle class="pad" cx="249" cy="117" r="3"/><circle class="pad" cx="321" cy="117" r="3"/><circle class="pad" cx="369" cy="9" r="3"/><circle class="pad" cx="387" cy="9" r="3"/><circle class="pad" cx="405" cy="9" r="3"/><circle class="pad" cx="423" cy="9" r="3"/><circle class="pad" cx="369" cy="27" r="3"/><circle class="pad" cx="441" cy="27" r="3"/><circle class="pad" cx="369" cy="45" r="3"/><circle class="pad" cx="441" cy="45" r="3"/><circle class="pad" cx="369" cy="63" r="3"/><circle class="pad" cx="387" cy="63" r="3"/><circle class="pad" cx="405" cy="63" r="3"/><circle class="pad" cx="423" cy="63" r="3"/><circle class="pad" cx="369" cy="81" r="3"/><circle class="pad" cx="369" cy="99" r="3"/><circle class="pad" cx="369" cy="117" r="3"/><circle class="pad" cx="489" cy="9" r="3"/><circle class="pad" cx="561" cy="9" r="3"/><circle class="pad" cx="489" cy="27" r="3"/><circle class="pad" cx="561" cy="27" r="3"/><circle class="pad" cx="489" cy="45" r="3"/><circle class="pad" cx="561" cy="45" r="3"/><circle class="pad" cx="489" cy="63" r="3"/><circle class="pad" cx="561" cy="63" r="3"/><circle class="pad" cx="489" cy="81" r="3"/><circle class="pad" cx="561" cy="81" r="3"/><circle class="pad" cx="489" cy="99" r="3"/><circle class="pad" cx="561" cy="99" r="3"/><circle class="pad" cx="507" cy="117" r="3"/><circle class="pad" cx="525" cy="117" r="3"/><circle class="pad" cx="543" cy="117" r="3"/><circle class="pad" cx="609" cy="9" r="3"/><circle class="pad" cx="627" cy="9" r="3"/><circle class="pad" cx="645" cy="9" r="3"/><circle class="pad" cx="663" cy="9" r="3"/><circle class="pad" cx="681" cy="9" r="3"/><circle class="pad" cx="645" cy="27" r="3"/><circle class="pad" cx="645" cy="45" r="3"/><circle class="pad" cx="645" cy="63" r="3"/><circle class="pad" cx="645" cy="81" r="3"/><circle class="pad" cx="645" cy="99" r="3"/><circle class="pad" cx="645" cy="117" r="3"/><circle class="pad" cx="729" cy="9" r="3"/><circle class="pad" cx="747" cy="9" r="3"/><circle class="pad" cx="765" cy="9" r="3"/><circle class="pad" cx="783" cy="9" r="3"/><circle class="pad" cx="801" cy="9" r="3"/><circle class="pad" cx="729" cy="27" r="3"/><circle class="pad" cx="729" cy="45" r="3"/><circle class="pad" cx="729" cy="63" r="3"/><circle class="pad" cx="747" cy="63" r="3"/><circle class="pad" cx="765" cy="63" r="3"/><circle class="pad" cx="729" cy="81" r="3"/><circle class="pad" cx="729" cy="99" r="3"/><circle class="pad" cx="729" cy="117" r="3"/><circle class="pad" cx="747" cy="117" r="3"/><circle class="pad" cx="765" cy="117" r="3"/><circle class="pad" cx="783" cy="117" r="3"/><circle class="pad" cx="801" cy="117" r="3"/><circle class="pad" cx="849" cy="9" r="3"/><circle class="pad" cx="867" cy="9" r="3"/><circle class="pad" cx="885" cy="9" r="3"/><circle class="pad" cx="903" cy="9" r="3"/><circle class="pad" cx="849" cy="27" r="3"/><circle class="pad" cx="921" cy="27" r="3"/><circle class="pad" cx="849" cy="45" r="3"/><circle class="pad" cx="921" cy="45" r="3"/><circle class="pad" cx="849" cy="63" r="3"/><circle class="pad" cx="867" cy="63" r="3"/><circle class="pad" cx="885" cy="63" r="3"/><circle class="pad" cx="903" cy="63" r="3"/><circle class="pad" cx="849" cy="81" r="3"/><circle class="pad" cx="885" cy="81" r="3"/><circle class="pad" cx="849" cy="99" r="3"/><circle class="pad" cx="903" cy="99" r="3"/><circle class="pad" cx="849" cy="117" r="3"/><circle class="pad" cx="921" cy="117" r="3"/><circle class="pad" cx="987" cy="9" r="3"/><circle class="pad" cx="1005" cy="9" r="3"/><circle class="pad" cx="1023" cy="9" r="3"/><circle class="pad" cx="1041" cy="9" r="3"/><circle class="pad" cx="969" cy="27" r="3"/><circle class="pad" cx="969" cy="45" r="3"/><circle class="pad" cx="987" cy="63" r="3"/><circle class="pad" cx="1005" cy="63" r="3"/><circle class="pad" cx="1023" cy="63" r="3"/><circle class="pad" cx="1041" cy="81" r="3"/><circle class="pad" cx="1041" cy="99" r="3"/><circle class="pad" cx="969" cy="117" r="3"/><circle class="pad" cx="987" cy="117" r="3"/><circle class="pad" cx="1005" cy="117" r="3"/><circle class="pad" cx="1023" cy="117" r="3"/></g>
        </svg>
