<svg width="134" height="76" viewBox="0 0 134 76" fill="none" xmlns="http://www.w3.org/2000/svg">
<rect width="134" height="76" fill="white"/>
<g filter="url(#filter0_d_159_433057)">
<mask id="path-1-inside-1_159_433057" fill="white">
<path fill-rule="evenodd" clip-rule="evenodd" d="M102.721 52.3147C108.87 50.6745 113.4 45.0662 113.4 38.4C113.4 30.4471 106.953 24 98.9996 24C91.0467 24 84.5996 30.4471 84.5996 38.4C84.5996 45.0728 89.1382 50.6855 95.2969 52.3195L99.0062 56L102.721 52.3147Z"/>
</mask>
<path fill-rule="evenodd" clip-rule="evenodd" d="M102.721 52.3147C108.87 50.6745 113.4 45.0662 113.4 38.4C113.4 30.4471 106.953 24 98.9996 24C91.0467 24 84.5996 30.4471 84.5996 38.4C84.5996 45.0728 89.1382 50.6855 95.2969 52.3195L99.0062 56L102.721 52.3147Z" fill="#0071EA"/>
<path d="M102.721 52.3147L102.205 50.3822L101.69 50.5196L101.312 50.8949L102.721 52.3147ZM95.2969 52.3195L96.7055 50.8998L96.3262 50.5234L95.8097 50.3864L95.2969 52.3195ZM99.0062 56L97.5976 57.4197L99.0062 58.8175L100.415 57.4197L99.0062 56ZM113.4 38.4H111.4C111.4 44.1376 107.501 48.9696 102.205 50.3822L102.721 52.3147L103.236 54.2471C110.239 52.3793 115.4 45.9949 115.4 38.4H113.4ZM98.9996 24V26C105.848 26 111.4 31.5517 111.4 38.4H113.4H115.4C115.4 29.3425 108.057 22 98.9996 22V24ZM84.5996 38.4H86.5996C86.5996 31.5517 92.1513 26 98.9996 26V24V22C89.9421 22 82.5996 29.3425 82.5996 38.4H84.5996ZM95.2969 52.3195L95.8097 50.3864C90.5059 48.9791 86.5996 44.1432 86.5996 38.4H84.5996H82.5996C82.5996 46.0023 87.7706 52.3918 94.784 54.2526L95.2969 52.3195ZM99.0062 56L100.415 54.5803L96.7055 50.8998L95.2969 52.3195L93.8882 53.7392L97.5976 57.4197L99.0062 56ZM102.721 52.3147L101.312 50.8949L97.5976 54.5803L99.0062 56L100.415 57.4197L104.129 53.7344L102.721 52.3147Z" fill="#EFF1F5" mask="url(#path-1-inside-1_159_433057)"/>
</g>
<path fill-rule="evenodd" clip-rule="evenodd" d="M94.4367 33.9562V37.0362V39.8882C94.4367 40.4522 94.7367 40.9482 95.1807 41.2042L93.9767 43.3682C93.9447 43.4082 93.9207 43.4522 93.9007 43.5002L93.0607 45.0122C92.9367 45.2322 93.0087 45.5122 93.2207 45.6402C93.4327 45.7682 93.7007 45.6922 93.8247 45.4722L94.5767 44.1202H103.417L104.173 45.4722C104.297 45.6922 104.565 45.7642 104.777 45.6362C104.989 45.5082 105.057 45.2282 104.937 45.0082L104.093 43.5002C104.073 43.4482 104.049 43.4002 104.013 43.3602L102.813 41.2162C103.273 40.9642 103.585 40.4602 103.585 39.8842V37.0442C103.585 37.0442 103.585 37.0282 103.585 37.0202V33.9562C103.585 32.7082 102.613 31.7002 101.417 31.7002H96.6047C95.4087 31.7002 94.4367 32.7122 94.4367 33.9562ZM101.929 41.3962H96.0567C96.0487 41.4522 96.0327 41.5122 96.0007 41.5642L95.0887 43.2042H102.905L101.989 41.5682C101.957 41.5162 101.941 41.4562 101.933 41.4002L101.929 41.3962ZM102.705 34.6402H95.3207V36.6602L99.0127 37.4602L102.705 36.6602V34.6402ZM96.0927 39.2762C96.0927 39.0242 96.2887 38.8162 96.5327 38.8162H97.3247C97.5687 38.8162 97.7647 39.0202 97.7647 39.2762C97.7647 39.5322 97.5687 39.7362 97.3247 39.7362H96.5327C96.2887 39.7362 96.0927 39.5322 96.0927 39.2762ZM100.685 38.8162C100.441 38.8162 100.245 39.0202 100.245 39.2762C100.245 39.5322 100.441 39.7362 100.685 39.7362H101.477C101.721 39.7362 101.917 39.5322 101.917 39.2762C101.917 39.0202 101.721 38.8162 101.477 38.8162H100.685Z" fill="white"/>
<rect x="19.5" y="28.5" width="23" height="23" rx="11.5" fill="white"/>
<rect x="19.5" y="28.5" width="23" height="23" rx="11.5" stroke="#111111"/>
<path fill-rule="evenodd" clip-rule="evenodd" d="M26.4374 35.2562V35.4828V38.3357V38.3359V41.1896C26.4374 41.7551 26.737 42.2479 27.18 42.5055L25.9751 44.668C25.9436 44.7075 25.9182 44.7525 25.9007 44.8015L25.0595 46.3114C24.9374 46.5304 25.0092 46.811 25.2197 46.938C25.4302 47.065 25.6999 46.9904 25.8219 46.7713L26.575 45.4197H35.4172L36.175 46.7723C36.2976 46.9911 36.5674 47.065 36.7776 46.9375C36.9879 46.8099 37.0589 46.5292 36.9363 46.3104L36.0922 44.8037C36.0741 44.7524 36.0475 44.7053 36.0141 44.6645L34.8138 42.5222C35.2729 42.2695 35.5857 41.7676 35.5857 41.1896V38.3479C35.5859 38.3399 35.5859 38.3317 35.5857 38.3236V35.2562C35.5857 34.0101 34.6149 33 33.4174 33H28.6057C27.4082 33 26.4374 34.0101 26.4374 35.2562ZM33.93 42.6961H28.0542C28.0467 42.7538 28.0284 42.811 27.9986 42.8645L27.0859 44.5027H34.9034L33.9861 42.8655C33.9559 42.8117 33.9375 42.7542 33.93 42.6961ZM34.7044 35.9413H27.3187V37.9622L31.0117 38.7603L34.7044 37.9623V35.9413ZM33.4174 33.917C34.0522 33.917 34.5797 34.3952 34.6852 35.0243H27.3379C27.4435 34.3952 27.9709 33.917 28.6057 33.917H33.4174ZM34.7044 38.8988V41.1896C34.7044 41.5151 34.4508 41.7791 34.1379 41.7791H27.8852C27.5724 41.7791 27.3187 41.5151 27.3187 41.1896V38.8988L30.922 39.6775C30.9812 39.6903 31.0422 39.6903 31.1013 39.6775L34.7044 38.8988ZM28.0913 40.5761C28.0913 40.3228 28.2885 40.1176 28.5319 40.1176H29.3226C29.5659 40.1176 29.7632 40.3228 29.7632 40.5761C29.7632 40.8293 29.5659 41.0346 29.3226 41.0346H28.5319C28.2885 41.0346 28.0913 40.8293 28.0913 40.5761ZM32.6819 40.1176C32.4386 40.1176 32.2413 40.3228 32.2413 40.5761C32.2413 40.8293 32.4386 41.0346 32.6819 41.0346H33.4726C33.7159 41.0346 33.9132 40.8293 33.9132 40.5761C33.9132 40.3228 33.7159 40.1176 33.4726 40.1176H32.6819Z" fill="#111111"/>
<path d="M75.1768 39.1768C75.2744 39.0791 75.2744 38.9209 75.1768 38.8232L73.5858 37.2322C73.4882 37.1346 73.3299 37.1346 73.2322 37.2322C73.1346 37.3299 73.1346 37.4882 73.2322 37.5858L74.6464 39L73.2322 40.4142C73.1346 40.5118 73.1346 40.6701 73.2322 40.7678C73.3299 40.8654 73.4882 40.8654 73.5858 40.7678L75.1768 39.1768ZM51 39L51 39.25L75 39.25L75 39L75 38.75L51 38.75L51 39Z" fill="black"/>
<defs>
<filter id="filter0_d_159_433057" x="80.5996" y="22" width="36.7998" height="40" filterUnits="userSpaceOnUse" color-interpolation-filters="sRGB">
<feFlood flood-opacity="0" result="BackgroundImageFix"/>
<feColorMatrix in="SourceAlpha" type="matrix" values="0 0 0 0 0 0 0 0 0 0 0 0 0 0 0 0 0 0 127 0" result="hardAlpha"/>
<feOffset dy="2"/>
<feGaussianBlur stdDeviation="2"/>
<feComposite in2="hardAlpha" operator="out"/>
<feColorMatrix type="matrix" values="0 0 0 0 0.156863 0 0 0 0 0.172549 0 0 0 0 0.180392 0 0 0 0.2 0"/>
<feBlend mode="normal" in2="BackgroundImageFix" result="effect1_dropShadow_159_433057"/>
<feBlend mode="normal" in="SourceGraphic" in2="effect1_dropShadow_159_433057" result="shape"/>
</filter>
</defs>
</svg>
