<svg width="145" height="145" viewBox="0 0 145 145" fill="none" xmlns="http://www.w3.org/2000/svg">
<mask id="path-1-outside-1_1679_4268" maskUnits="userSpaceOnUse" x="19" y="4" width="107" height="138" fill="black">
<rect fill="white" x="19" y="4" width="107" height="138"/>
<path d="M75.2979 10C90.1929 10 102.268 19.3938 102.268 30.9814C102.268 42.5475 98.2863 50.2674 75.4268 51.9521C75.9632 61.1795 76.4052 73.0459 76.7354 84.874C78.8708 83.9172 90.7069 86.3688 96.6035 81.6025C96.9358 81.3338 97.2134 80.9531 97.4473 80.4893C81.7823 78.6606 78.7891 73.7219 78.7891 65.6943C80.2181 56.9176 88.1476 50.7501 98.7998 50.75C109.452 50.75 119.253 57.4408 119.253 65.6943C119.253 73.7694 115.363 81.9303 99.8457 80.7305C99.3836 82.5107 98.5782 84.0338 97.2695 84.9336C92.2883 88.358 78.5766 87.7067 76.8096 87.6074C77.4041 110.03 77.5986 131.57 77.291 133.887C75.3043 136.234 71.4071 134.775 70.2969 133.887C69.6773 133.389 69.7485 102.529 70.4541 75.3545C66.3754 75.4935 55.6922 75.5524 51.4229 72.6172C49.5664 71.3408 48.7215 68.8108 48.4355 66.0703C47.3587 66.053 46.2181 65.9871 45.0107 65.8652C28.1639 64.1652 25 59.1744 25 50.9209C26.429 42.1441 34.3586 35.9766 45.0107 35.9766C45.9959 35.9766 46.974 36.0332 47.9375 36.1436C47.5227 34.4676 47.3164 32.734 47.3164 30.9814C49.3146 18.659 60.4028 10 75.2979 10ZM65.4551 51.4893C65.2921 58.5303 62.035 65.4675 50.5479 66.0371C50.8523 67.4794 51.3308 68.673 52.0889 69.2861C57.1616 73.3865 66.6306 72.1442 70.5371 72.3262C70.7434 64.9692 70.9988 57.9845 71.2988 52.0723C69.2106 52.0322 67.2635 51.8313 65.4551 51.4893Z"/>
</mask>
<path d="M75.2979 10C90.1929 10 102.268 19.3938 102.268 30.9814C102.268 42.5475 98.2863 50.2674 75.4268 51.9521C75.9632 61.1795 76.4052 73.0459 76.7354 84.874C78.8708 83.9172 90.7069 86.3688 96.6035 81.6025C96.9358 81.3338 97.2134 80.9531 97.4473 80.4893C81.7823 78.6606 78.7891 73.7219 78.7891 65.6943C80.2181 56.9176 88.1476 50.7501 98.7998 50.75C109.452 50.75 119.253 57.4408 119.253 65.6943C119.253 73.7694 115.363 81.9303 99.8457 80.7305C99.3836 82.5107 98.5782 84.0338 97.2695 84.9336C92.2883 88.358 78.5766 87.7067 76.8096 87.6074C77.4041 110.03 77.5986 131.57 77.291 133.887C75.3043 136.234 71.4071 134.775 70.2969 133.887C69.6773 133.389 69.7485 102.529 70.4541 75.3545C66.3754 75.4935 55.6922 75.5524 51.4229 72.6172C49.5664 71.3408 48.7215 68.8108 48.4355 66.0703C47.3587 66.053 46.2181 65.9871 45.0107 65.8652C28.1639 64.1652 25 59.1744 25 50.9209C26.429 42.1441 34.3586 35.9766 45.0107 35.9766C45.9959 35.9766 46.974 36.0332 47.9375 36.1436C47.5227 34.4676 47.3164 32.734 47.3164 30.9814C49.3146 18.659 60.4028 10 75.2979 10ZM65.4551 51.4893C65.2921 58.5303 62.035 65.4675 50.5479 66.0371C50.8523 67.4794 51.3308 68.673 52.0889 69.2861C57.1616 73.3865 66.6306 72.1442 70.5371 72.3262C70.7434 64.9692 70.9988 57.9845 71.2988 52.0723C69.2106 52.0322 67.2635 51.8313 65.4551 51.4893Z" fill="white"/>
<path d="M75.2979 10L75.2979 4H75.2979V10ZM102.268 30.9814L108.268 30.9815V30.9814H102.268ZM75.4268 51.9521L74.9857 45.9684L69.094 46.4026L69.4369 52.3004L75.4268 51.9521ZM76.7354 84.874L70.7377 85.0414L70.9884 94.0239L79.1888 90.3495L76.7354 84.874ZM96.6035 81.6025L100.375 86.2688L100.376 86.2682L96.6035 81.6025ZM97.4473 80.4893L102.805 83.1908L106.67 75.5252L98.143 74.5297L97.4473 80.4893ZM78.7891 65.6943L72.867 64.7301L72.7891 65.2091V65.6943L78.7891 65.6943ZM98.7998 50.75V44.75H98.7998L98.7998 50.75ZM119.253 65.6943L125.253 65.6943V65.6943H119.253ZM99.8457 80.7305L100.308 74.7483L95.3003 74.3611L94.0382 79.2228L99.8457 80.7305ZM97.2695 84.9336L100.669 89.8779L100.669 89.8778L97.2695 84.9336ZM76.8096 87.6074L77.1462 81.6169L70.6389 81.2512L70.8117 87.7664L76.8096 87.6074ZM77.291 133.887L81.8706 137.763L83.0072 136.42L83.2388 134.677L77.291 133.887ZM70.2969 133.887L66.5399 138.565L66.5491 138.572L70.2969 133.887ZM70.4541 75.3545L76.4521 75.5102L76.6175 69.141L70.2498 69.358L70.4541 75.3545ZM51.4229 72.6172L48.0236 77.5614H48.0236L51.4229 72.6172ZM48.4355 66.0703L54.4032 65.4477L53.8511 60.1568L48.5322 60.0711L48.4355 66.0703ZM45.0107 65.8652L44.4083 71.8349H44.4083L45.0107 65.8652ZM25 50.9209L19.078 49.9567L19 50.4356L19 50.9209L25 50.9209ZM45.0107 35.9766V29.9766H45.0107L45.0107 35.9766ZM47.9375 36.1436L47.2545 42.1046L55.8375 43.088L53.7617 34.7019L47.9375 36.1436ZM47.3164 30.9814L41.3938 30.021L41.3164 30.4981L41.3164 30.9815L47.3164 30.9814ZM65.4551 51.4893L66.57 45.5938L59.6203 44.2794L59.4567 51.3505L65.4551 51.4893ZM50.5479 66.0371L50.2507 60.0445L43.2243 60.3929L44.6772 67.2763L50.5479 66.0371ZM52.0889 69.2861L48.3159 73.9514L48.3171 73.9524L52.0889 69.2861ZM70.5371 72.3262L70.258 78.3197L76.3634 78.604L76.5348 72.4944L70.5371 72.3262ZM71.2988 52.0723L77.2911 52.3764L77.605 46.1922L71.414 46.0734L71.2988 52.0723ZM75.2979 10L75.2978 16C88.3684 16 96.2676 24.0222 96.2676 30.9814H102.268H108.268C108.268 14.7653 92.0175 4.00002 75.2979 4L75.2979 10ZM102.268 30.9814L96.2676 30.9814C96.2676 36.2039 95.341 38.9099 93.3314 40.7805C91.025 42.9274 86.0575 45.1524 74.9857 45.9684L75.4268 51.9521L75.8678 57.9359C87.6555 57.0672 96.1084 54.5898 101.508 49.5641C107.203 44.262 108.268 37.3251 108.268 30.9815L102.268 30.9814ZM75.4268 51.9521L69.4369 52.3004C69.9683 61.4403 70.4083 73.2381 70.7377 85.0414L76.7354 84.874L82.733 84.7066C82.4022 72.8536 81.9582 60.9188 81.4166 51.6039L75.4268 51.9521ZM76.7354 84.874L79.1888 90.3495C78.3827 90.7107 77.8418 90.6734 78.336 90.6424C78.6294 90.624 79.0934 90.6187 79.8283 90.6289C81.1598 90.6473 83.2739 90.7202 85.4141 90.6648C89.4388 90.5607 95.729 90.0244 100.375 86.2688L96.6035 81.6025L92.8317 76.9363C91.5814 77.947 89.0053 78.5679 85.1039 78.6688C83.2811 78.716 81.6673 78.6532 79.9946 78.63C79.2274 78.6194 78.3703 78.6167 77.5847 78.666C76.9997 78.7027 75.6219 78.7982 74.2819 79.3986L76.7354 84.874ZM96.6035 81.6025L100.376 86.2682C101.575 85.2986 102.328 84.1368 102.805 83.1908L97.4473 80.4893L92.0899 77.7877C92.0991 77.7694 92.2966 77.369 92.831 76.9369L96.6035 81.6025ZM97.4473 80.4893L98.143 74.5297C90.6007 73.6493 87.5422 72.1273 86.2855 70.9819C85.4102 70.1841 84.7891 69.0172 84.7891 65.6943L78.7891 65.6943L72.7891 65.6943C72.7891 70.399 73.6646 75.7153 78.2021 79.8509C82.3583 83.6389 88.6289 85.5006 96.7516 86.4488L97.4473 80.4893ZM78.7891 65.6943L84.7111 66.6585C85.5735 61.3618 90.4639 56.75 98.7998 56.75L98.7998 50.75L98.7998 44.75C85.8313 44.7501 74.8626 52.4734 72.867 64.7301L78.7891 65.6943ZM98.7998 50.75V56.75C102.935 56.75 106.815 58.0658 109.531 60.0076C112.289 61.9798 113.253 64.0949 113.253 65.6943H119.253H125.253C125.253 59.0403 121.317 53.6832 116.511 50.2466C111.663 46.7796 105.317 44.75 98.7998 44.75V50.75ZM119.253 65.6943L113.253 65.6943C113.253 68.9126 112.464 71.1148 111.135 72.4387C109.899 73.6695 107.052 75.2698 100.308 74.7483L99.8457 80.7305L99.3831 86.7126C108.157 87.391 115.014 85.5107 119.602 80.9423C124.096 76.467 125.253 70.5512 125.253 65.6943L119.253 65.6943ZM99.8457 80.7305L94.0382 79.2228C93.9105 79.7149 93.7799 79.9906 93.7086 80.1113C93.6459 80.2176 93.6796 80.1205 93.8703 79.9894L97.2695 84.9336L100.669 89.8778C103.658 87.8228 105.012 84.7068 105.653 82.2381L99.8457 80.7305ZM97.2695 84.9336L93.8704 79.9893C93.6067 80.1706 92.7422 80.5728 90.9975 80.9358C89.3729 81.2739 87.4519 81.4857 85.4797 81.6024C81.5419 81.8355 77.9335 81.6611 77.1462 81.6169L76.8096 87.6074L76.4729 93.598C77.4526 93.653 81.5837 93.854 86.1887 93.5814C88.488 93.4453 91.0394 93.1841 93.4419 92.6842C95.7243 92.2094 98.4417 91.4088 100.669 89.8779L97.2695 84.9336ZM76.8096 87.6074L70.8117 87.7664C71.1081 98.9479 71.3047 109.905 71.3889 118.347C71.431 122.57 71.4447 126.145 71.4293 128.796C71.4215 130.125 71.4066 131.197 71.3852 131.992C71.3607 132.904 71.333 133.174 71.3432 133.097L77.291 133.887L83.2388 134.677C83.3785 133.624 83.4145 131.365 83.4291 128.866C83.4451 126.127 83.4307 122.481 83.3883 118.227C83.3034 109.713 83.1055 98.6896 82.8075 87.4484L76.8096 87.6074ZM77.291 133.887L72.7115 130.01C72.8822 129.808 73.0943 129.626 73.3326 129.48C73.5661 129.337 73.7817 129.255 73.9471 129.211C74.2509 129.128 74.3807 129.169 74.2619 129.153C74.1558 129.139 73.9955 129.097 73.8414 129.034C73.7719 129.006 73.7391 128.988 73.7468 128.992C73.752 128.995 73.7778 129.009 73.8215 129.038C73.8628 129.065 73.941 129.118 74.0446 129.201L70.2969 133.887L66.5491 138.572C68.0633 139.783 70.3733 140.739 72.6686 141.047C75.041 141.365 79.0066 141.147 81.8706 137.763L77.291 133.887ZM70.2969 133.887L74.0539 129.209C75.2777 130.191 75.7399 131.373 75.8085 131.538C75.9653 131.915 76.0419 132.216 76.0697 132.33C76.1299 132.576 76.146 132.729 76.1401 132.683C76.133 132.628 76.1118 132.419 76.0863 131.988C76.0373 131.161 75.9938 129.901 75.9596 128.23C75.8915 124.909 75.8643 120.208 75.8785 114.64C75.907 103.513 76.1005 89.051 76.4521 75.5102L70.4541 75.3545L64.4561 75.1987C64.1021 88.8322 63.9072 103.388 63.8786 114.609C63.8642 120.215 63.8913 125.02 63.9621 128.475C63.9973 130.192 64.0444 131.636 64.1073 132.698C64.1378 133.212 64.1779 133.744 64.2375 134.209C64.2649 134.423 64.3157 134.781 64.4119 135.175C64.4577 135.363 64.5527 135.723 64.7282 136.145C64.8155 136.355 65.2967 137.566 66.5399 138.565L70.2969 133.887ZM70.4541 75.3545L70.2498 69.358C68.3211 69.4237 64.9091 69.4658 61.5486 69.1629C59.8681 69.0114 58.3214 68.7838 57.0418 68.4727C55.6826 68.1421 55.0219 67.8104 54.8221 67.673L51.4229 72.6172L48.0236 77.5614C49.9584 78.8916 52.2341 79.6532 54.2062 80.1328C56.2579 80.6318 58.4375 80.9311 60.4713 81.1144C64.5394 81.4811 68.5084 81.4243 70.6585 81.351L70.4541 75.3545ZM51.4229 72.6172L54.8221 67.673C55.0958 67.8612 55.0409 67.9691 54.8678 67.5591C54.6903 67.1388 54.5071 66.4441 54.4032 65.4477L48.4355 66.0703L42.4679 66.6929C42.793 69.8088 43.877 74.7105 48.0236 77.5614L51.4229 72.6172ZM48.4355 66.0703L48.5322 60.0711C47.6318 60.0566 46.66 60.0012 45.6131 59.8955L45.0107 65.8652L44.4083 71.8349C45.7761 71.9729 47.0856 72.0493 48.3389 72.0695L48.4355 66.0703ZM45.0107 65.8652L45.6131 59.8955C37.4295 59.0697 34.0248 57.5271 32.6006 56.302C31.6431 55.4783 31 54.3175 31 50.9209L25 50.9209L19 50.9209C19 55.7778 19.9388 61.2391 24.775 65.3992C29.1444 69.1579 35.7451 70.9607 44.4083 71.8349L45.0107 65.8652ZM25 50.9209L30.922 51.8851C31.7844 46.5883 36.6749 41.9766 45.0108 41.9766L45.0107 35.9766L45.0107 29.9766C32.0423 29.9766 21.0736 37.6999 19.078 49.9567L25 50.9209ZM45.0107 35.9766V41.9766C45.7664 41.9766 46.5165 42.02 47.2545 42.1046L47.9375 36.1436L48.6205 30.1826C47.4315 30.0463 46.2254 29.9766 45.0107 29.9766V35.9766ZM47.9375 36.1436L53.7617 34.7019C53.4673 33.5125 53.3164 32.2636 53.3164 30.9814L47.3164 30.9814L41.3164 30.9815C41.3164 33.2043 41.578 35.4227 42.1133 37.5852L47.9375 36.1436ZM47.3164 30.9814L53.239 31.9419C54.6751 23.0857 62.7385 16 75.2979 16V10V4C58.067 4 43.9541 14.2324 41.3938 30.021L47.3164 30.9814ZM65.4551 51.4893L59.4567 51.3505C59.3933 54.0909 58.7339 56.0532 57.6661 57.3162C56.7202 58.435 54.7681 59.8204 50.2507 60.0445L50.5479 66.0371L50.845 72.0297C57.8148 71.6841 63.2348 69.3161 66.83 65.0637C70.3033 60.9554 71.354 55.9286 71.4535 51.6281L65.4551 51.4893ZM50.5479 66.0371L44.6772 67.2763C45.0146 68.8748 45.8172 71.9306 48.3159 73.9514L52.0889 69.2861L55.8619 64.6209C56.171 64.8709 56.3636 65.1082 56.468 65.2557C56.5214 65.331 56.5572 65.3906 56.5785 65.4286C56.5999 65.4666 56.6098 65.4883 56.6104 65.4896C56.6111 65.4911 56.6047 65.4772 56.5928 65.4453C56.581 65.4135 56.5652 65.3679 56.5465 65.3069C56.5084 65.1827 56.4643 65.0148 56.4185 64.798L50.5479 66.0371ZM52.0889 69.2861L48.3171 73.9524C52.3692 77.2278 57.609 78.0213 61.3648 78.2632C63.3635 78.3919 65.2718 78.3776 66.826 78.3501C68.5315 78.3199 69.5356 78.286 70.258 78.3197L70.5371 72.3262L70.8163 66.3327C69.5853 66.2753 67.9409 66.3285 66.6138 66.352C65.1353 66.3781 63.6269 66.384 62.1359 66.288C58.9123 66.0804 56.8812 65.4449 55.8606 64.6199L52.0889 69.2861ZM70.5371 72.3262L76.5348 72.4944C76.7403 65.1648 76.9941 58.2284 77.2911 52.3764L71.2988 52.0723L65.3065 51.7681C65.0034 57.7405 64.7465 64.7735 64.5395 72.158L70.5371 72.3262ZM71.2988 52.0723L71.414 46.0734C69.6387 46.0393 68.0272 45.8693 66.57 45.5938L65.4551 51.4893L64.3401 57.3848C66.4998 57.7932 68.7825 58.0251 71.1837 58.0712L71.2988 52.0723Z" fill="white" mask="url(#path-1-outside-1_1679_4268)"/>
<g filter="url(#filter0_i_1679_4268)">
<path d="M65.8392 51.0713C65.8392 59.3248 61.775 67.6694 45.3859 66.0156C28.5389 64.3156 25.375 59.3248 25.375 51.0713C26.804 42.2945 34.7337 36.127 45.3859 36.127C56.0382 36.127 65.8392 42.8178 65.8392 51.0713Z" fill="url(#paint0_linear_1679_4268)"/>
</g>
<g filter="url(#filter1_i_1679_4268)">
<path d="M119.628 65.8447C119.628 74.0982 115.564 82.4429 99.175 80.789C82.3279 79.089 79.1641 74.0982 79.1641 65.8447C80.5931 57.0679 88.5227 50.9004 99.175 50.9004C109.827 50.9004 119.628 57.5912 119.628 65.8447Z" fill="url(#paint1_linear_1679_4268)"/>
</g>
<g filter="url(#filter2_i_1679_4268)">
<path d="M102.643 31.1318C102.643 42.7196 98.6464 50.4481 75.6728 52.1133C56.6835 53.4897 47.6914 42.7196 47.6914 31.1318C49.6896 18.8094 60.7777 10.1504 75.6728 10.1504C90.5679 10.1504 102.643 19.5441 102.643 31.1318Z" fill="url(#paint2_linear_1679_4268)"/>
</g>
<g filter="url(#filter3_i_1679_4268)">
<path d="M97.6445 85.0837C102.973 81.4202 99.9758 67.4319 99.3097 67.7656C98.6436 68.0993 99.9413 79.3583 96.9784 81.7533C90.9666 86.6127 78.7808 83.9682 76.9961 85.0837V87.748C76.9961 87.748 92.3159 88.7471 97.6445 85.0837Z" fill="#4C331D"/>
</g>
<g filter="url(#filter4_i_1679_4268)">
<path d="M51.7982 72.7672C46.4696 69.1038 49.4669 55.1155 50.133 55.4492C50.7991 55.7829 49.5014 67.0419 52.4643 69.4369C58.4761 74.2963 70.6619 71.6518 72.4466 72.7672V75.4316C72.4466 75.4316 57.1268 76.4307 51.7982 72.7672Z" fill="#4C331D"/>
</g>
<g filter="url(#filter5_i_1679_4268)">
<path d="M70.672 134.037C69.5619 133.148 70.6694 34.7945 73.6694 34.791C76.6693 34.7875 78.3288 129.045 77.6659 134.037C75.6792 136.384 71.7822 134.925 70.672 134.037Z" fill="#4C331D"/>
</g>
<defs>
<filter id="filter0_i_1679_4268" x="25.375" y="36.127" width="40.4648" height="30.0996" filterUnits="userSpaceOnUse" color-interpolation-filters="sRGB">
<feFlood flood-opacity="0" result="BackgroundImageFix"/>
<feBlend mode="normal" in="SourceGraphic" in2="BackgroundImageFix" result="shape"/>
<feColorMatrix in="SourceAlpha" type="matrix" values="0 0 0 0 0 0 0 0 0 0 0 0 0 0 0 0 0 0 127 0" result="hardAlpha"/>
<feOffset dx="-3" dy="-4"/>
<feComposite in2="hardAlpha" operator="arithmetic" k2="-1" k3="1"/>
<feColorMatrix type="matrix" values="0 0 0 0 0 0 0 0 0 0 0 0 0 0 0 0 0 0 0.25 0"/>
<feBlend mode="normal" in2="shape" result="effect1_innerShadow_1679_4268"/>
</filter>
<filter id="filter1_i_1679_4268" x="79.1641" y="50.9004" width="40.4648" height="30.0996" filterUnits="userSpaceOnUse" color-interpolation-filters="sRGB">
<feFlood flood-opacity="0" result="BackgroundImageFix"/>
<feBlend mode="normal" in="SourceGraphic" in2="BackgroundImageFix" result="shape"/>
<feColorMatrix in="SourceAlpha" type="matrix" values="0 0 0 0 0 0 0 0 0 0 0 0 0 0 0 0 0 0 127 0" result="hardAlpha"/>
<feOffset dx="-3" dy="-4"/>
<feComposite in2="hardAlpha" operator="arithmetic" k2="-1" k3="1"/>
<feColorMatrix type="matrix" values="0 0 0 0 0 0 0 0 0 0 0 0 0 0 0 0 0 0 0.25 0"/>
<feBlend mode="normal" in2="shape" result="effect1_innerShadow_1679_4268"/>
</filter>
<filter id="filter2_i_1679_4268" x="47.6914" y="10.1504" width="54.9531" height="42.082" filterUnits="userSpaceOnUse" color-interpolation-filters="sRGB">
<feFlood flood-opacity="0" result="BackgroundImageFix"/>
<feBlend mode="normal" in="SourceGraphic" in2="BackgroundImageFix" result="shape"/>
<feColorMatrix in="SourceAlpha" type="matrix" values="0 0 0 0 0 0 0 0 0 0 0 0 0 0 0 0 0 0 127 0" result="hardAlpha"/>
<feOffset dx="-3" dy="-4"/>
<feComposite in2="hardAlpha" operator="arithmetic" k2="-1" k3="1"/>
<feColorMatrix type="matrix" values="0 0 0 0 0 0 0 0 0 0 0 0 0 0 0 0 0 0 0.25 0"/>
<feBlend mode="normal" in2="shape" result="effect1_innerShadow_1679_4268"/>
</filter>
<filter id="filter3_i_1679_4268" x="76.9961" y="67.7598" width="23.7539" height="20.1133" filterUnits="userSpaceOnUse" color-interpolation-filters="sRGB">
<feFlood flood-opacity="0" result="BackgroundImageFix"/>
<feBlend mode="normal" in="SourceGraphic" in2="BackgroundImageFix" result="shape"/>
<feColorMatrix in="SourceAlpha" type="matrix" values="0 0 0 0 0 0 0 0 0 0 0 0 0 0 0 0 0 0 127 0" result="hardAlpha"/>
<feOffset dx="-1.33216" dy="-0.666078"/>
<feComposite in2="hardAlpha" operator="arithmetic" k2="-1" k3="1"/>
<feColorMatrix type="matrix" values="0 0 0 0 0.211765 0 0 0 0 0.141176 0 0 0 0 0.0823529 0 0 0 1 0"/>
<feBlend mode="normal" in2="shape" result="effect1_innerShadow_1679_4268"/>
</filter>
<filter id="filter4_i_1679_4268" x="48.6914" y="55.4434" width="23.7539" height="20.1133" filterUnits="userSpaceOnUse" color-interpolation-filters="sRGB">
<feFlood flood-opacity="0" result="BackgroundImageFix"/>
<feBlend mode="normal" in="SourceGraphic" in2="BackgroundImageFix" result="shape"/>
<feColorMatrix in="SourceAlpha" type="matrix" values="0 0 0 0 0 0 0 0 0 0 0 0 0 0 0 0 0 0 127 0" result="hardAlpha"/>
<feOffset dx="0.666078" dy="-0.666078"/>
<feComposite in2="hardAlpha" operator="arithmetic" k2="-1" k3="1"/>
<feColorMatrix type="matrix" values="0 0 0 0 0.211765 0 0 0 0 0.141176 0 0 0 0 0.0823529 0 0 0 1 0"/>
<feBlend mode="normal" in2="shape" result="effect1_innerShadow_1679_4268"/>
</filter>
<filter id="filter5_i_1679_4268" x="70.25" y="34.791" width="7.5625" height="100.516" filterUnits="userSpaceOnUse" color-interpolation-filters="sRGB">
<feFlood flood-opacity="0" result="BackgroundImageFix"/>
<feBlend mode="normal" in="SourceGraphic" in2="BackgroundImageFix" result="shape"/>
<feColorMatrix in="SourceAlpha" type="matrix" values="0 0 0 0 0 0 0 0 0 0 0 0 0 0 0 0 0 0 127 0" result="hardAlpha"/>
<feOffset dx="-1.33216" dy="-1.33216"/>
<feComposite in2="hardAlpha" operator="arithmetic" k2="-1" k3="1"/>
<feColorMatrix type="matrix" values="0 0 0 0 0.21295 0 0 0 0 0.142701 0 0 0 0 0.0808829 0 0 0 1 0"/>
<feBlend mode="normal" in2="shape" result="effect1_innerShadow_1679_4268"/>
</filter>
<linearGradient id="paint0_linear_1679_4268" x1="45.6071" y1="36.127" x2="45.6071" y2="66.2269" gradientUnits="userSpaceOnUse">
<stop stop-color="#09310E"/>
<stop offset="1" stop-color="#478765"/>
</linearGradient>
<linearGradient id="paint1_linear_1679_4268" x1="99.3962" y1="50.9004" x2="99.3962" y2="81.0003" gradientUnits="userSpaceOnUse">
<stop stop-color="#09310E"/>
<stop offset="1" stop-color="#478765"/>
</linearGradient>
<linearGradient id="paint2_linear_1679_4268" x1="75.1671" y1="10.1504" x2="75.1671" y2="52.2324" gradientUnits="userSpaceOnUse">
<stop stop-color="#09310E"/>
<stop offset="1" stop-color="#478765"/>
</linearGradient>
</defs>
</svg>
