<svg width="100" height="100" viewBox="0 0 100 100" fill="none" xmlns="http://www.w3.org/2000/svg">
<path d="M31.8462 48.3258C27.1678 47.9248 21.4125 50.0226 19.8105 54.2846C24.5711 54.8248 28.6524 54.3508 33.2061 53.3202C34.9363 52.9291 36.7125 52.4983 38.3606 51.8222C36.6829 49.8072 34.4531 48.5478 31.8462 48.3258Z" fill="#9040B5"/>
<path d="M46.5784 44.4244C46.5127 44.388 46.5455 44.388 46.4799 44.4078C44.011 45.1005 36.7059 46.3201 33.623 48.2257C34.5357 48.4743 35.3369 48.8024 36.1347 49.3161C37.0309 49.9392 37.9469 50.6882 38.5445 51.6194C41.3122 49.5182 44.0372 47.3541 46.5389 44.9315C46.5619 44.7591 46.5784 44.5934 46.5784 44.4244Z" fill="#9040B5"/>
<path d="M48.4291 56.766C49.4928 57.3692 50.3169 57.5084 51.4168 56.8621C51.7254 56.597 51.5514 56.5804 51.512 53.6739C50.4384 53.9921 49.5388 54.1247 48.4882 53.6309C48.4652 54.6748 48.4193 55.722 48.4291 56.766Z" fill="#9040B5"/>
<path d="M21.1007 51.5258C17.8242 48.8248 17.5418 48.7552 13.7071 47.1677C13.3394 47.0153 12.535 46.5579 12.1804 46.5215C11.2578 47.2009 10.2894 48.0361 10.1121 49.2457C10.0202 49.8754 10.1613 50.4984 10.5422 51.0121C11.8784 52.8017 16.8589 53.8423 18.9991 54.1672C19.1304 54.1904 19.2716 54.2334 19.4029 54.197C19.5868 53.8589 19.6721 53.4778 19.8462 53.1365C20.1482 52.5466 20.6706 52.0196 21.1007 51.5258Z" fill="#9040B5"/>
<path d="M51.0276 32.5697C50.5286 32.2979 50.0394 32.2814 49.4911 32.3079C48.7689 32.4901 48.3026 32.9011 47.9251 33.5374C46.7596 35.4994 46.3262 37.9784 46.8843 40.2021C47.1667 41.3256 47.7577 42.5751 48.7852 43.1815C51.4314 44.7358 54.2746 40.6131 52.9187 35.8408C52.6429 34.8598 51.9633 33.0801 51.0276 32.5697Z" fill="#9040B5"/>
<path d="M16.9512 33.1824C21.5837 36.0889 26.7352 38.2729 31.6596 39.5323C32.1488 38.8761 32.441 38.3293 32.3228 37.4775C32.1094 35.9265 30.8815 34.4086 29.6734 33.5006C27.6181 31.9562 24.0231 30.4649 21.4491 30.8261C19.2658 31.0415 17.946 31.8767 16.9512 33.1824Z" fill="#9040B5"/>
<path d="M47.0214 42.6074C36.6171 43.3034 27.2735 42.5014 20.0109 43.7342C19.2393 43.8668 18.4777 44.049 17.7127 44.228C15.9037 44.6555 14.1537 45.1957 12.5713 46.2065C13.8813 46.6539 15.1649 47.2107 16.4256 47.7808C18.2609 48.6259 19.9648 49.8057 21.3273 51.3203C21.892 50.8132 22.4666 50.3326 23.1068 49.9283C25.9828 48.1056 29.9028 47.5156 33.1009 48.0757C35.8096 46.147 41.1643 45.1261 44.4609 44.4567C45.1996 44.3076 45.935 44.0624 46.6803 43.9563C46.7394 43.6382 47.0775 42.8659 47.048 42.6274L47.0214 42.6074Z" fill="#9040B5"/>
<path d="M46.4663 45.5645C40.9802 50.5357 42.1982 49.2299 39.3682 51.4968C39.424 51.52 39.5389 51.4736 39.5947 51.4504C43.3998 50.0352 46.289 48.2853 46.8242 48.0037C46.7027 47.4038 46.5944 46.8139 46.5451 46.2041C46.5287 46.0616 46.5451 45.6672 46.4663 45.5645Z" fill="#9040B5"/>
<path d="M46.6441 41.7175C46.4471 41.2436 46.2699 40.7597 46.1155 40.2692C42.5369 40.299 39.5558 39.2982 36.1643 38.3338C35.0184 38.009 33.8168 37.7704 32.6907 37.3926C32.717 38.3636 32.6415 38.8541 32.0439 39.6329C37.2477 40.9221 41.4533 41.4226 46.6441 41.7175Z" fill="#9040B5"/>
<path d="M49.6707 27.2536L50.2583 27.237C50.3765 27.1011 50.6392 26.7267 50.6425 26.5444C50.649 26.1666 50.15 26.1202 49.7758 26.1533C49.6116 26.203 49.4606 26.2328 49.3325 26.3488C49.28 26.4615 49.2603 26.5378 49.3096 26.6571C49.3884 26.8658 49.5492 27.068 49.6707 27.2536Z" fill="#9040B5"/>
<path d="M51.6736 29.5566C52.0085 29.7389 52.3237 29.7455 52.6914 29.6958C54.7335 29.0032 54.1819 26.5242 52.1496 26.5176C51.6933 26.6402 51.3092 26.8589 51.0596 27.2798C50.8298 27.6709 50.7904 28.1316 50.9086 28.5624C51.0301 28.98 51.2928 29.3511 51.6736 29.5566Z" fill="#9040B5"/>
<path d="M81.9187 24.0925C81.9154 24.0759 81.8957 24.066 81.8825 24.0527L81.7611 24.0693C78.0511 24.7752 74.6235 26.3892 71.2845 28.1059C63.7398 31.9834 55.6995 37.458 53.979 38.1775C53.9888 38.7442 53.956 39.2943 53.8838 39.8577C55.1478 39.8611 57.5116 39.6423 58.8873 39.2844C61.0246 38.7243 63.8907 37.445 65.9985 37.3026C66.4089 37.2761 66.7995 37.3092 67.2034 37.3854C67.9519 34.7905 69.8299 33.2593 72.0854 32.01C75.2668 30.2469 78.4021 29.4548 81.5475 31.3637C81.0058 29.8491 80.7366 27.9203 81.101 26.3395C81.3407 25.2657 81.9285 24.1687 81.9187 24.0925Z" fill="#9040B5"/>
<path d="M53.8762 36.7323C53.8893 37.067 53.9156 37.3985 53.9517 37.7332C54.5131 37.4548 55.0482 37.1068 55.5867 36.782L58.0227 35.3105C62.2022 32.6725 66.4046 30.114 70.7972 27.8504C71.7033 27.3831 72.6029 26.8926 73.5222 26.4519C75.9878 25.2721 78.9623 24.1287 81.6512 23.6415C83.5915 23.2902 85.4728 23.267 87.3999 23.7177C88.1518 23.8934 88.9167 24.0922 89.6095 24.4535C88.3816 23.1344 86.6612 22.6838 84.9146 22.6274C84.6421 22.6175 84.3696 22.6142 84.0971 22.6307C78.9952 22.866 74.1753 25.2092 69.7073 27.5091C61.3484 31.8175 56.2076 35.3405 53.8762 36.7323Z" fill="#9040B5"/>
<path d="M47.5624 30.4046C47.0469 30.4079 46.6201 30.2256 46.167 29.9771C46.538 30.7095 47.0666 31.2431 47.8578 31.4983C48.6162 31.7402 49.391 31.5579 50.1691 31.5745C51.1901 31.6706 52.1029 31.7004 52.9401 31.0045C53.3144 30.6896 53.577 30.3019 53.7937 29.8644C52.7102 30.6465 51.5382 30.451 50.852 29.7981C50.6353 29.5926 50.3858 29.238 50.3037 28.9662C50.2348 28.7409 50.2381 28.1841 50.0969 28.0516C50.005 28.0482 49.9163 28.0449 49.8244 28.0482C49.7751 28.9497 49.4041 29.702 48.6326 30.1262C48.3076 30.3018 47.9399 30.4013 47.5624 30.4046Z" fill="#9040B5"/>
<path d="M18.1829 31.4205C18.544 31.1918 18.9084 30.9631 19.3057 30.8041C23.2783 29.2133 29.8049 31.9209 31.8801 35.2417C32.2051 35.762 32.4317 36.3188 32.6122 36.9021C34.697 37.3229 41.1843 39.5235 44.3294 39.7886C44.8908 39.8383 45.4489 39.8682 46.0136 39.8549C45.9578 39.3346 45.8954 38.8142 45.879 38.2906C41.6306 35.5068 37.2901 32.8786 32.8583 30.4063C31.7913 29.7998 27.8777 27.344 23.7374 25.74C20.2474 24.3878 19.2953 24.3978 17.877 24.0332C18.7831 25.7764 19.1278 27.1253 18.7929 29.0938C18.6156 30.1279 18.4619 30.6483 18.1829 31.4205Z" fill="#9040B5"/>
<path d="M24.3211 25.4933C25.5293 25.9739 26.6915 26.5671 27.8537 27.1537C28.4578 27.4586 29.075 27.7469 29.6759 28.0651C31.8887 29.2548 38.015 32.8009 40.0306 34.0371C41.0188 34.6436 41.9676 35.3164 42.9624 35.9063C43.9572 36.5227 44.9389 37.1591 45.9074 37.8086C45.9468 37.4441 45.9829 37.0795 46.042 36.7182C41.9972 34.3188 42.273 34.0702 33.5172 29.215C28.7271 26.5604 23.7995 23.8561 18.3524 22.8983C17.0555 22.6696 15.7817 22.5304 14.4619 22.6265C12.9779 22.7525 11.3724 23.1999 10.3711 24.3863C14.9609 22.3746 19.8884 23.7335 24.3211 25.4933Z" fill="#9040B5"/>
<path d="M14.8601 31.7279C15.4248 32.1421 15.9961 32.5597 16.5903 32.9276C16.9055 32.51 17.3389 32.0792 17.595 31.6318C18.2319 30.515 18.6226 28.1785 18.4617 26.9291C18.3271 25.8917 17.9167 24.8246 17.3257 23.9662C16.5082 23.837 15.6316 23.7442 14.8042 23.8303C13.2776 23.943 11.4653 24.2347 10.1061 24.9637C9.87958 25.7525 10.0306 26.4883 10.418 27.1941C11.4357 29.0534 13.2317 30.4485 14.8601 31.7279Z" fill="#9040B5"/>
<path d="M47.6225 29.7308C48.1051 29.6281 48.4991 29.4292 48.7847 29.005C49.4085 28.077 49.0113 26.4896 47.4321 26.526C46.1188 26.7182 45.5935 27.9511 46.1418 28.9089C46.4274 29.406 46.9462 29.7441 47.6225 29.7308Z" fill="#9040B5"/>
<path d="M48.0759 68.2231C48.8343 68.7202 49.6453 69.0218 50.5547 68.8296C50.9716 68.7434 51.3229 68.5611 51.6874 68.349C51.8122 68.2463 51.8351 68.2132 51.8483 68.0508C51.9271 67.0664 51.8187 66.0159 51.799 65.0283C50.4956 65.5552 49.4286 65.5817 48.1515 65.0117C48.1252 66.0689 48.0431 67.1592 48.0759 68.2231Z" fill="#9040B5"/>
<path d="M87.9224 46.6421C87.837 46.5825 87.7582 46.5261 87.6532 46.5294C85.5552 47.4276 83.3096 48.213 81.3988 49.4857C80.4992 50.0855 79.6883 50.8113 78.8643 51.5106C79.6161 52.2993 80.2662 53.1909 80.5288 54.2679L81.0541 54.2016C83.1389 53.8636 88.1095 52.7335 89.3539 51.0102C89.7446 50.47 89.9251 49.8337 89.8168 49.1642C89.6494 48.107 88.753 47.2387 87.9224 46.6421Z" fill="#9040B5"/>
<path d="M66.1525 48.2917C64.3468 46.585 56.1819 45.3654 53.3184 44.4043C53.3315 44.5833 53.3348 44.7622 53.3676 44.9412C54.7892 46.1442 56.3322 47.6621 59.8386 50.4858C60.341 50.8934 60.8236 51.354 61.3423 51.7352C62.6687 49.813 64.1169 48.8253 66.1525 48.2917Z" fill="#9040B5"/>
<path d="M66.175 37.7822C62.4978 38.0904 60.7512 40.2612 53.7678 40.3043C53.6003 40.7583 53.4263 41.209 53.2852 41.673C55.9576 41.6267 58.0851 41.3383 60.751 40.9903C62.9868 40.6987 65.262 40.4336 67.4321 39.7939C67.1892 39.0979 67.1169 38.5578 67.1432 37.822C66.8182 37.7789 66.4999 37.7524 66.175 37.7822Z" fill="#9040B5"/>
<path d="M62.4427 50.9461C62.1571 51.2643 61.901 51.6023 61.6416 51.9437C64.291 52.8086 69.8592 54.0482 73.3066 54.363C75.4144 54.5221 78.0047 54.6083 80.083 54.3233C78.7107 49.0008 67.0687 45.789 62.4427 50.9461Z" fill="#9040B5"/>
<path d="M65.3872 47.2184C65.8731 47.4736 66.2211 47.7851 66.5757 48.2027C70.8438 47.4471 75.5193 48.448 78.6021 51.265C81.3008 48.7893 81.5602 48.7396 83.6713 47.7354C84.8466 47.1853 86.0384 46.6517 87.2564 46.201C85.5492 45.1338 83.5497 44.5903 81.5996 44.1628C80.5785 43.9408 79.5607 43.7187 78.5266 43.563C71.1231 42.4362 62.5743 43.3741 52.8096 42.582C52.9803 43.0361 53.128 43.5 53.2462 43.9706C57.6653 45.2598 62.8624 45.8861 65.3872 47.2184Z" fill="#9040B5"/>
<path d="M51.2436 53.1308C51.3487 53.0612 51.4209 53.0347 51.457 52.9021C51.5851 52.3984 51.4209 50.8904 51.4078 50.2773C50.5148 50.4662 49.5003 50.5789 48.6237 50.2441C48.5712 51.1588 48.5318 52.0769 48.5088 52.9916C49.3296 53.492 50.2488 53.6511 51.2436 53.1308Z" fill="#9040B5"/>
<path d="M89.8099 25.0625C89.1894 24.2969 85.138 23.6308 83.6574 23.8727C83.2503 23.9158 82.8432 23.9523 82.4394 24.0285C81.2377 26.3418 81.0736 28.4661 81.855 30.955C82.1143 31.7803 82.6856 32.3005 83.2043 32.9634C84.1203 32.3602 85.0133 31.7471 85.8867 31.0809C87.2328 29.9973 89.7739 27.621 89.9905 25.8645C90.0201 25.5895 89.9872 25.2812 89.8099 25.0625Z" fill="#9040B5"/>
<path d="M75.8268 30.9752C73.6599 31.4989 70.6296 33.0101 69.1391 34.6572C68.2362 35.6581 67.4647 37.0599 67.5336 38.4552C67.5533 38.8728 67.6583 39.2904 67.7995 39.6814C73.046 38.3624 78.1147 36.2082 82.8559 33.1891C82.5604 32.8444 82.2649 32.4766 81.9202 32.1816C80.9845 31.3796 79.5202 30.8626 78.3054 30.7697C77.4584 30.7068 76.5556 30.7996 75.8268 30.9752Z" fill="#9040B5"/>
<path d="M49.1096 79.793C49.0998 81.5859 49.1031 83.3921 49.5562 85.1354C49.6284 85.4137 49.6842 85.7319 49.8582 85.9639C49.9075 85.9838 49.9403 86.0169 49.9895 85.9904C50.1602 85.9009 50.2456 85.5563 50.308 85.3806C50.7446 83.5479 50.7873 81.702 50.7775 79.8261C50.1209 80.1542 49.694 80.1045 49.1096 79.793Z" fill="#9040B5"/>
<path d="M48.2068 64.4177C48.2593 64.4641 48.325 64.5039 48.3841 64.5403C49.1589 64.9181 50.0289 65.1369 50.8694 64.8419C51.0992 64.7624 51.6376 64.5635 51.7361 64.3348C51.7886 64.2155 51.7623 61.4118 51.6737 61.2461C50.4491 61.783 49.4904 61.7598 48.2494 61.2859C48.2428 61.6405 48.1017 64.3216 48.2068 64.4177Z" fill="#9040B5"/>
<path d="M51.7751 72.3796C51.8047 72.3398 51.8441 72.3001 51.8671 72.257C51.9656 72.0681 51.8736 69.3107 51.8507 68.8965C50.5046 69.5162 49.3883 69.6157 48.0751 68.9031C48.0324 70.0465 47.9766 71.1932 47.9766 72.3366C49.3916 73.2115 50.718 73.1087 51.7751 72.3796Z" fill="#9040B5"/>
<path d="M48.3442 60.6696L48.5708 60.7922C49.6214 61.3026 50.5111 61.3523 51.6864 60.5934C51.6733 60.1758 51.6799 57.6338 51.5748 57.4316C50.5242 57.9089 49.3784 57.8757 48.3902 57.4582C48.3672 57.942 48.1867 60.4111 48.3442 60.6696Z" fill="#9040B5"/>
<path d="M48.2158 76.239C48.4949 77.4752 48.9545 79.6028 50.1562 79.3046C51.2231 79.0395 51.4891 77.3394 51.6106 76.2324C50.4779 76.7329 49.2862 76.7527 48.2158 76.239Z" fill="#9040B5"/>
<path d="M49.9116 44.2497C49.0186 44.243 48.2734 43.789 47.6167 43.209C47.4788 43.6862 47.3475 44.1601 47.2851 44.6572C47.1275 45.9067 47.2884 47.5405 47.9023 48.6573C48.1683 49.1379 48.5393 49.4892 49.0744 49.645C49.731 49.8339 50.7192 49.8472 51.3168 49.4892C51.7009 49.2572 51.9472 48.8993 52.1343 48.4983C52.7909 46.7783 52.9255 44.9422 52.2197 43.2155C51.5794 43.8485 50.8277 44.253 49.9116 44.2497Z" fill="#9040B5"/>
<path d="M47.9873 72.9652C47.9939 73.8367 47.9972 74.7482 48.1219 75.6132C48.8081 76.0904 49.6913 76.2196 50.5022 76.0705C50.9355 75.991 51.3197 75.8219 51.7104 75.6198C51.8187 74.8608 52.0026 73.6777 51.8811 72.9453C50.4891 73.6811 49.0773 73.628 47.9873 72.9652Z" fill="#9040B5"/>
<path d="M58.007 49.5372C57.0123 48.712 56.0438 47.8404 55.0654 46.9953C54.6451 46.634 53.7883 45.7392 53.4106 45.5039C53.4073 46.3556 53.2892 47.1643 53.125 47.9961C58.1317 50.8364 60.3709 51.4594 60.3873 51.466C60.3708 51.3334 59.0477 50.3988 58.007 49.5372Z" fill="#9040B5"/>
<path d="M57.3041 30.9195C58.5845 30.6279 59.727 29.2558 60.7054 26.8332C62.9314 21.3185 71.7107 19.7112 71.7989 19.6945C71.9894 19.6614 72.1141 19.4791 72.0813 19.2902C72.0485 19.1013 71.8712 18.972 71.6808 19.0052C71.3032 19.0715 62.4355 20.6954 60.062 26.5681C58.9621 29.2922 57.8786 30.0645 57.163 30.2302C56.3849 30.4124 55.8432 29.9385 55.8169 29.9153C55.6757 29.7861 55.4557 29.796 55.3277 29.9385C55.1996 30.081 55.2062 30.3031 55.3474 30.4323C55.7742 30.8234 56.5392 31.0918 57.3041 30.9195Z" fill="#9040B5"/>
<path d="M28.3136 19.6945C28.4023 19.7111 37.1815 21.3118 39.4071 26.8332C40.1228 28.6062 41.3967 30.9758 43.3042 30.9758C44.1676 30.9758 44.7356 30.4622 44.7652 30.4356C44.9064 30.3064 44.9162 30.0877 44.7882 29.9418C44.6601 29.7993 44.4402 29.7894 44.299 29.9153C44.276 29.9352 43.7343 30.4158 42.9529 30.2302C42.2371 30.0611 41.1537 29.2922 40.0539 26.5681C37.6835 20.6921 28.8125 19.0715 28.4351 19.0052C28.2447 18.972 28.0674 19.1013 28.0345 19.2902C27.9984 19.4791 28.1232 19.6614 28.3136 19.6945Z" fill="#9040B5"/>
</svg>
