<svg width="30" height="30" viewBox="0 0 30 30" fill="none" xmlns="http://www.w3.org/2000/svg">
<path d="M0.43934 27.4393C-0.146447 28.0251 -0.146447 28.9749 0.43934 29.5607C1.02513 30.1464 1.97487 30.1464 2.56066 29.5607L1.5 28.5L0.43934 27.4393ZM30 1.5C30 0.671574 29.3284 1.31269e-06 28.5 2.59017e-07L15 7.64779e-07C14.1716 7.64779e-07 13.5 0.671573 13.5 1.5C13.5 2.32843 14.1716 3 15 3L27 3L27 15C27 15.8284 27.6716 16.5 28.5 16.5C29.3284 16.5 30 15.8284 30 15L30 1.5ZM1.5 28.5L2.56066 29.5607L29.5607 2.56066L28.5 1.5L27.4393 0.439341L0.43934 27.4393L1.5 28.5Z" fill="black"/>
</svg>
