<svg xmlns="http://www.w3.org/2000/svg" xmlns:xlink="http://www.w3.org/1999/xlink" width="1406" height="2822" viewBox="0 0 1406 2822"><defs><filter id="f" width="122.2%" height="114.3%" x="-11.1%" y="-7.1%" filterUnits="objectBoundingBox"><feGaussianBlur in="SourceAlpha" result="shadowBlurInner1" stdDeviation="1"/><feOffset dy="-2" in="shadowBlurInner1" result="shadowOffsetInner1"/><feComposite in="shadowOffsetInner1" in2="SourceAlpha" k2="-1" k3="1" operator="arithmetic" result="shadowInnerInner1"/><feColorMatrix in="shadowInnerInner1" result="shadowMatrixInner1" values="0 0 0 0 1 0 0 0 0 1 0 0 0 0 1 0 0 0 0.25 0"/><feGaussianBlur in="SourceAlpha" result="shadowBlurInner2" stdDeviation="1"/><feOffset dy="2" in="shadowBlurInner2" result="shadowOffsetInner2"/><feComposite in="shadowOffsetInner2" in2="SourceAlpha" k2="-1" k3="1" operator="arithmetic" result="shadowInnerInner2"/><feColorMatrix in="shadowInnerInner2" result="shadowMatrixInner2" values="0 0 0 0 1 0 0 0 0 1 0 0 0 0 1 0 0 0 0.25 0"/><feMerge><feMergeNode in="shadowMatrixInner1"/><feMergeNode in="shadowMatrixInner2"/></feMerge></filter><filter id="i" width="122.2%" height="114.3%" x="-11.1%" y="-7.1%" filterUnits="objectBoundingBox"><feGaussianBlur in="SourceAlpha" result="shadowBlurInner1" stdDeviation="1"/><feOffset dy="-2" in="shadowBlurInner1" result="shadowOffsetInner1"/><feComposite in="shadowOffsetInner1" in2="SourceAlpha" k2="-1" k3="1" operator="arithmetic" result="shadowInnerInner1"/><feColorMatrix in="shadowInnerInner1" result="shadowMatrixInner1" values="0 0 0 0 1 0 0 0 0 1 0 0 0 0 1 0 0 0 0.25 0"/><feGaussianBlur in="SourceAlpha" result="shadowBlurInner2" stdDeviation="1"/><feOffset dy="2" in="shadowBlurInner2" result="shadowOffsetInner2"/><feComposite in="shadowOffsetInner2" in2="SourceAlpha" k2="-1" k3="1" operator="arithmetic" result="shadowInnerInner2"/><feColorMatrix in="shadowInnerInner2" result="shadowMatrixInner2" values="0 0 0 0 1 0 0 0 0 1 0 0 0 0 1 0 0 0 0.25 0"/><feMerge><feMergeNode in="shadowMatrixInner1"/><feMergeNode in="shadowMatrixInner2"/></feMerge></filter><filter id="k" width="122.2%" height="114.3%" x="-11.1%" y="-7.1%" filterUnits="objectBoundingBox"><feGaussianBlur in="SourceAlpha" result="shadowBlurInner1" stdDeviation="1"/><feOffset dy="-2" in="shadowBlurInner1" result="shadowOffsetInner1"/><feComposite in="shadowOffsetInner1" in2="SourceAlpha" k2="-1" k3="1" operator="arithmetic" result="shadowInnerInner1"/><feColorMatrix in="shadowInnerInner1" result="shadowMatrixInner1" values="0 0 0 0 1 0 0 0 0 1 0 0 0 0 1 0 0 0 0.25 0"/><feGaussianBlur in="SourceAlpha" result="shadowBlurInner2" stdDeviation="1"/><feOffset dy="2" in="shadowBlurInner2" result="shadowOffsetInner2"/><feComposite in="shadowOffsetInner2" in2="SourceAlpha" k2="-1" k3="1" operator="arithmetic" result="shadowInnerInner2"/><feColorMatrix in="shadowInnerInner2" result="shadowMatrixInner2" values="0 0 0 0 1 0 0 0 0 1 0 0 0 0 1 0 0 0 0.25 0"/><feMerge><feMergeNode in="shadowMatrixInner1"/><feMergeNode in="shadowMatrixInner2"/></feMerge></filter><filter id="m" width="122.2%" height="114.3%" x="-11.1%" y="-7.1%" filterUnits="objectBoundingBox"><feGaussianBlur in="SourceAlpha" result="shadowBlurInner1" stdDeviation="1"/><feOffset dy="-2" in="shadowBlurInner1" result="shadowOffsetInner1"/><feComposite in="shadowOffsetInner1" in2="SourceAlpha" k2="-1" k3="1" operator="arithmetic" result="shadowInnerInner1"/><feColorMatrix in="shadowInnerInner1" result="shadowMatrixInner1" values="0 0 0 0 1 0 0 0 0 1 0 0 0 0 1 0 0 0 0.25 0"/><feGaussianBlur in="SourceAlpha" result="shadowBlurInner2" stdDeviation="1"/><feOffset dy="2" in="shadowBlurInner2" result="shadowOffsetInner2"/><feComposite in="shadowOffsetInner2" in2="SourceAlpha" k2="-1" k3="1" operator="arithmetic" result="shadowInnerInner2"/><feColorMatrix in="shadowInnerInner2" result="shadowMatrixInner2" values="0 0 0 0 1 0 0 0 0 1 0 0 0 0 1 0 0 0 0.25 0"/><feMerge><feMergeNode in="shadowMatrixInner1"/><feMergeNode in="shadowMatrixInner2"/></feMerge></filter><filter id="o" width="380%" height="114%" x="-140%" y="-7%" filterUnits="objectBoundingBox"><feGaussianBlur in="SourceAlpha" result="shadowBlurInner1" stdDeviation="4"/><feOffset dy="-20" in="shadowBlurInner1" result="shadowOffsetInner1"/><feComposite in="shadowOffsetInner1" in2="SourceAlpha" k2="-1" k3="1" operator="arithmetic" result="shadowInnerInner1"/><feColorMatrix in="shadowInnerInner1" result="shadowMatrixInner1" values="0 0 0 0 0.455899004 0 0 0 0 0.455899004 0 0 0 0 0.439966862 0 0 0 1 0"/><feGaussianBlur in="SourceAlpha" result="shadowBlurInner2" stdDeviation="3"/><feOffset dy="-9" in="shadowBlurInner2" result="shadowOffsetInner2"/><feComposite in="shadowOffsetInner2" in2="SourceAlpha" k2="-1" k3="1" operator="arithmetic" result="shadowInnerInner2"/><feColorMatrix in="shadowInnerInner2" result="shadowMatrixInner2" values="0 0 0 0 0.788235294 0 0 0 0 0.788235294 0 0 0 0 0.788235294 0 0 0 1 0"/><feGaussianBlur in="SourceAlpha" result="shadowBlurInner3" stdDeviation="1"/><feOffset dx="4" in="shadowBlurInner3" result="shadowOffsetInner3"/><feComposite in="shadowOffsetInner3" in2="SourceAlpha" k2="-1" k3="1" operator="arithmetic" result="shadowInnerInner3"/><feColorMatrix in="shadowInnerInner3" result="shadowMatrixInner3" values="0 0 0 0 0.407297328 0 0 0 0 0.407297328 0 0 0 0 0.392714407 0 0 0 1 0"/><feMorphology in="SourceAlpha" operator="dilate" radius="6" result="shadowSpreadInner4"/><feGaussianBlur in="shadowSpreadInner4" result="shadowBlurInner4" stdDeviation="4"/><feOffset dy="24" in="shadowBlurInner4" result="shadowOffsetInner4"/><feComposite in="shadowOffsetInner4" in2="SourceAlpha" k2="-1" k3="1" operator="arithmetic" result="shadowInnerInner4"/><feColorMatrix in="shadowInnerInner4" result="shadowMatrixInner4" values="0 0 0 0 0.858823529 0 0 0 0 0.858823529 0 0 0 0 0.858823529 0 0 0 1 0"/><feMorphology in="SourceAlpha" operator="dilate" radius="2" result="shadowSpreadInner5"/><feGaussianBlur in="shadowSpreadInner5" result="shadowBlurInner5" stdDeviation="2"/><feOffset dy="8" in="shadowBlurInner5" result="shadowOffsetInner5"/><feComposite in="shadowOffsetInner5" in2="SourceAlpha" k2="-1" k3="1" operator="arithmetic" result="shadowInnerInner5"/><feColorMatrix in="shadowInnerInner5" result="shadowMatrixInner5" values="0 0 0 0 0.509803922 0 0 0 0 0.509803922 0 0 0 0 0.509803922 0 0 0 1 0"/><feGaussianBlur in="SourceAlpha" result="shadowBlurInner6" stdDeviation="1"/><feOffset dy="-2" in="shadowBlurInner6" result="shadowOffsetInner6"/><feComposite in="shadowOffsetInner6" in2="SourceAlpha" k2="-1" k3="1" operator="arithmetic" result="shadowInnerInner6"/><feColorMatrix in="shadowInnerInner6" result="shadowMatrixInner6" values="0 0 0 0 0.0864187047 0 0 0 0 0.0864187047 0 0 0 0 0.0864187047 0 0 0 1 0"/><feGaussianBlur in="SourceAlpha" result="shadowBlurInner7" stdDeviation="1"/><feOffset dx="-2" in="shadowBlurInner7" result="shadowOffsetInner7"/><feComposite in="shadowOffsetInner7" in2="SourceAlpha" k2="-1" k3="1" operator="arithmetic" result="shadowInnerInner7"/><feColorMatrix in="shadowInnerInner7" result="shadowMatrixInner7" values="0 0 0 0 0.666666667 0 0 0 0 0.666666667 0 0 0 0 0.666666667 0 0 0 1 0"/><feGaussianBlur in="SourceAlpha" result="shadowBlurInner8" stdDeviation="1"/><feOffset dx="-1" in="shadowBlurInner8" result="shadowOffsetInner8"/><feComposite in="shadowOffsetInner8" in2="SourceAlpha" k2="-1" k3="1" operator="arithmetic" result="shadowInnerInner8"/><feColorMatrix in="shadowInnerInner8" result="shadowMatrixInner8" values="0 0 0 0 0.723986639 0 0 0 0 0.723986639 0 0 0 0 0.723986639 0 0 0 0.25 0"/><feMerge><feMergeNode in="shadowMatrixInner1"/><feMergeNode in="shadowMatrixInner2"/><feMergeNode in="shadowMatrixInner3"/><feMergeNode in="shadowMatrixInner4"/><feMergeNode in="shadowMatrixInner5"/><feMergeNode in="shadowMatrixInner6"/><feMergeNode in="shadowMatrixInner7"/><feMergeNode in="shadowMatrixInner8"/></feMerge></filter><filter id="q" width="380%" height="114%" x="-140%" y="-7%" filterUnits="objectBoundingBox"><feGaussianBlur in="SourceAlpha" result="shadowBlurInner1" stdDeviation="4"/><feOffset dy="-20" in="shadowBlurInner1" result="shadowOffsetInner1"/><feComposite in="shadowOffsetInner1" in2="SourceAlpha" k2="-1" k3="1" operator="arithmetic" result="shadowInnerInner1"/><feColorMatrix in="shadowInnerInner1" result="shadowMatrixInner1" values="0 0 0 0 0.455899004 0 0 0 0 0.455899004 0 0 0 0 0.439966862 0 0 0 1 0"/><feGaussianBlur in="SourceAlpha" result="shadowBlurInner2" stdDeviation="3"/><feOffset dy="-9" in="shadowBlurInner2" result="shadowOffsetInner2"/><feComposite in="shadowOffsetInner2" in2="SourceAlpha" k2="-1" k3="1" operator="arithmetic" result="shadowInnerInner2"/><feColorMatrix in="shadowInnerInner2" result="shadowMatrixInner2" values="0 0 0 0 0.788235294 0 0 0 0 0.788235294 0 0 0 0 0.788235294 0 0 0 1 0"/><feGaussianBlur in="SourceAlpha" result="shadowBlurInner3" stdDeviation="1"/><feOffset dx="4" in="shadowBlurInner3" result="shadowOffsetInner3"/><feComposite in="shadowOffsetInner3" in2="SourceAlpha" k2="-1" k3="1" operator="arithmetic" result="shadowInnerInner3"/><feColorMatrix in="shadowInnerInner3" result="shadowMatrixInner3" values="0 0 0 0 0.407297328 0 0 0 0 0.407297328 0 0 0 0 0.392714407 0 0 0 1 0"/><feMorphology in="SourceAlpha" operator="dilate" radius="6" result="shadowSpreadInner4"/><feGaussianBlur in="shadowSpreadInner4" result="shadowBlurInner4" stdDeviation="4"/><feOffset dy="24" in="shadowBlurInner4" result="shadowOffsetInner4"/><feComposite in="shadowOffsetInner4" in2="SourceAlpha" k2="-1" k3="1" operator="arithmetic" result="shadowInnerInner4"/><feColorMatrix in="shadowInnerInner4" result="shadowMatrixInner4" values="0 0 0 0 0.858823529 0 0 0 0 0.858823529 0 0 0 0 0.858823529 0 0 0 1 0"/><feMorphology in="SourceAlpha" operator="dilate" radius="2" result="shadowSpreadInner5"/><feGaussianBlur in="shadowSpreadInner5" result="shadowBlurInner5" stdDeviation="2"/><feOffset dy="8" in="shadowBlurInner5" result="shadowOffsetInner5"/><feComposite in="shadowOffsetInner5" in2="SourceAlpha" k2="-1" k3="1" operator="arithmetic" result="shadowInnerInner5"/><feColorMatrix in="shadowInnerInner5" result="shadowMatrixInner5" values="0 0 0 0 0.509803922 0 0 0 0 0.509803922 0 0 0 0 0.509803922 0 0 0 1 0"/><feGaussianBlur in="SourceAlpha" result="shadowBlurInner6" stdDeviation="1"/><feOffset dy="-2" in="shadowBlurInner6" result="shadowOffsetInner6"/><feComposite in="shadowOffsetInner6" in2="SourceAlpha" k2="-1" k3="1" operator="arithmetic" result="shadowInnerInner6"/><feColorMatrix in="shadowInnerInner6" result="shadowMatrixInner6" values="0 0 0 0 0.0864187047 0 0 0 0 0.0864187047 0 0 0 0 0.0864187047 0 0 0 1 0"/><feGaussianBlur in="SourceAlpha" result="shadowBlurInner7" stdDeviation="1"/><feOffset dx="-2" in="shadowBlurInner7" result="shadowOffsetInner7"/><feComposite in="shadowOffsetInner7" in2="SourceAlpha" k2="-1" k3="1" operator="arithmetic" result="shadowInnerInner7"/><feColorMatrix in="shadowInnerInner7" result="shadowMatrixInner7" values="0 0 0 0 0.666666667 0 0 0 0 0.666666667 0 0 0 0 0.666666667 0 0 0 1 0"/><feGaussianBlur in="SourceAlpha" result="shadowBlurInner8" stdDeviation="1"/><feOffset dx="-1" in="shadowBlurInner8" result="shadowOffsetInner8"/><feComposite in="shadowOffsetInner8" in2="SourceAlpha" k2="-1" k3="1" operator="arithmetic" result="shadowInnerInner8"/><feColorMatrix in="shadowInnerInner8" result="shadowMatrixInner8" values="0 0 0 0 0.723986639 0 0 0 0 0.723986639 0 0 0 0 0.723986639 0 0 0 0.25 0"/><feMerge><feMergeNode in="shadowMatrixInner1"/><feMergeNode in="shadowMatrixInner2"/><feMergeNode in="shadowMatrixInner3"/><feMergeNode in="shadowMatrixInner4"/><feMergeNode in="shadowMatrixInner5"/><feMergeNode in="shadowMatrixInner6"/><feMergeNode in="shadowMatrixInner7"/><feMergeNode in="shadowMatrixInner8"/></feMerge></filter><filter id="s" width="380%" height="123.1%" x="-140%" y="-11.6%" filterUnits="objectBoundingBox"><feGaussianBlur in="SourceAlpha" result="shadowBlurInner1" stdDeviation="4"/><feOffset dy="-20" in="shadowBlurInner1" result="shadowOffsetInner1"/><feComposite in="shadowOffsetInner1" in2="SourceAlpha" k2="-1" k3="1" operator="arithmetic" result="shadowInnerInner1"/><feColorMatrix in="shadowInnerInner1" result="shadowMatrixInner1" values="0 0 0 0 0.455899004 0 0 0 0 0.455899004 0 0 0 0 0.439966862 0 0 0 1 0"/><feGaussianBlur in="SourceAlpha" result="shadowBlurInner2" stdDeviation="3"/><feOffset dy="-9" in="shadowBlurInner2" result="shadowOffsetInner2"/><feComposite in="shadowOffsetInner2" in2="SourceAlpha" k2="-1" k3="1" operator="arithmetic" result="shadowInnerInner2"/><feColorMatrix in="shadowInnerInner2" result="shadowMatrixInner2" values="0 0 0 0 0.788235294 0 0 0 0 0.788235294 0 0 0 0 0.788235294 0 0 0 1 0"/><feGaussianBlur in="SourceAlpha" result="shadowBlurInner3" stdDeviation="1"/><feOffset dx="4" in="shadowBlurInner3" result="shadowOffsetInner3"/><feComposite in="shadowOffsetInner3" in2="SourceAlpha" k2="-1" k3="1" operator="arithmetic" result="shadowInnerInner3"/><feColorMatrix in="shadowInnerInner3" result="shadowMatrixInner3" values="0 0 0 0 0.407297328 0 0 0 0 0.407297328 0 0 0 0 0.392714407 0 0 0 1 0"/><feMorphology in="SourceAlpha" operator="dilate" radius="6" result="shadowSpreadInner4"/><feGaussianBlur in="shadowSpreadInner4" result="shadowBlurInner4" stdDeviation="4"/><feOffset dy="24" in="shadowBlurInner4" result="shadowOffsetInner4"/><feComposite in="shadowOffsetInner4" in2="SourceAlpha" k2="-1" k3="1" operator="arithmetic" result="shadowInnerInner4"/><feColorMatrix in="shadowInnerInner4" result="shadowMatrixInner4" values="0 0 0 0 0.858823529 0 0 0 0 0.858823529 0 0 0 0 0.858823529 0 0 0 1 0"/><feMorphology in="SourceAlpha" operator="dilate" radius="2" result="shadowSpreadInner5"/><feGaussianBlur in="shadowSpreadInner5" result="shadowBlurInner5" stdDeviation="2"/><feOffset dy="8" in="shadowBlurInner5" result="shadowOffsetInner5"/><feComposite in="shadowOffsetInner5" in2="SourceAlpha" k2="-1" k3="1" operator="arithmetic" result="shadowInnerInner5"/><feColorMatrix in="shadowInnerInner5" result="shadowMatrixInner5" values="0 0 0 0 0.509803922 0 0 0 0 0.509803922 0 0 0 0 0.509803922 0 0 0 1 0"/><feGaussianBlur in="SourceAlpha" result="shadowBlurInner6" stdDeviation="1"/><feOffset dy="-2" in="shadowBlurInner6" result="shadowOffsetInner6"/><feComposite in="shadowOffsetInner6" in2="SourceAlpha" k2="-1" k3="1" operator="arithmetic" result="shadowInnerInner6"/><feColorMatrix in="shadowInnerInner6" result="shadowMatrixInner6" values="0 0 0 0 0.0864187047 0 0 0 0 0.0864187047 0 0 0 0 0.0864187047 0 0 0 1 0"/><feGaussianBlur in="SourceAlpha" result="shadowBlurInner7" stdDeviation="1"/><feOffset dx="-2" in="shadowBlurInner7" result="shadowOffsetInner7"/><feComposite in="shadowOffsetInner7" in2="SourceAlpha" k2="-1" k3="1" operator="arithmetic" result="shadowInnerInner7"/><feColorMatrix in="shadowInnerInner7" result="shadowMatrixInner7" values="0 0 0 0 0.666666667 0 0 0 0 0.666666667 0 0 0 0 0.666666667 0 0 0 1 0"/><feGaussianBlur in="SourceAlpha" result="shadowBlurInner8" stdDeviation="1"/><feOffset dx="-1" in="shadowBlurInner8" result="shadowOffsetInner8"/><feComposite in="shadowOffsetInner8" in2="SourceAlpha" k2="-1" k3="1" operator="arithmetic" result="shadowInnerInner8"/><feColorMatrix in="shadowInnerInner8" result="shadowMatrixInner8" values="0 0 0 0 0.723986639 0 0 0 0 0.723986639 0 0 0 0 0.723986639 0 0 0 0.25 0"/><feMerge><feMergeNode in="shadowMatrixInner1"/><feMergeNode in="shadowMatrixInner2"/><feMergeNode in="shadowMatrixInner3"/><feMergeNode in="shadowMatrixInner4"/><feMergeNode in="shadowMatrixInner5"/><feMergeNode in="shadowMatrixInner6"/><feMergeNode in="shadowMatrixInner7"/><feMergeNode in="shadowMatrixInner8"/></feMerge></filter><filter id="u" width="380%" height="108.7%" x="-140%" y="-4.3%" filterUnits="objectBoundingBox"><feGaussianBlur in="SourceAlpha" result="shadowBlurInner1" stdDeviation="4"/><feOffset dy="-20" in="shadowBlurInner1" result="shadowOffsetInner1"/><feComposite in="shadowOffsetInner1" in2="SourceAlpha" k2="-1" k3="1" operator="arithmetic" result="shadowInnerInner1"/><feColorMatrix in="shadowInnerInner1" result="shadowMatrixInner1" values="0 0 0 0 0.455899004 0 0 0 0 0.455899004 0 0 0 0 0.439966862 0 0 0 1 0"/><feGaussianBlur in="SourceAlpha" result="shadowBlurInner2" stdDeviation="3"/><feOffset dy="-9" in="shadowBlurInner2" result="shadowOffsetInner2"/><feComposite in="shadowOffsetInner2" in2="SourceAlpha" k2="-1" k3="1" operator="arithmetic" result="shadowInnerInner2"/><feColorMatrix in="shadowInnerInner2" result="shadowMatrixInner2" values="0 0 0 0 0.788235294 0 0 0 0 0.788235294 0 0 0 0 0.788235294 0 0 0 1 0"/><feGaussianBlur in="SourceAlpha" result="shadowBlurInner3" stdDeviation="1"/><feOffset dx="4" in="shadowBlurInner3" result="shadowOffsetInner3"/><feComposite in="shadowOffsetInner3" in2="SourceAlpha" k2="-1" k3="1" operator="arithmetic" result="shadowInnerInner3"/><feColorMatrix in="shadowInnerInner3" result="shadowMatrixInner3" values="0 0 0 0 0.407297328 0 0 0 0 0.407297328 0 0 0 0 0.392714407 0 0 0 1 0"/><feMorphology in="SourceAlpha" operator="dilate" radius="6" result="shadowSpreadInner4"/><feGaussianBlur in="shadowSpreadInner4" result="shadowBlurInner4" stdDeviation="4"/><feOffset dy="24" in="shadowBlurInner4" result="shadowOffsetInner4"/><feComposite in="shadowOffsetInner4" in2="SourceAlpha" k2="-1" k3="1" operator="arithmetic" result="shadowInnerInner4"/><feColorMatrix in="shadowInnerInner4" result="shadowMatrixInner4" values="0 0 0 0 0.858823529 0 0 0 0 0.858823529 0 0 0 0 0.858823529 0 0 0 1 0"/><feMorphology in="SourceAlpha" operator="dilate" radius="2" result="shadowSpreadInner5"/><feGaussianBlur in="shadowSpreadInner5" result="shadowBlurInner5" stdDeviation="2"/><feOffset dy="8" in="shadowBlurInner5" result="shadowOffsetInner5"/><feComposite in="shadowOffsetInner5" in2="SourceAlpha" k2="-1" k3="1" operator="arithmetic" result="shadowInnerInner5"/><feColorMatrix in="shadowInnerInner5" result="shadowMatrixInner5" values="0 0 0 0 0.509803922 0 0 0 0 0.509803922 0 0 0 0 0.509803922 0 0 0 1 0"/><feGaussianBlur in="SourceAlpha" result="shadowBlurInner6" stdDeviation="1"/><feOffset dy="-2" in="shadowBlurInner6" result="shadowOffsetInner6"/><feComposite in="shadowOffsetInner6" in2="SourceAlpha" k2="-1" k3="1" operator="arithmetic" result="shadowInnerInner6"/><feColorMatrix in="shadowInnerInner6" result="shadowMatrixInner6" values="0 0 0 0 0.0864187047 0 0 0 0 0.0864187047 0 0 0 0 0.0864187047 0 0 0 1 0"/><feGaussianBlur in="SourceAlpha" result="shadowBlurInner7" stdDeviation="1"/><feOffset dx="-2" in="shadowBlurInner7" result="shadowOffsetInner7"/><feComposite in="shadowOffsetInner7" in2="SourceAlpha" k2="-1" k3="1" operator="arithmetic" result="shadowInnerInner7"/><feColorMatrix in="shadowInnerInner7" result="shadowMatrixInner7" values="0 0 0 0 0.666666667 0 0 0 0 0.666666667 0 0 0 0 0.666666667 0 0 0 1 0"/><feGaussianBlur in="SourceAlpha" result="shadowBlurInner8" stdDeviation="1"/><feOffset dx="-1" in="shadowBlurInner8" result="shadowOffsetInner8"/><feComposite in="shadowOffsetInner8" in2="SourceAlpha" k2="-1" k3="1" operator="arithmetic" result="shadowInnerInner8"/><feColorMatrix in="shadowInnerInner8" result="shadowMatrixInner8" values="0 0 0 0 0.723986639 0 0 0 0 0.723986639 0 0 0 0 0.723986639 0 0 0 0.25 0"/><feMerge><feMergeNode in="shadowMatrixInner1"/><feMergeNode in="shadowMatrixInner2"/><feMergeNode in="shadowMatrixInner3"/><feMergeNode in="shadowMatrixInner4"/><feMergeNode in="shadowMatrixInner5"/><feMergeNode in="shadowMatrixInner6"/><feMergeNode in="shadowMatrixInner7"/><feMergeNode in="shadowMatrixInner8"/></feMerge></filter><filter id="w" width="184.4%" height="184.4%" x="-42.2%" y="-42.2%" filterUnits="objectBoundingBox"><feOffset in="SourceAlpha" result="shadowOffsetOuter1"/><feGaussianBlur in="shadowOffsetOuter1" result="shadowBlurOuter1" stdDeviation="4.5"/><feColorMatrix in="shadowBlurOuter1" values="0 0 0 0 0.105882353 0 0 0 0 0.0941176471 0 0 0 0 0.180392157 0 0 0 1 0"/></filter><filter id="y" width="184.4%" height="184.4%" x="-42.2%" y="-42.2%" filterUnits="objectBoundingBox"><feGaussianBlur in="SourceAlpha" result="shadowBlurInner1" stdDeviation="4.5"/><feOffset in="shadowBlurInner1" result="shadowOffsetInner1"/><feComposite in="shadowOffsetInner1" in2="SourceAlpha" k2="-1" k3="1" operator="arithmetic" result="shadowInnerInner1"/><feColorMatrix in="shadowInnerInner1" result="shadowMatrixInner1" values="0 0 0 0 0.0392156863 0 0 0 0 0.0392156863 0 0 0 0 0.0901960784 0 0 0 1 0"/><feMorphology in="SourceAlpha" operator="dilate" radius="4" result="shadowSpreadInner2"/><feGaussianBlur in="shadowSpreadInner2" result="shadowBlurInner2" stdDeviation="2"/><feOffset dx="-6" in="shadowBlurInner2" result="shadowOffsetInner2"/><feComposite in="shadowOffsetInner2" in2="SourceAlpha" k2="-1" k3="1" operator="arithmetic" result="shadowInnerInner2"/><feColorMatrix in="shadowInnerInner2" result="shadowMatrixInner2" values="0 0 0 0 0.031372549 0 0 0 0 0.0588235294 0 0 0 0 0.219607843 0 0 0 1 0"/><feMorphology in="SourceAlpha" operator="dilate" radius="4" result="shadowSpreadInner3"/><feGaussianBlur in="shadowSpreadInner3" result="shadowBlurInner3" stdDeviation="2"/><feOffset dy="4" in="shadowBlurInner3" result="shadowOffsetInner3"/><feComposite in="shadowOffsetInner3" in2="SourceAlpha" k2="-1" k3="1" operator="arithmetic" result="shadowInnerInner3"/><feColorMatrix in="shadowInnerInner3" result="shadowMatrixInner3" values="0 0 0 0 0.031372549 0 0 0 0 0.0588235294 0 0 0 0 0.219607843 0 0 0 1 0"/><feMorphology in="SourceAlpha" operator="dilate" radius="4" result="shadowSpreadInner4"/><feGaussianBlur in="shadowSpreadInner4" result="shadowBlurInner4" stdDeviation="2"/><feOffset dx="6" in="shadowBlurInner4" result="shadowOffsetInner4"/><feComposite in="shadowOffsetInner4" in2="SourceAlpha" k2="-1" k3="1" operator="arithmetic" result="shadowInnerInner4"/><feColorMatrix in="shadowInnerInner4" result="shadowMatrixInner4" values="0 0 0 0 0.031372549 0 0 0 0 0.0588235294 0 0 0 0 0.219607843 0 0 0 1 0"/><feMerge><feMergeNode in="shadowMatrixInner1"/><feMergeNode in="shadowMatrixInner2"/><feMergeNode in="shadowMatrixInner3"/><feMergeNode in="shadowMatrixInner4"/></feMerge></filter><filter id="D" width="120.8%" height="120.8%" x="-10.4%" y="-10.4%" filterUnits="objectBoundingBox"><feGaussianBlur in="SourceAlpha" result="shadowBlurInner1" stdDeviation="2"/><feOffset dy="1" in="shadowBlurInner1" result="shadowOffsetInner1"/><feComposite in="shadowOffsetInner1" in2="SourceAlpha" k2="-1" k3="1" operator="arithmetic" result="shadowInnerInner1"/><feColorMatrix in="shadowInnerInner1" values="0 0 0 0 0.0196078431 0 0 0 0 0.0235294118 0 0 0 0 0.0784313725 0 0 0 1 0"/></filter><path id="a" d="M995.461546,1.45093462e-14 C1100.66076,-8.430348e-15 1138.80853,10.9534221 1177.26779,31.521659 C1215.72705,52.089896 1245.9101,82.2729477 1266.47834,120.732207 C1287.04658,159.191466 1298,197.339242 1298,302.538454 L1298,2413.46155 C1298,2518.66076 1287.04658,2556.80853 1266.47834,2595.26779 C1245.9101,2633.72705 1215.72705,2663.9101 1177.26779,2684.47834 C1138.80853,2705.04658 1100.66076,2716 995.461546,2716 L302.538454,2716 C197.339242,2716 159.191466,2705.04658 120.732207,2684.47834 C82.2729477,2663.9101 52.089896,2633.72705 31.521659,2595.26779 C10.9534221,2556.80853 0,2518.66076 0,2413.46155 L1.45093462e-14,302.538454 C-8.430348e-15,197.339242 10.9534221,159.191466 31.521659,120.732207 C52.089896,82.2729477 82.2729477,52.089896 120.732207,31.521659 C159.191466,10.9534221 197.339242,8.430348e-15 302.538454,-1.45093462e-14 L995.461546,1.45093462e-14 Z M1016.12256,47 L281.877438,47 C199.857714,47 170.11538,55.5399562 140.130195,71.5762087 C110.14501,87.6124613 86.6124613,111.14501 70.5762087,141.130195 C54.5399562,171.11538 46,200.857714 46,282.877438 L46,2433.12256 C46,2515.14229 54.5399562,2544.88462 70.5762087,2574.8698 C86.6124613,2604.85499 110.14501,2628.38754 140.130195,2644.42379 C170.11538,2660.46004 199.857714,2669 281.877438,2669 L1016.12256,2669 C1098.14229,2669 1127.88462,2660.46004 1157.8698,2644.42379 C1187.85499,2628.38754 1211.38754,2604.85499 1227.42379,2574.8698 C1243.46004,2544.88462 1252,2515.14229 1252,2433.12256 L1252,282.877438 C1252,200.857714 1243.46004,171.11538 1227.42379,141.130195 C1211.38754,111.14501 1187.85499,87.6124613 1157.8698,71.5762087 C1127.88462,55.5399562 1098.14229,47 1016.12256,47 Z"/><path id="n" d="M0,776.065337 L6,776.065337 C8.209139,776.065337 10,777.856198 10,780.065337 L10,972.065337 C10,974.274476 8.209139,976.065337 6,976.065337 L0,976.065337 L0,976.065337 L0,776.065337 Z"/><path id="p" d="M0,1032.06534 L6,1032.06534 C8.209139,1032.06534 10,1033.8562 10,1036.06534 L10,1228.06534 C10,1230.27448 8.209139,1232.06534 6,1232.06534 L0,1232.06534 L0,1232.06534 L0,1032.06534 Z"/><path id="r" d="M0,558.065337 L6,558.065337 C8.209139,558.065337 10,559.856198 10,562.065337 L10,675.065337 C10,677.274476 8.209139,679.065337 6,679.065337 L0,679.065337 L0,679.065337 L0,558.065337 Z"/><path id="t" d="M1308,846.065337 L1314,846.065337 C1316.20914,846.065337 1318,847.856198 1318,850.065337 L1318,1164.06534 C1318,1166.27448 1316.20914,1168.06534 1314,1168.06534 L1308,1168.06534 L1308,1168.06534 L1308,846.065337 Z"/><linearGradient id="c" x1="50%" x2="50%" y1="0%" y2="100%"><stop offset="0%" stop-color="#FFF" stop-opacity="0"/><stop offset=".761%" stop-color="#707070" stop-opacity="0"/><stop offset="2.35%" stop-color="#707070" stop-opacity=".4"/><stop offset="3.969%" stop-color="#707070" stop-opacity=".4"/><stop offset="5.954%" stop-color="#3A3A3A" stop-opacity=".2"/><stop offset="8.721%" stop-color="#707070" stop-opacity="0"/><stop offset="91.824%" stop-color="#707070" stop-opacity="0"/><stop offset="93.952%" stop-color="#707070" stop-opacity=".2"/><stop offset="96.648%" stop-color="#707070" stop-opacity=".4"/><stop offset="99.177%" stop-color="#707070" stop-opacity=".2"/><stop offset="100%" stop-color="#707070" stop-opacity=".4"/></linearGradient><linearGradient id="e" x1="0%" x2="100%" y1="50%" y2="50%"><stop offset="0%" stop-color="#636361"/><stop offset="8.775%" stop-color="#999A95"/><stop offset="13.945%" stop-color="#CACBC6"/><stop offset="27.316%" stop-color="#CFCFCC"/><stop offset="33.725%" stop-color="#C0C1BE"/><stop offset="53.427%" stop-color="#ACADAA"/><stop offset="76.606%" stop-color="#96978F"/><stop offset="86.748%" stop-color="#898A83"/><stop offset="100%" stop-color="#747470"/></linearGradient><linearGradient id="h" x1="0%" x2="100%" y1="50%" y2="50%"><stop offset="0%" stop-color="#747470"/><stop offset="13.252%" stop-color="#898A83"/><stop offset="23.394%" stop-color="#96978F"/><stop offset="46.573%" stop-color="#ACADAA"/><stop offset="66.275%" stop-color="#C0C1BE"/><stop offset="72.684%" stop-color="#CFCFCC"/><stop offset="86.055%" stop-color="#CACBC6"/><stop offset="91.225%" stop-color="#999A95"/><stop offset="100%" stop-color="#636361"/></linearGradient><linearGradient id="x" x1="50%" x2="50%" y1="0%" y2="100%"><stop offset="0%" stop-color="#19283B"/><stop offset="1.599%" stop-color="#2D415D"/><stop offset="3.755%" stop-color="#51667D"/><stop offset="5.193%" stop-color="#3B5975"/><stop offset="7.43%" stop-color="#2E4D68"/><stop offset="10.029%" stop-color="#213E57"/><stop offset="11.766%" stop-color="#10314A"/><stop offset="90.061%" stop-color="#280D58"/><stop offset="92.768%" stop-color="#2E1751"/><stop offset="97.359%" stop-color="#231538"/><stop offset="100%" stop-color="#130E1F"/></linearGradient><rect id="d" width="18" height="28" x="1280" y="278"/><rect id="g" width="18" height="28" x="0" y="278"/><rect id="j" width="18" height="28" x="0" y="2409.132"/><rect id="l" width="18" height="28" x="1280" y="2409.132"/><radialGradient id="A" cx="50%" cy="0%" r="50%" fx="50%" fy="0%"><stop offset="0%" stop-color="#414A67"/><stop offset="40.532%" stop-color="#33366F"/><stop offset="72.266%" stop-color="#18184D"/><stop offset="100%" stop-color="#030517"/></radialGradient><radialGradient id="B" cx="54.402%" cy="80.892%" r="36.116%" fx="54.402%" fy="80.892%" gradientTransform="matrix(.09353 -.99562 1.07278 .10078 -.374 1.27)"><stop offset="0%" stop-color="#1E3A44"/><stop offset="8.663%" stop-color="#1C3A43"/><stop offset="18.325%" stop-color="#0C3943"/><stop offset="32.867%" stop-color="#01313D"/><stop offset="48.872%" stop-color="#002433"/><stop offset="63.68%" stop-color="#001F35" stop-opacity=".4"/><stop offset="100%" stop-color="#02081F" stop-opacity="0"/></radialGradient><radialGradient id="C" cx="50%" cy="96.469%" r="24.982%" fx="50%" fy="96.469%" gradientTransform="matrix(0 1 -3.2196 0 3.606 .465)"><stop offset="0%" stop-color="#340F54"/><stop offset="25.286%" stop-color="#340F54" stop-opacity=".6"/><stop offset="50.265%" stop-color="#071280" stop-opacity=".2"/><stop offset="100%" stop-color="#071280" stop-opacity="0"/></radialGradient><circle id="v" cx="16" cy="16" r="16"/><circle id="z" cx="16" cy="16" r="12"/></defs><g fill="none" fill-rule="evenodd" transform="translate(45 53)"><g transform="translate(10)"><mask id="b" fill="#fff"><use xlink:href="#a"/></mask><use xlink:href="#a" fill="#D8D8D8"/><g mask="url(#b)"><path stroke="#D4D4D4" stroke-linejoin="square" stroke-width="18" d="M302.538454,9 L995.461546,9 C1098.11198,9 1135.462,19.3699203 1173.0234,39.4579778 C1209.89105,59.1750097 1238.82499,88.1089526 1258.54202,124.976597 C1278.63008,162.537999 1289,199.888017 1289,302.538454 L1289,2413.46155 C1289,2516.11198 1278.63008,2553.462 1258.54202,2591.0234 C1238.82499,2627.89105 1209.89105,2656.82499 1173.0234,2676.54202 C1135.462,2696.63008 1098.11198,2707 995.461546,2707 L302.538454,2707 C199.888017,2707 162.537999,2696.63008 124.976597,2676.54202 C88.1089526,2656.82499 59.1750097,2627.89105 39.4579778,2591.0234 C19.3699203,2553.462 9,2516.11198 9,2413.46155 L9,302.538454 C9,199.888017 19.3699203,162.537999 39.4579778,124.976597 C59.1750097,88.1089526 88.1089526,59.1750097 124.976597,39.4579778 C162.537999,19.3699203 199.888017,9 302.538454,9 Z"/><path stroke="#D4D4D4" stroke-linejoin="square" stroke-width="17" d="M302.538454,8.5 L995.461546,8.5 C1098.25358,8.5 1135.64792,18.9023371 1173.2592,39.0170712 C1210.21527,58.7813923 1239.21861,87.7847301 1258.98293,124.740797 C1279.09766,162.35208 1289.5,199.746419 1289.5,302.538454 L1289.5,2413.46155 C1289.5,2516.25358 1279.09766,2553.64792 1258.98293,2591.2592 C1239.21861,2628.21527 1210.21527,2657.21861 1173.2592,2676.98293 C1135.64792,2697.09766 1098.25358,2707.5 995.461546,2707.5 L302.538454,2707.5 C199.746419,2707.5 162.35208,2697.09766 124.740797,2676.98293 C87.7847301,2657.21861 58.7813923,2628.21527 39.0170712,2591.2592 C18.9023371,2553.64792 8.5,2516.25358 8.5,2413.46155 L8.5,302.538454 C8.5,199.746419 18.9023371,162.35208 39.0170712,124.740797 C58.7813923,87.7847301 87.7847301,58.7813923 124.740797,39.0170712 C162.35208,18.9023371 199.746419,8.5 302.538454,8.5 Z"/><path stroke="#E7E7E7" stroke-linejoin="square" stroke-width="16" d="M302.538454,8 L995.461546,8 C1098.39518,8 1135.83384,18.4347538 1173.495,38.5761646 C1210.53949,58.3877748 1239.61223,87.4605076 1259.42384,124.504998 C1279.56525,162.166162 1290,199.60482 1290,302.538454 L1290,2413.46155 C1290,2516.39518 1279.56525,2553.83384 1259.42384,2591.495 C1239.61223,2628.53949 1210.53949,2657.61223 1173.495,2677.42384 C1135.83384,2697.56525 1098.39518,2708 995.461546,2708 L302.538454,2708 C199.60482,2708 162.166162,2697.56525 124.504998,2677.42384 C87.4605076,2657.61223 58.3877748,2628.53949 38.5761646,2591.495 C18.4347538,2553.83384 8,2516.39518 8,2413.46155 L8,302.538454 C8,199.60482 18.4347538,162.166162 38.5761646,124.504998 C58.3877748,87.4605076 87.4605076,58.3877748 124.504998,38.5761646 C162.166162,18.4347538 199.60482,8 302.538454,8 Z"/><path stroke="#EEE" stroke-linejoin="square" stroke-width="15" d="M302.538454,7.5 L995.461546,7.5 C1098.53678,7.5 1136.01976,17.9671706 1173.7308,38.135258 C1210.86371,57.9941574 1240.00584,87.1362851 1259.86474,124.269198 C1280.03283,161.980243 1290.5,199.463221 1290.5,302.538454 L1290.5,2413.46155 C1290.5,2516.53678 1280.03283,2554.01976 1259.86474,2591.7308 C1240.00584,2628.86371 1210.86371,2658.00584 1173.7308,2677.86474 C1136.01976,2698.03283 1098.53678,2708.5 995.461546,2708.5 L302.538454,2708.5 C199.463221,2708.5 161.980243,2698.03283 124.269198,2677.86474 C87.1362851,2658.00584 57.9941574,2628.86371 38.135258,2591.7308 C17.9671706,2554.01976 7.5,2516.53678 7.5,2413.46155 L7.5,302.538454 C7.5,199.463221 17.9671706,161.980243 38.135258,124.269198 C57.9941574,87.1362851 87.1362851,57.9941574 124.269198,38.135258 C161.980243,17.9671706 199.463221,7.5 302.538454,7.5 Z"/><path stroke="#ECECEC" stroke-linejoin="square" stroke-width="14" d="M302.538454,7 L995.461546,7 C1098.67838,7 1136.20568,17.4995874 1173.9666,37.6943514 C1211.18794,57.60054 1240.39946,86.8120626 1260.30565,124.033399 C1280.50041,161.794325 1291,199.321623 1291,302.538454 L1291,2413.46155 C1291,2516.67838 1280.50041,2554.20568 1260.30565,2591.9666 C1240.39946,2629.18794 1211.18794,2658.39946 1173.9666,2678.30565 C1136.20568,2698.50041 1098.67838,2709 995.461546,2709 L302.538454,2709 C199.321623,2709 161.794325,2698.50041 124.033399,2678.30565 C86.8120626,2658.39946 57.60054,2629.18794 37.6943514,2591.9666 C17.4995874,2554.20568 7,2516.67838 7,2413.46155 L7,302.538454 C7,199.321623 17.4995874,161.794325 37.6943514,124.033399 C57.60054,86.8120626 86.8120626,57.60054 124.033399,37.6943514 C161.794325,17.4995874 199.321623,7 302.538454,7 Z"/><path stroke="#E2E2E2" stroke-linejoin="square" stroke-width="13" d="M302.538454,6.5 L995.461546,6.5 C1098.81998,6.5 1136.39159,17.0320041 1174.2024,37.2534448 C1211.51216,57.2069225 1240.79308,86.4878401 1260.74656,123.7976 C1280.968,161.608406 1291.5,199.180024 1291.5,302.538454 L1291.5,2413.46155 C1291.5,2516.81998 1280.968,2554.39159 1260.74656,2592.2024 C1240.79308,2629.51216 1211.51216,2658.79308 1174.2024,2678.74656 C1136.39159,2698.968 1098.81998,2709.5 995.461546,2709.5 L302.538454,2709.5 C199.180024,2709.5 161.608406,2698.968 123.7976,2678.74656 C86.4878401,2658.79308 57.2069225,2629.51216 37.2534448,2592.2024 C17.0320041,2554.39159 6.5,2516.81998 6.5,2413.46155 L6.5,302.538454 C6.5,199.180024 17.0320041,161.608406 37.2534448,123.7976 C57.2069225,86.4878401 86.4878401,57.2069225 123.7976,37.2534448 C161.608406,17.0320041 199.180024,6.5 302.538454,6.5 Z"/><path stroke="#DFDFDF" stroke-linejoin="square" stroke-width="12" d="M302.538454,6 L995.461546,6 C1098.96157,6 1136.57751,16.5644209 1174.4382,36.8125382 C1211.83638,56.8133051 1241.18669,86.1636176 1261.18746,123.5618 C1281.43558,161.422488 1292,199.038426 1292,302.538454 L1292,2413.46155 C1292,2516.96157 1281.43558,2554.57751 1261.18746,2592.4382 C1241.18669,2629.83638 1211.83638,2659.18669 1174.4382,2679.18746 C1136.57751,2699.43558 1098.96157,2710 995.461546,2710 L302.538454,2710 C199.038426,2710 161.422488,2699.43558 123.5618,2679.18746 C86.1636176,2659.18669 56.8133051,2629.83638 36.8125382,2592.4382 C16.5644209,2554.57751 6,2516.96157 6,2413.46155 L6,302.538454 C6,199.038426 16.5644209,161.422488 36.8125382,123.5618 C56.8133051,86.1636176 86.1636176,56.8133051 123.5618,36.8125382 C161.422488,16.5644209 199.038426,6 302.538454,6 Z"/><path stroke="#DADADA" stroke-linejoin="square" stroke-width="11" d="M995.461546,5.5 C1099.10317,5.5 1136.76343,16.0968377 1174.674,36.3716316 C1212.1606,56.4196877 1241.58031,85.8393951 1261.62837,123.326001 C1281.90316,161.236569 1292.5,198.896827 1292.5,302.538454 L1292.5,2413.46155 C1292.5,2517.10317 1281.90316,2554.76343 1261.62837,2592.674 C1241.58031,2630.1606 1212.1606,2659.58031 1174.674,2679.62837 C1136.76343,2699.90316 1099.10317,2710.5 995.461546,2710.5 L302.538454,2710.5 C198.896827,2710.5 161.236569,2699.90316 123.326001,2679.62837 C85.8393951,2659.58031 56.4196877,2630.1606 36.3716316,2592.674 C16.0968377,2554.76343 5.5,2517.10317 5.5,2413.46155 L5.5,302.538454 C5.5,198.896827 16.0968377,161.236569 36.3716316,123.326001 C56.4196877,85.8393951 85.8393951,56.4196877 123.326001,36.3716316 C161.236569,16.0968377 198.896827,5.5 302.538454,5.5 L995.461546,5.5 Z"/><path stroke="#CACACA" stroke-linejoin="square" stroke-width="10" d="M302.538454,5 L995.461546,5 C1099.24477,5 1136.94935,15.6292544 1174.9098,35.930725 C1212.48483,56.0260703 1241.97393,85.5151726 1262.06927,123.090201 C1282.37075,161.050651 1293,198.755228 1293,302.538454 L1293,2413.46155 C1293,2517.24477 1282.37075,2554.94935 1262.06927,2592.9098 C1241.97393,2630.48483 1212.48483,2659.97393 1174.9098,2680.06927 C1136.94935,2700.37075 1099.24477,2711 995.461546,2711 L302.538454,2711 C198.755228,2711 161.050651,2700.37075 123.090201,2680.06927 C85.5151726,2659.97393 56.0260703,2630.48483 35.930725,2592.9098 C15.6292544,2554.94935 5,2517.24477 5,2413.46155 L5,302.538454 C5,198.755228 15.6292544,161.050651 35.930725,123.090201 C56.0260703,85.5151726 85.5151726,56.0260703 123.090201,35.930725 C161.050651,15.6292544 198.755228,5 302.538454,5 Z"/><path stroke="#C6C6C6" stroke-linejoin="square" stroke-width="9" d="M302.538454,4.5 L995.461546,4.5 C1099.38637,4.5 1137.13527,15.1616712 1175.1456,35.4898184 C1212.80905,55.6324528 1242.36755,85.1909501 1262.51018,122.854402 C1282.83833,160.864732 1293.5,198.61363 1293.5,302.538454 L1293.5,2413.46155 C1293.5,2517.38637 1282.83833,2555.13527 1262.51018,2593.1456 C1242.36755,2630.80905 1212.80905,2660.36755 1175.1456,2680.51018 C1137.13527,2700.83833 1099.38637,2711.5 995.461546,2711.5 L302.538454,2711.5 C198.61363,2711.5 160.864732,2700.83833 122.854402,2680.51018 C85.1909501,2660.36755 55.6324528,2630.80905 35.4898184,2593.1456 C15.1616712,2555.13527 4.5,2517.38637 4.5,2413.46155 L4.5,302.538454 C4.5,198.61363 15.1616712,160.864732 35.4898184,122.854402 C55.6324528,85.1909501 85.1909501,55.6324528 122.854402,35.4898184 C160.864732,15.1616712 198.61363,4.5 302.538454,4.5 Z"/><path stroke="#BBB" stroke-linejoin="square" stroke-width="8" d="M995.461546,4 C1099.52797,4 1137.32119,14.694088 1175.3814,35.0489118 C1213.13327,55.2388354 1242.76116,84.8667277 1262.95109,122.618602 C1283.30591,160.678814 1294,198.472031 1294,302.538454 L1294,2413.46155 C1294,2517.52797 1283.30591,2555.32119 1262.95109,2593.3814 C1242.76116,2631.13327 1213.13327,2660.76116 1175.3814,2680.95109 C1137.32119,2701.30591 1099.52797,2712 995.461546,2712 L302.538454,2712 C198.472031,2712 160.678814,2701.30591 122.618602,2680.95109 C84.8667277,2660.76116 55.2388354,2631.13327 35.0489118,2593.3814 C14.694088,2555.32119 4,2517.52797 4,2413.46155 L4,302.538454 C4,198.472031 14.694088,160.678814 35.0489118,122.618602 C55.2388354,84.8667277 84.8667277,55.2388354 122.618602,35.0489118 C160.678814,14.694088 198.472031,4 302.538454,4 L995.461546,4 Z"/><path stroke="#B3B3B3" stroke-linejoin="square" stroke-width="7" d="M302.538454,3.5 L995.461546,3.5 C1099.66957,3.5 1137.5071,14.2265047 1175.6172,34.6080052 C1213.45749,54.845218 1243.15478,84.5425052 1263.39199,122.382803 C1283.7735,160.492895 1294.5,198.330433 1294.5,302.538454 L1294.5,2413.46155 C1294.5,2517.66957 1283.7735,2555.5071 1263.39199,2593.6172 C1243.15478,2631.45749 1213.45749,2661.15478 1175.6172,2681.39199 C1137.5071,2701.7735 1099.66957,2712.5 995.461546,2712.5 L302.538454,2712.5 C198.330433,2712.5 160.492895,2701.7735 122.382803,2681.39199 C84.5425052,2661.15478 54.845218,2631.45749 34.6080052,2593.6172 C14.2265047,2555.5071 3.5,2517.66957 3.5,2413.46155 L3.5,302.538454 C3.5,198.330433 14.2265047,160.492895 34.6080052,122.382803 C54.845218,84.5425052 84.5425052,54.845218 122.382803,34.6080052 C160.492895,14.2265047 198.330433,3.5 302.538454,3.5 Z"/><path stroke="#ABABAB" stroke-linejoin="square" stroke-width="6" d="M302.538454,3 L995.461546,3 C1099.81117,3 1137.69302,13.7589215 1175.853,34.1670986 C1213.78172,54.4516005 1243.5484,84.2182827 1263.8329,122.147004 C1284.24108,160.306977 1295,198.188834 1295,302.538454 L1295,2413.46155 C1295,2517.81117 1284.24108,2555.69302 1263.8329,2593.853 C1243.5484,2631.78172 1213.78172,2661.5484 1175.853,2681.8329 C1137.69302,2702.24108 1099.81117,2713 995.461546,2713 L302.538454,2713 C198.188834,2713 160.306977,2702.24108 122.147004,2681.8329 C84.2182827,2661.5484 54.4516005,2631.78172 34.1670986,2593.853 C13.7589215,2555.69302 3,2517.81117 3,2413.46155 L3,302.538454 C3,198.188834 13.7589215,160.306977 34.1670986,122.147004 C54.4516005,84.2182827 84.2182827,54.4516005 122.147004,34.1670986 C160.306977,13.7589215 198.188834,3 302.538454,3 Z"/><path stroke="#9C9C9C" stroke-linejoin="square" stroke-width="5" d="M995.461546,2.5 C1099.95276,2.5 1137.87894,13.2913383 1176.0888,33.726192 C1214.10594,54.0579831 1243.94202,83.8940602 1264.27381,121.911204 C1284.70866,160.121059 1295.5,198.047235 1295.5,302.538454 L1295.5,2413.46155 C1295.5,2517.95276 1284.70866,2555.87894 1264.27381,2594.0888 C1243.94202,2632.10594 1214.10594,2661.94202 1176.0888,2682.27381 C1137.87894,2702.70866 1099.95276,2713.5 995.461546,2713.5 L302.538454,2713.5 C198.047235,2713.5 160.121059,2702.70866 121.911204,2682.27381 C83.8940602,2661.94202 54.0579831,2632.10594 33.726192,2594.0888 C13.2913383,2555.87894 2.5,2517.95276 2.5,2413.46155 L2.5,302.538454 C2.5,198.047235 13.2913383,160.121059 33.726192,121.911204 C54.0579831,83.8940602 83.8940602,54.0579831 121.911204,33.726192 C160.121059,13.2913383 198.047235,2.5 302.538454,2.5 L995.461546,2.5 Z"/><path stroke="#939393" stroke-linejoin="square" stroke-width="4" d="M302.538454,2 L995.461546,2 C1100.09436,2 1138.06486,12.823755 1176.3246,33.2852854 C1214.43016,53.6643657 1244.33563,83.5698377 1264.71471,121.675405 C1285.17624,159.93514 1296,197.905637 1296,302.538454 L1296,2413.46155 C1296,2518.09436 1285.17624,2556.06486 1264.71471,2594.3246 C1244.33563,2632.43016 1214.43016,2662.33563 1176.3246,2682.71471 C1138.06486,2703.17624 1100.09436,2714 995.461546,2714 L302.538454,2714 C197.905637,2714 159.93514,2703.17624 121.675405,2682.71471 C83.5698377,2662.33563 53.6643657,2632.43016 33.2852854,2594.3246 C12.823755,2556.06486 2,2518.09436 2,2413.46155 L2,302.538454 C2,197.905637 12.823755,159.93514 33.2852854,121.675405 C53.6643657,83.5698377 83.5698377,53.6643657 121.675405,33.2852854 C159.93514,12.823755 197.905637,2 302.538454,2 Z"/><path stroke="#848484" stroke-linejoin="square" stroke-width="3" d="M302.538454,1.5 L995.461546,1.5 C1100.23596,1.5 1138.25078,12.3561718 1176.56039,32.8443788 C1214.75438,53.2707483 1244.72925,83.2456152 1265.15562,121.439605 C1285.64383,159.749222 1296.5,197.764038 1296.5,302.538454 L1296.5,2413.46155 C1296.5,2518.23596 1285.64383,2556.25078 1265.15562,2594.56039 C1244.72925,2632.75438 1214.75438,2662.72925 1176.56039,2683.15562 C1138.25078,2703.64383 1100.23596,2714.5 995.461546,2714.5 L302.538454,2714.5 C197.764038,2714.5 159.749222,2703.64383 121.439605,2683.15562 C83.2456152,2662.72925 53.2707483,2632.75438 32.8443788,2594.56039 C12.3561718,2556.25078 1.5,2518.23596 1.5,2413.46155 L1.5,302.538454 C1.5,197.764038 12.3561718,159.749222 32.8443788,121.439605 C53.2707483,83.2456152 83.2456152,53.2707483 121.439605,32.8443788 C159.749222,12.3561718 197.764038,1.5 302.538454,1.5 Z"/><path stroke="gray" stroke-linejoin="square" stroke-width="2.5" d="M302.538454,1.25 L995.461546,1.25 C1100.30676,1.25 1138.34374,12.1223802 1176.67829,32.6239255 C1214.9165,53.0739395 1244.92606,83.083504 1265.37607,121.321706 C1285.87762,159.656262 1296.75,197.693239 1296.75,302.538454 L1296.75,2413.46155 C1296.75,2518.30676 1285.87762,2556.34374 1265.37607,2594.67829 C1244.92606,2632.9165 1214.9165,2662.92606 1176.67829,2683.37607 C1138.34374,2703.87762 1100.30676,2714.75 995.461546,2714.75 L302.538454,2714.75 C197.693239,2714.75 159.656262,2703.87762 121.321706,2683.37607 C83.083504,2662.92606 53.0739395,2632.9165 32.6239255,2594.67829 C12.1223802,2556.34374 1.25,2518.30676 1.25,2413.46155 L1.25,302.538454 C1.25,197.693239 12.1223802,159.656262 32.6239255,121.321706 C53.0739395,83.083504 83.083504,53.0739395 121.321706,32.6239255 C159.656262,12.1223802 197.693239,1.25 302.538454,1.25 Z"/><path stroke="#858585" stroke-linejoin="square" stroke-width="2" d="M995.461546,1 C1100.37756,1 1138.4367,11.8885886 1176.79619,32.4034722 C1215.07861,52.8771308 1245.12287,82.9213927 1265.59653,121.203806 C1286.11141,159.563303 1297,197.62244 1297,302.538454 L1297,2413.46155 C1297,2518.37756 1286.11141,2556.4367 1265.59653,2594.79619 C1245.12287,2633.07861 1215.07861,2663.12287 1176.79619,2683.59653 C1138.4367,2704.11141 1100.37756,2715 995.461546,2715 L302.538454,2715 C197.62244,2715 159.563303,2704.11141 121.203806,2683.59653 C82.9213927,2663.12287 52.8771308,2633.07861 32.4034722,2594.79619 C11.8885886,2556.4367 1,2518.37756 1,2413.46155 L1,302.538454 C1,197.62244 11.8885886,159.563303 32.4034722,121.203806 C52.8771308,82.9213927 82.9213927,52.8771308 121.203806,32.4034722 C159.563303,11.8885886 197.62244,1 302.538454,1 L995.461546,1 Z"/><path stroke="#989898" stroke-linejoin="square" stroke-width="1.5" d="M302.538454,0.75 L995.461546,0.75 C1100.44836,0.75 1138.52966,11.654797 1176.91409,32.1830189 C1215.24072,52.6803221 1245.31968,82.7592815 1265.81698,121.085906 C1286.3452,159.470344 1297.25,197.55164 1297.25,302.538454 L1297.25,2413.46155 C1297.25,2518.44836 1286.3452,2556.52966 1265.81698,2594.91409 C1245.31968,2633.24072 1215.24072,2663.31968 1176.91409,2683.81698 C1138.52966,2704.3452 1100.44836,2715.25 995.461546,2715.25 L302.538454,2715.25 C197.55164,2715.25 159.470344,2704.3452 121.085906,2683.81698 C82.7592815,2663.31968 52.6803221,2633.24072 32.1830189,2594.91409 C11.654797,2556.52966 0.75,2518.44836 0.75,2413.46155 L0.75,302.538454 C0.75,197.55164 11.654797,159.470344 32.1830189,121.085906 C52.6803221,82.7592815 82.7592815,52.6803221 121.085906,32.1830189 C159.470344,11.654797 197.55164,0.75 302.538454,0.75 Z"/><path stroke="#969696" stroke-opacity=".1" d="M302.538454,-0.5 L995.461546,-0.5 C1100.80236,-0.5 1138.99445,10.4858389 1177.50359,31.0807524 C1216.05127,51.6962786 1246.30372,81.9487252 1266.91925,120.496408 C1287.51416,159.005548 1298.5,197.197644 1298.5,302.538454 L1298.5,2413.46155 C1298.5,2518.80236 1287.51416,2556.99445 1266.91925,2595.50359 C1246.30372,2634.05127 1216.05127,2664.30372 1177.50359,2684.91925 C1138.99445,2705.51416 1100.80236,2716.5 995.461546,2716.5 L302.538454,2716.5 C197.197644,2716.5 159.005548,2705.51416 120.496408,2684.91925 C81.9487252,2664.30372 51.6962786,2634.05127 31.0807524,2595.50359 C10.4858389,2556.99445 -0.5,2518.80236 -0.5,2413.46155 L-0.5,302.538454 C-0.5,197.197644 10.4858389,159.005548 31.0807524,120.496408 C51.6962786,81.9487252 81.9487252,51.6962786 120.496408,31.0807524 C159.005548,10.4858389 197.197644,-0.5 302.538454,-0.5 Z"/><path stroke="#C2C2C2" stroke-width=".5" d="M302.538454,-0.25 L995.461546,-0.25 C1100.73156,-0.25 1138.90149,10.7196305 1177.38569,31.3012057 C1215.88916,51.8930873 1246.10691,82.1108365 1266.69879,120.614307 C1287.28037,159.098507 1298.25,197.268443 1298.25,302.538454 L1298.25,2413.46155 C1298.25,2518.73156 1287.28037,2556.90149 1266.69879,2595.38569 C1246.10691,2633.88916 1215.88916,2664.10691 1177.38569,2684.69879 C1138.90149,2705.28037 1100.73156,2716.25 995.461546,2716.25 L302.538454,2716.25 C197.268443,2716.25 159.098507,2705.28037 120.614307,2684.69879 C82.1108365,2664.10691 51.8930873,2633.88916 31.3012057,2595.38569 C10.7196305,2556.90149 -0.25,2518.73156 -0.25,2413.46155 L-0.25,302.538454 C-0.25,197.268443 10.7196305,159.098507 31.3012057,120.614307 C51.8930873,82.1108365 82.1108365,51.8930873 120.614307,31.3012057 C159.098507,10.7196305 197.268443,-0.25 302.538454,-0.25 Z"/><path stroke="#AEAEAE" stroke-linejoin="square" d="M302.538454,0.5 L995.461546,0.5 C1100.51916,0.5 1138.62262,11.4210053 1177.03199,31.9625656 C1215.40283,52.4835134 1245.51649,82.5971702 1266.03743,120.968006 C1286.57899,159.377385 1297.5,197.480841 1297.5,302.538454 L1297.5,2413.46155 C1297.5,2518.51916 1286.57899,2556.62262 1266.03743,2595.03199 C1245.51649,2633.40283 1215.40283,2663.51649 1177.03199,2684.03743 C1138.62262,2704.57899 1100.51916,2715.5 995.461546,2715.5 L302.538454,2715.5 C197.480841,2715.5 159.377385,2704.57899 120.968006,2684.03743 C82.5971702,2663.51649 52.4835134,2633.40283 31.9625656,2595.03199 C11.4210053,2556.62262 0.5,2518.51916 0.5,2413.46155 L0.5,302.538454 C0.5,197.480841 11.4210053,159.377385 31.9625656,120.968006 C52.4835134,82.5971702 82.5971702,52.4835134 120.968006,31.9625656 C159.377385,11.4210053 197.480841,0.5 302.538454,0.5 Z"/><path stroke="url(#c)" stroke-linejoin="square" stroke-width="14" d="M302.538454,7 L995.461546,7 C1098.67838,7 1136.20568,17.4995874 1173.9666,37.6943514 C1211.18794,57.60054 1240.39946,86.8120626 1260.30565,124.033399 C1280.50041,161.794325 1291,199.321623 1291,302.538454 L1291,2413.46155 C1291,2516.67838 1280.50041,2554.20568 1260.30565,2591.9666 C1240.39946,2629.18794 1211.18794,2658.39946 1173.9666,2678.30565 C1136.20568,2698.50041 1098.67838,2709 995.461546,2709 L302.538454,2709 C199.321623,2709 161.794325,2698.50041 124.033399,2678.30565 C86.8120626,2658.39946 57.60054,2629.18794 37.6943514,2591.9666 C17.4995874,2554.20568 7,2516.67838 7,2413.46155 L7,302.538454 C7,199.321623 17.4995874,161.794325 37.6943514,124.033399 C57.60054,86.8120626 86.8120626,57.60054 124.033399,37.6943514 C161.794325,17.4995874 199.321623,7 302.538454,7 Z"/></g><g mask="url(#b)"><use xlink:href="#d" fill="url(#e)"/><use xlink:href="#d" fill="#000" filter="url(#f)"/></g><g mask="url(#b)"><use xlink:href="#g" fill="url(#h)"/><use xlink:href="#g" fill="#000" filter="url(#i)"/></g><g mask="url(#b)"><use xlink:href="#j" fill="url(#h)"/><use xlink:href="#j" fill="#000" filter="url(#k)"/></g><g mask="url(#b)"><use xlink:href="#l" fill="url(#e)"/><use xlink:href="#l" fill="#000" filter="url(#m)"/></g><g stroke-linejoin="square" mask="url(#b)"><path fill="#020300" stroke="#2A2A2A" stroke-width="2" d="M1005.66428,19.065337 C1100.77359,19.065337 1135.27658,28.9328439 1170.05089,47.5303495 C1204.74812,66.0866301 1231.97871,93.3172176 1250.53499,128.014446 C1269.13249,162.788758 1279,197.291745 1279,292.401053 L1279,2423.72962 C1279,2518.83893 1269.13249,2553.34192 1250.53499,2588.11623 C1231.97871,2622.81346 1204.74812,2650.04404 1170.05089,2668.60032 C1135.27658,2687.19783 1100.77359,2697.06534 1005.66428,2697.06534 L292.335716,2697.06534 C197.226408,2697.06534 162.723421,2687.19783 127.949109,2668.60032 C93.2518806,2650.04404 66.0212931,2622.81346 47.4650125,2588.11623 C28.8675069,2553.34192 19,2518.83893 19,2423.72962 L19,292.401053 C19,197.291745 28.8675069,162.788758 47.4650125,128.014446 C66.0212931,93.3172176 93.2518806,66.0866301 127.949109,47.5303495 C162.723421,28.9328439 197.226408,19.065337 292.335716,19.065337 Z"/><path stroke="#353535" d="M1005.66428,18.565337 C1100.91519,18.565337 1135.4625,28.4652606 1170.28669,47.0894429 C1205.07234,65.6930126 1232.37232,92.9929951 1250.97589,127.778646 C1269.60008,162.602839 1279.5,197.150147 1279.5,292.401053 L1279.5,2423.72962 C1279.5,2518.98053 1269.60008,2553.52783 1250.97589,2588.35203 C1232.37232,2623.13768 1205.07234,2650.43766 1170.28669,2669.04123 C1135.4625,2687.66541 1100.91519,2697.56534 1005.66428,2697.56534 L292.335716,2697.56534 C197.08481,2697.56534 162.537502,2687.66541 127.713309,2669.04123 C92.9276581,2650.43766 65.6276756,2623.13768 47.0241059,2588.35203 C28.3999236,2553.52783 18.5,2518.98053 18.5,2423.72962 L18.5,292.401053 C18.5,197.150147 28.3999236,162.602839 47.0241059,127.778646 C65.6276756,92.9929951 92.9276581,65.6930126 127.713309,47.0894429 C162.537502,28.4652606 197.08481,18.565337 292.335716,18.565337 Z"/></g><g stroke-linejoin="square" mask="url(#b)"><path fill="#000" stroke="#1E1D1D" stroke-width="5" d="M296.899602,22.5 L401,22.5 C403.528091,22.5 408.583698,25.3649669 416.241186,30.5 L881.758814,30.5 C889.416302,25.3649669 894.471909,22.5 897,22.5 L1001.1004,22.5 C1096.67643,22.5 1131.36974,32.3630822 1166.32034,51.054865 C1201.07822,69.6435852 1228.35641,96.9217765 1246.94513,131.679661 C1265.63692,166.630256 1275.5,201.323571 1275.5,296.899602 L1275.5,2419.1004 C1275.5,2514.67643 1265.63692,2549.36974 1246.94513,2584.32034 C1228.35641,2619.07822 1201.07822,2646.35641 1166.32034,2664.94513 C1131.36974,2683.63692 1096.67643,2693.5 1001.1004,2693.5 L296.899602,2693.5 C201.323571,2693.5 166.630256,2683.63692 131.679661,2664.94513 C96.9217765,2646.35641 69.6435852,2619.07822 51.054865,2584.32034 C32.3630822,2549.36974 22.5,2514.67643 22.5,2419.1004 L22.5,296.899602 C22.5,201.323571 32.3630822,166.630256 51.054865,131.679661 C69.6435852,96.9217765 96.9217765,69.6435852 131.679661,51.054865 C166.630256,32.3630822 201.323571,22.5 296.899602,22.5 Z"/><path stroke="#1E1E1E" stroke-width="4" d="M296.899602,22 L401,22 C403.459381,22 408.285246,24.6135241 415.529672,29.4239563 L416.393119,30 L881.606881,30 C889.332616,24.8225257 894.444173,22 897,22 L1001.1004,22 C1096.81803,22 1131.55566,31.8954989 1166.55614,50.6139584 C1201.40245,69.2499677 1228.75003,96.597554 1247.38604,131.443862 C1266.1045,166.444338 1276,201.181972 1276,296.899602 L1276,2419.1004 C1276,2514.81803 1266.1045,2549.55566 1247.38604,2584.55614 C1228.75003,2619.40245 1201.40245,2646.75003 1166.55614,2665.38604 C1131.55566,2684.1045 1096.81803,2694 1001.1004,2694 L296.899602,2694 C201.181972,2694 166.444338,2684.1045 131.443862,2665.38604 C96.597554,2646.75003 69.2499677,2619.40245 50.6139584,2584.55614 C31.8954989,2549.55566 22,2514.81803 22,2419.1004 L22,296.899602 C22,201.181972 31.8954989,166.444338 50.6139584,131.443862 C69.2499677,96.597554 96.597554,69.2499677 131.443862,50.6139584 C166.444338,31.8954989 201.181972,22 296.899602,22 Z"/><path stroke="#3A3A3A" stroke-width="3" d="M296.899602,21.5 L401,21.5 C403.583559,21.5 408.75087,24.2815661 416.545021,29.5 L881.454979,29.5 C889.24913,24.2815661 894.416441,21.5 897,21.5 L1001.1004,21.5 C1096.95963,21.5 1131.74158,31.4279157 1166.79194,50.1730518 C1201.72667,68.8563503 1229.14365,96.2733315 1247.82695,131.208062 C1266.57208,166.258419 1276.5,201.040374 1276.5,296.899602 L1276.5,2419.1004 C1276.5,2514.95963 1266.57208,2549.74158 1247.82695,2584.79194 C1229.14365,2619.72667 1201.72667,2647.14365 1166.79194,2665.82695 C1131.74158,2684.57208 1096.95963,2694.5 1001.1004,2694.5 L296.899602,2694.5 C201.040374,2694.5 166.258419,2684.57208 131.208062,2665.82695 C96.2733315,2647.14365 68.8563503,2619.72667 50.1730518,2584.79194 C31.4279157,2549.74158 21.5,2514.95963 21.5,2419.1004 L21.5,296.899602 C21.5,201.040374 31.4279157,166.258419 50.1730518,131.208062 C68.8563503,96.2733315 96.2733315,68.8563503 131.208062,50.1730518 C166.258419,31.4279157 201.040374,21.5 296.899602,21.5 Z"/><path stroke="#424241" stroke-width="2" d="M296.899602,21 L401,21 C403.611279,21 408.834142,23.7419929 416.696834,29 L881.303166,29 C889.165858,23.7419929 894.388721,21 897,21 L1001.1004,21 C1097.10123,21 1131.9275,30.9603325 1167.02774,49.7321452 C1202.05089,68.4627329 1229.53727,95.949109 1248.26785,130.972263 C1267.03967,166.072501 1277,200.898775 1277,296.899602 L1277,2419.1004 C1277,2515.10123 1267.03967,2549.9275 1248.26785,2585.02774 C1229.53727,2620.05089 1202.05089,2647.53727 1167.02774,2666.26785 C1131.9275,2685.03967 1097.10123,2695 1001.1004,2695 L296.899602,2695 C200.898775,2695 166.072501,2685.03967 130.972263,2666.26785 C95.949109,2647.53727 68.4627329,2620.05089 49.7321452,2585.02774 C30.9603325,2549.9275 21,2515.10123 21,2419.1004 L21,296.899602 C21,200.898775 30.9603325,166.072501 49.7321452,130.972263 C68.4627329,95.949109 95.949109,68.4627329 130.972263,49.7321452 C166.072501,30.9603325 200.898775,21 296.899602,21 Z"/><path stroke="#393939" d="M296.899602,20.5 L401,20.5 C403.638984,20.5 408.917188,23.2037194 416.848508,28.5 L881.151492,28.5 C889.082812,23.2037194 894.361016,20.5 897,20.5 L1001.1004,20.5 C1097.24282,20.5 1132.11342,30.4927492 1167.26354,49.2912386 C1202.37511,68.0691154 1229.93088,95.6248865 1248.70876,130.736463 C1267.50725,165.886582 1277.5,200.757176 1277.5,296.899602 L1277.5,2419.1004 C1277.5,2515.24282 1267.50725,2550.11342 1248.70876,2585.26354 C1229.93088,2620.37511 1202.37511,2647.93088 1167.26354,2666.70876 C1132.11342,2685.50725 1097.24282,2695.5 1001.1004,2695.5 L296.899602,2695.5 C200.757176,2695.5 165.886582,2685.50725 130.736463,2666.70876 C95.6248865,2647.93088 68.0691154,2620.37511 49.2912386,2585.26354 C30.4927492,2550.11342 20.5,2515.24282 20.5,2419.1004 L20.5,296.899602 C20.5,200.757176 30.4927492,165.886582 49.2912386,130.736463 C68.0691154,95.6248865 95.6248865,68.0691154 130.736463,49.2912386 C165.886582,30.4927492 200.757176,20.5 296.899602,20.5 Z"/></g></g><g transform="matrix(-1 0 0 1 10 0)"><use xlink:href="#n" fill="#B6B6B6"/><use xlink:href="#n" fill="#000" filter="url(#o)"/></g><g transform="matrix(-1 0 0 1 10 0)"><use xlink:href="#p" fill="#B6B6B6"/><use xlink:href="#p" fill="#000" filter="url(#q)"/></g><g transform="matrix(-1 0 0 1 10 0)"><use xlink:href="#r" fill="#B6B6B6"/><use xlink:href="#r" fill="#000" filter="url(#s)"/></g><use xlink:href="#t" fill="#B6B6B6"/><use xlink:href="#t" fill="#000" filter="url(#u)"/><g transform="translate(470 87)"><path fill="#000" d="M55,0 L323,0 C353.375661,-7.10542736e-15 378,24.6243388 378,55 C378,85.3756612 353.375661,110 323,110 L55,110 C24.6243388,110 0,85.3756612 0,55 C-7.10542736e-15,24.6243388 24.6243388,7.10542736e-15 55,0 Z"/><path fill="#000" stroke="#000" stroke-width="25" d="M183.037139 13.4993122C194.486792 13.4993122 204.852507 18.140201 212.355809 25.6435031 219.859111 33.1468051 224.5 43.5125204 224.5 54.9621733 224.5 66.4118262 219.859111 76.7775415 212.355809 84.2808435 204.852507 91.7841456 194.486792 96.4250344 183.037139 96.4250344L54.9628611 96.4250344C43.5132081 96.4250344 33.1474929 91.7841456 25.6441908 84.2808435 18.1408888 76.7775415 13.5 66.4118262 13.5 54.9621733 13.5 43.5125204 18.1408888 33.1468051 25.6441908 25.6435031 33.1474929 18.140201 43.5132081 13.4993122 54.9628611 13.4993122ZM322.962861 13.4993122C334.444334 13.4993122 344.829576 18.1368894 352.34444 25.6414242 359.857492 33.1441492 364.5 43.5110517 364.5 54.9621733 364.5 66.4118262 359.859111 76.7775415 352.355809 84.2808435 344.852507 91.7841456 334.486792 96.4250344 323.037139 96.4250344 311.525646 96.4250344 301.151888 91.7885404 293.644191 84.2808435 286.140889 76.7775415 281.5 66.4118262 281.5 54.9621733 281.5 43.5125204 286.140889 33.1468051 293.644191 25.6435031 301.147493 18.140201 311.513208 13.4993122 322.962861 13.4993122Z"/><g transform="translate(307 39)"><use xlink:href="#v" fill="#000" filter="url(#w)"/><use xlink:href="#v" fill="#050614"/><use xlink:href="#v" fill="url(#x)"/><use xlink:href="#v" fill="#000" filter="url(#y)"/><use xlink:href="#z" fill="url(#A)"/><use xlink:href="#z" fill="url(#B)"/><use xlink:href="#z" fill="url(#C)"/><use xlink:href="#z" fill="#000" filter="url(#D)"/></g></g></g></svg>