<svg width="402" height="381" viewBox="0 0 402 381" fill="none" xmlns="http://www.w3.org/2000/svg">
<path d="M234.455 355.354L168.416 325.078C166.67 324.278 165.271 322.876 164.473 321.129L119.666 223.018C118.336 220.105 118.871 216.68 121.026 214.311L159.977 171.498C163.083 168.084 168.426 168 171.639 171.314L303.169 307.008C306.763 310.716 305.955 316.808 301.517 319.45L241.881 354.955C239.622 356.301 236.845 356.45 234.455 355.354Z" fill="#A4D259"/>
<g filter="url(#filter0_n_807_14061)" style="mix-blend-mode:multiply">
<path d="M234.455 355.354L168.416 325.078C166.67 324.278 165.271 322.876 164.473 321.129L119.666 223.018C118.336 220.105 118.871 216.68 121.026 214.311L159.977 171.498C163.083 168.084 168.426 168 171.639 171.314L303.169 307.008C306.763 310.716 305.955 316.808 301.517 319.45L241.881 354.955C239.622 356.301 236.845 356.45 234.455 355.354Z" fill="#A4D259"/>
</g>
<path d="M162.405 257.516V257.172L163.449 256.914V248.757L162.405 248.511V248.168H166.309C166.98 248.168 167.569 248.278 168.077 248.499C168.584 248.716 168.979 249.031 169.261 249.444C169.544 249.853 169.685 250.351 169.685 250.936C169.685 251.779 169.368 252.427 168.734 252.882C168.103 253.332 167.23 253.557 166.113 253.557H165.063V256.914L166.505 257.172V257.516H162.405ZM165.063 253.01H165.628C166.082 253.01 166.45 252.959 166.733 252.857C167.019 252.755 167.25 252.609 167.426 252.421C167.614 252.221 167.745 251.987 167.819 251.721C167.897 251.455 167.936 251.157 167.936 250.825C167.936 250.367 167.862 249.982 167.715 249.671C167.571 249.36 167.365 249.131 167.095 248.984C166.833 248.808 166.415 248.72 165.843 248.72H165.063V253.01ZM170.427 257.516V257.19L171.348 256.988V252.09L170.439 251.752V251.537L172.581 250.948H172.759V252.206L172.808 252.262V256.988L174.183 257.19V257.516H170.427ZM172.698 252.875L172.692 252.262C172.999 251.84 173.306 251.515 173.612 251.286C173.919 251.057 174.21 250.942 174.484 250.942C174.734 250.942 174.944 251.022 175.116 251.181C175.288 251.341 175.374 251.535 175.374 251.764C175.374 251.981 175.304 252.163 175.165 252.311C175.026 252.454 174.854 252.526 174.65 252.526C174.441 252.526 174.267 252.45 174.128 252.298C174.034 252.204 173.952 252.139 173.883 252.102C173.817 252.061 173.741 252.041 173.655 252.041C173.529 252.041 173.373 252.118 173.189 252.274C173.005 252.429 172.841 252.63 172.698 252.875ZM179.175 257.645C178.508 257.645 177.925 257.497 177.426 257.203C176.931 256.904 176.546 256.503 176.272 256C175.998 255.492 175.861 254.925 175.861 254.299C175.861 253.669 175.998 253.102 176.272 252.599C176.546 252.096 176.931 251.697 177.426 251.402C177.925 251.104 178.508 250.954 179.175 250.954C179.842 250.954 180.421 251.104 180.912 251.402C181.407 251.697 181.792 252.096 182.066 252.599C182.344 253.102 182.483 253.669 182.483 254.299C182.483 254.925 182.344 255.492 182.066 256C181.792 256.503 181.407 256.904 180.912 257.203C180.421 257.497 179.842 257.645 179.175 257.645ZM179.163 257.061C179.462 257.061 179.717 256.988 179.93 256.84C180.147 256.693 180.325 256.491 180.464 256.233C180.603 255.975 180.706 255.68 180.771 255.349C180.841 255.018 180.875 254.666 180.875 254.293C180.875 253.925 180.843 253.575 180.777 253.244C180.712 252.912 180.609 252.62 180.47 252.366C180.335 252.108 180.159 251.906 179.942 251.758C179.73 251.611 179.474 251.537 179.175 251.537C178.876 251.537 178.619 251.611 178.402 251.758C178.185 251.906 178.007 252.108 177.868 252.366C177.733 252.62 177.632 252.912 177.567 253.244C177.502 253.575 177.469 253.927 177.469 254.299C177.469 254.672 177.502 255.024 177.567 255.355C177.632 255.687 177.733 255.981 177.868 256.239C178.007 256.493 178.183 256.693 178.396 256.84C178.613 256.988 178.868 257.061 179.163 257.061ZM186.119 257.645C185.623 257.645 185.177 257.503 184.78 257.221C184.388 256.939 184.075 256.554 183.841 256.067C183.612 255.576 183.498 255.022 183.498 254.404C183.498 253.724 183.635 253.127 183.909 252.611C184.183 252.092 184.564 251.687 185.051 251.396C185.542 251.102 186.106 250.954 186.745 250.954C187.203 250.954 187.653 251.034 188.095 251.194V248.579L187.15 248.235V248.026L189.372 247.431H189.55V256.472L190.433 256.699V256.877L188.328 257.645H188.187V256.718L188.132 256.699C187.878 257.006 187.579 257.241 187.236 257.405C186.892 257.565 186.52 257.645 186.119 257.645ZM186.738 256.81C187.021 256.81 187.281 256.748 187.518 256.626C187.759 256.503 187.952 256.337 188.095 256.128V252.851C188.095 252.409 187.984 252.065 187.763 251.82C187.543 251.57 187.232 251.445 186.831 251.445C186.315 251.445 185.9 251.699 185.585 252.206C185.269 252.71 185.112 253.377 185.112 254.207C185.112 255.009 185.255 255.644 185.542 256.11C185.832 256.577 186.231 256.81 186.738 256.81ZM193.667 257.645C193.045 257.645 192.583 257.491 192.28 257.184C191.981 256.873 191.832 256.421 191.832 255.828V251.605L190.924 251.396V251.077H193.293V255.361C193.293 255.905 193.389 256.278 193.581 256.478C193.778 256.675 194.079 256.773 194.484 256.773C194.754 256.773 195.018 256.701 195.275 256.558C195.533 256.411 195.76 256.184 195.957 255.877V256.491C195.654 256.855 195.304 257.139 194.907 257.344C194.51 257.544 194.097 257.645 193.667 257.645ZM195.834 257.645V256.54L195.773 256.497V251.605L194.883 251.396V251.077H197.233V256.534L198.099 256.84V257.043L195.994 257.645H195.834ZM201.921 257.645C201.344 257.645 200.83 257.507 200.38 257.233C199.934 256.955 199.584 256.572 199.331 256.085C199.077 255.599 198.95 255.04 198.95 254.41C198.95 253.739 199.089 253.143 199.367 252.624C199.646 252.104 200.03 251.697 200.521 251.402C201.016 251.104 201.581 250.954 202.215 250.954C202.661 250.954 203.06 251.026 203.412 251.169C203.764 251.312 204.042 251.505 204.247 251.746C204.452 251.983 204.554 252.249 204.554 252.544C204.554 252.777 204.49 252.959 204.364 253.09C204.241 253.217 204.071 253.28 203.854 253.28C203.613 253.28 203.439 253.211 203.332 253.072C203.23 252.929 203.163 252.736 203.13 252.495C203.089 252.122 203.007 251.854 202.884 251.691C202.762 251.527 202.553 251.445 202.258 251.445C201.71 251.445 201.282 251.683 200.975 252.157C200.673 252.628 200.521 253.266 200.521 254.072C200.521 254.882 200.681 255.502 201 255.932C201.323 256.362 201.786 256.577 202.387 256.577C202.792 256.577 203.152 256.503 203.467 256.356C203.783 256.204 204.067 255.961 204.321 255.625L204.603 255.803C204.366 256.405 204.02 256.863 203.566 257.178C203.116 257.489 202.567 257.645 201.921 257.645ZM207.65 257.645C207.138 257.645 206.758 257.514 206.508 257.252C206.263 256.986 206.14 256.591 206.14 256.067V251.58H205.324L205.275 251.31L207.318 249.469L207.601 249.506V251.077H209.399L209.27 251.58H207.601V255.944C207.601 256.611 207.846 256.945 208.337 256.945C208.497 256.945 208.65 256.908 208.798 256.834C208.949 256.761 209.08 256.652 209.19 256.509L209.43 256.767C209.233 257.041 208.978 257.256 208.663 257.411C208.352 257.567 208.014 257.645 207.65 257.645ZM171.044 272.645C170.548 272.645 170.102 272.503 169.705 272.221C169.313 271.939 169 271.554 168.766 271.067C168.537 270.576 168.423 270.022 168.423 269.404C168.423 268.724 168.56 268.127 168.834 267.611C169.108 267.092 169.489 266.687 169.976 266.396C170.467 266.102 171.031 265.954 171.67 265.954C172.128 265.954 172.578 266.034 173.02 266.194V263.579L172.075 263.235V263.026L174.297 262.431H174.475V271.472L175.358 271.699V271.877L173.253 272.645H173.112V271.718L173.057 271.699C172.803 272.006 172.504 272.241 172.161 272.405C171.817 272.565 171.445 272.645 171.044 272.645ZM171.663 271.81C171.946 271.81 172.206 271.748 172.443 271.626C172.684 271.503 172.877 271.337 173.02 271.128V267.851C173.02 267.409 172.909 267.065 172.688 266.82C172.468 266.57 172.157 266.445 171.756 266.445C171.24 266.445 170.825 266.699 170.51 267.206C170.194 267.71 170.037 268.377 170.037 269.207C170.037 270.009 170.18 270.644 170.467 271.11C170.757 271.577 171.156 271.81 171.663 271.81ZM179.218 272.645C178.6 272.645 178.058 272.509 177.592 272.239C177.125 271.965 176.763 271.585 176.505 271.098C176.252 270.607 176.125 270.04 176.125 269.398C176.125 268.714 176.268 268.115 176.554 267.599C176.841 267.084 177.24 266.681 177.751 266.39C178.267 266.099 178.862 265.954 179.538 265.954C180.389 265.954 181.037 266.196 181.483 266.678C181.933 267.157 182.169 267.861 182.189 268.79L182.103 268.87H177.162V268.446L180.581 268.323C180.614 268.225 180.63 268.066 180.63 267.845C180.63 266.904 180.221 266.433 179.402 266.433C178.85 266.433 178.425 266.656 178.126 267.102C177.831 267.548 177.684 268.18 177.684 268.999C177.684 270.734 178.355 271.601 179.697 271.601C180.589 271.601 181.279 271.282 181.766 270.644L182.029 270.834C181.817 271.407 181.463 271.853 180.968 272.172C180.477 272.487 179.894 272.645 179.218 272.645ZM185.139 272.645C184.86 272.645 184.557 272.62 184.23 272.571C183.903 272.522 183.618 272.456 183.377 272.374L183.297 270.404H183.684C183.733 270.985 183.882 271.425 184.132 271.724C184.386 272.023 184.735 272.172 185.181 272.172C185.525 272.172 185.799 272.08 186.004 271.896C186.209 271.707 186.311 271.462 186.311 271.159C186.311 270.91 186.233 270.695 186.078 270.515C185.926 270.331 185.66 270.14 185.28 269.944L184.746 269.674C184.234 269.416 183.866 269.14 183.641 268.845C183.416 268.546 183.303 268.19 183.303 267.777C183.303 267.188 183.512 266.738 183.929 266.427C184.347 266.112 184.948 265.954 185.734 265.954C186.029 265.954 186.313 265.975 186.587 266.016C186.861 266.052 187.078 266.104 187.238 266.169V267.851H186.894C186.775 266.897 186.331 266.421 185.562 266.421C185.259 266.421 185.016 266.5 184.832 266.66C184.648 266.82 184.555 267.032 184.555 267.298C184.555 267.532 184.635 267.734 184.795 267.906C184.958 268.074 185.235 268.252 185.623 268.44L186.188 268.722C186.663 268.96 187.006 269.226 187.219 269.52C187.436 269.815 187.545 270.181 187.545 270.619C187.545 271.245 187.33 271.74 186.9 272.104C186.475 272.464 185.887 272.645 185.139 272.645ZM188.445 272.516V272.19L189.408 271.988V267.09L188.457 266.758V266.537L190.703 265.954H190.875V271.988L191.814 272.19V272.516H188.445ZM190.132 264.794C189.854 264.794 189.635 264.706 189.476 264.53C189.316 264.354 189.236 264.154 189.236 263.929C189.236 263.683 189.316 263.475 189.476 263.303C189.639 263.127 189.858 263.039 190.132 263.039C190.411 263.039 190.632 263.127 190.795 263.303C190.959 263.475 191.041 263.683 191.041 263.929C191.041 264.154 190.961 264.354 190.802 264.53C190.642 264.706 190.419 264.794 190.132 264.794ZM196.703 266.408C196.777 266.2 196.873 265.989 196.992 265.776C197.11 265.559 197.258 265.377 197.434 265.23C197.614 265.079 197.827 265.003 198.072 265.003C198.285 265.003 198.465 265.062 198.612 265.181C198.764 265.295 198.839 265.453 198.839 265.653C198.839 265.821 198.782 265.969 198.667 266.095C198.557 266.222 198.412 266.286 198.232 266.286C198.109 266.286 198.015 266.259 197.949 266.206C197.884 266.153 197.824 266.099 197.771 266.046C197.718 265.993 197.64 265.966 197.538 265.966C197.415 265.966 197.313 266.036 197.231 266.175C197.149 266.31 197.092 266.466 197.059 266.642L196.703 266.408ZM195.316 270.024C195.603 270.024 195.824 269.925 195.979 269.729C196.139 269.533 196.249 269.289 196.31 268.999C196.376 268.708 196.409 268.426 196.409 268.152C196.409 267.98 196.394 267.794 196.366 267.593C196.337 267.393 196.286 267.2 196.212 267.016C196.143 266.832 196.04 266.683 195.905 266.568C195.77 266.449 195.596 266.39 195.384 266.39C195.159 266.39 194.974 266.453 194.831 266.58C194.692 266.707 194.582 266.871 194.5 267.071C194.422 267.268 194.367 267.474 194.334 267.691C194.305 267.908 194.291 268.107 194.291 268.287C194.291 268.516 194.318 268.765 194.371 269.035C194.424 269.306 194.524 269.539 194.672 269.735C194.819 269.927 195.034 270.024 195.316 270.024ZM195.322 270.478C194.876 270.478 194.549 270.527 194.34 270.625C194.132 270.719 194.027 270.856 194.027 271.036C194.027 271.188 194.132 271.311 194.34 271.405C194.549 271.495 194.954 271.587 195.555 271.681L196.433 271.834C197.153 271.949 197.683 272.143 198.023 272.417C198.363 272.687 198.532 273.05 198.532 273.504C198.532 273.893 198.426 274.226 198.213 274.504C198 274.783 197.714 275.01 197.354 275.186C196.998 275.362 196.599 275.49 196.157 275.572C195.719 275.654 195.275 275.695 194.825 275.695C194.49 275.695 194.16 275.664 193.837 275.603C193.514 275.546 193.221 275.454 192.959 275.327C192.697 275.204 192.487 275.042 192.327 274.842C192.171 274.641 192.094 274.398 192.094 274.111C192.094 273.78 192.219 273.481 192.468 273.215C192.722 272.953 193.151 272.702 193.757 272.46L194.181 272.632C193.902 272.755 193.685 272.937 193.53 273.179C193.374 273.42 193.297 273.676 193.297 273.946C193.297 274.232 193.381 274.467 193.548 274.652C193.716 274.84 193.937 274.979 194.211 275.069C194.49 275.159 194.788 275.204 195.107 275.204C195.476 275.204 195.836 275.163 196.188 275.081C196.54 274.999 196.83 274.873 197.059 274.701C197.293 274.529 197.409 274.308 197.409 274.038C197.409 273.891 197.36 273.758 197.262 273.639C197.164 273.52 196.979 273.408 196.709 273.301C196.439 273.199 196.047 273.101 195.531 273.007L194.524 272.816C193.923 272.702 193.483 272.534 193.205 272.313C192.931 272.088 192.793 271.82 192.793 271.509C192.793 271.337 192.845 271.167 192.947 271C193.053 270.828 193.237 270.672 193.499 270.533C193.761 270.394 194.127 270.294 194.598 270.232L195.322 270.478ZM195.322 270.478C194.843 270.478 194.41 270.386 194.021 270.202C193.636 270.013 193.332 269.752 193.106 269.416C192.881 269.076 192.769 268.675 192.769 268.213C192.769 267.779 192.879 267.393 193.1 267.053C193.325 266.713 193.63 266.445 194.015 266.249C194.404 266.052 194.841 265.954 195.328 265.954C195.807 265.954 196.243 266.05 196.636 266.243C197.029 266.431 197.342 266.693 197.575 267.028C197.808 267.364 197.925 267.749 197.925 268.182C197.925 268.579 197.816 268.952 197.599 269.299C197.383 269.647 197.078 269.932 196.685 270.153C196.296 270.369 195.842 270.478 195.322 270.478ZM203.172 272.516V272.19L204.056 271.994V268.256C204.056 267.765 203.955 267.401 203.755 267.163C203.558 266.922 203.247 266.801 202.822 266.801C202.224 266.801 201.733 267.069 201.349 267.605V267.01C201.676 266.683 202.042 266.425 202.447 266.237C202.852 266.048 203.27 265.954 203.7 265.954C204.911 265.954 205.516 266.558 205.516 267.765V271.994L206.431 272.19V272.516H203.172ZM199.108 272.516V272.19L200.023 271.988V267.102L199.108 266.758V266.55L201.244 265.954H201.428V267.022L201.484 267.084V271.988L202.374 272.19V272.516H199.108Z" fill="white"/>
<path d="M89.9494 139.433L19.7352 163.961C16.6527 165.038 14.534 167.879 14.3821 171.141L10.9303 245.264C10.7805 248.48 12.5741 251.473 15.4814 252.858L135.698 310.121C142.448 313.336 149.527 306.359 146.41 299.563L109.362 218.788C108.024 215.872 108.558 212.44 110.717 210.067L147.487 169.667C151.339 165.435 149.631 158.645 144.235 156.739L95.2516 139.441C93.5366 138.836 91.6665 138.833 89.9494 139.433Z" fill="#49933E"/>
<g filter="url(#filter1_n_807_14061)" style="mix-blend-mode:multiply">
<path d="M89.9494 139.433L19.7352 163.961C16.6527 165.038 14.534 167.879 14.3821 171.141L10.9303 245.264C10.7805 248.48 12.5741 251.473 15.4814 252.858L135.698 310.121C142.448 313.336 149.527 306.359 146.41 299.563L109.362 218.788C108.024 215.872 108.558 212.44 110.717 210.067L147.487 169.667C151.339 165.435 149.631 158.645 144.235 156.739L95.2516 139.441C93.5366 138.836 91.6665 138.833 89.9494 139.433Z" fill="#49933E"/>
</g>
<path d="M42.1928 205.984C41.5217 205.984 40.9263 205.88 40.4066 205.671C39.887 205.459 39.4819 205.162 39.1913 204.781C39.0195 204.56 38.8926 204.301 38.8108 204.002C38.733 203.699 38.6942 203.294 38.6942 202.787V197.084L37.6262 196.851V196.507H41.4071V196.851L40.3268 197.084V202.885C40.3268 203.683 40.5232 204.292 40.9161 204.714C41.3089 205.131 41.8449 205.34 42.5242 205.34C43.3671 205.34 43.9727 205.088 44.341 204.585C44.517 204.352 44.6438 204.033 44.7216 203.627C44.7993 203.218 44.8382 202.678 44.8382 202.007V197.084L43.7579 196.851V196.507H46.5568V196.851L45.4704 197.084V202.596C45.4704 203.087 45.4274 203.513 45.3415 203.873C45.2597 204.233 45.1348 204.544 44.9671 204.806C44.7134 205.186 44.3492 205.479 43.8745 205.684C43.404 205.884 42.8434 205.984 42.1928 205.984ZM49.059 205.984C48.7808 205.984 48.478 205.96 48.1506 205.911C47.8233 205.862 47.5389 205.796 47.2975 205.714L47.2177 203.744H47.6044C47.6535 204.325 47.8028 204.765 48.0524 205.064C48.3061 205.362 48.656 205.512 49.102 205.512C49.4457 205.512 49.7199 205.42 49.9245 205.236C50.1291 205.047 50.2314 204.802 50.2314 204.499C50.2314 204.249 50.1536 204.035 49.9981 203.855C49.8467 203.67 49.5808 203.48 49.2002 203.284L48.6662 203.014C48.1547 202.756 47.7865 202.48 47.5614 202.185C47.3363 201.886 47.2238 201.53 47.2238 201.117C47.2238 200.528 47.4325 200.078 47.8499 199.767C48.2673 199.452 48.8688 199.294 49.6544 199.294C49.949 199.294 50.2334 199.315 50.5076 199.355C50.7817 199.392 50.9986 199.443 51.1582 199.509V201.191H50.8145C50.6958 200.237 50.2518 199.761 49.4826 199.761C49.1798 199.761 48.9363 199.84 48.7521 200C48.568 200.16 48.4759 200.372 48.4759 200.638C48.4759 200.872 48.5557 201.074 48.7153 201.246C48.879 201.414 49.1552 201.592 49.5439 201.78L50.1086 202.062C50.5833 202.3 50.927 202.566 51.1398 202.86C51.3567 203.155 51.4651 203.521 51.4651 203.959C51.4651 204.585 51.2503 205.08 50.8206 205.444C50.3951 205.804 49.8079 205.984 49.059 205.984ZM54.0775 205.984C53.6192 205.984 53.251 205.851 52.9727 205.585C52.6986 205.315 52.5615 204.959 52.5615 204.517C52.5615 204.141 52.676 203.818 52.9052 203.548C53.1384 203.273 53.5067 203.038 54.01 202.842C54.5133 202.641 55.1721 202.467 55.9864 202.32V201.258C55.9864 200.73 55.9209 200.366 55.79 200.166C55.6632 199.961 55.4361 199.859 55.1087 199.859C54.7813 199.859 54.5215 199.939 54.3292 200.098C54.1369 200.254 54.0407 200.466 54.0407 200.736C54.0407 200.818 54.0468 200.9 54.0591 200.982C54.0714 201.064 54.0775 201.142 54.0775 201.215C54.0775 201.432 54.008 201.612 53.8688 201.755C53.7338 201.894 53.564 201.964 53.3594 201.964C53.163 201.964 53.0034 201.901 52.8806 201.774C52.7579 201.647 52.6965 201.481 52.6965 201.277C52.6965 201.015 52.8009 200.749 53.0095 200.479C53.2223 200.205 53.5067 199.967 53.8627 199.767C54.411 199.452 55.033 199.294 55.7286 199.294C56.1133 199.294 56.4324 199.349 56.6861 199.46C56.9398 199.566 57.126 199.72 57.2447 199.92C57.3183 200.063 57.3695 200.247 57.3981 200.473C57.4309 200.694 57.4472 201.045 57.4472 201.528V204.192C57.4472 204.577 57.48 204.845 57.5454 204.996C57.6109 205.143 57.7296 205.217 57.9014 205.217C58.0979 205.217 58.2881 205.109 58.4723 204.892L58.7116 205.162C58.4907 205.448 58.2636 205.657 58.0303 205.788C57.7971 205.919 57.5311 205.984 57.2324 205.984C56.8805 205.984 56.6084 205.898 56.4161 205.727C56.2237 205.551 56.0969 205.287 56.0355 204.935H55.9987C55.7409 205.266 55.4463 205.524 55.1148 205.708C54.7875 205.892 54.4417 205.984 54.0775 205.984ZM54.857 205.082C55.0821 205.082 55.2908 205.029 55.4831 204.923C55.6795 204.812 55.8473 204.659 55.9864 204.462V202.762C55.4872 202.86 55.0964 202.969 54.8141 203.087C54.5317 203.202 54.3312 203.345 54.2126 203.517C54.098 203.685 54.0407 203.9 54.0407 204.161C54.0407 204.46 54.1082 204.689 54.2433 204.849C54.3824 205.004 54.587 205.082 54.857 205.082ZM62.553 205.984C62.242 205.984 61.9372 205.935 61.6385 205.837C61.3397 205.735 61.0656 205.596 60.816 205.42H60.7485L59.9874 205.855H59.7296V196.906L58.7843 196.575V196.366L61.0063 195.771H61.1904V200.135C61.4564 199.861 61.751 199.652 62.0742 199.509C62.3975 199.366 62.7453 199.294 63.1177 199.294C63.6496 199.294 64.1161 199.425 64.5171 199.687C64.9181 199.945 65.2312 200.305 65.4562 200.767C65.6854 201.225 65.7999 201.759 65.7999 202.369C65.7999 203.052 65.6567 203.668 65.3703 204.217C65.088 204.761 64.7013 205.193 64.2102 205.512C63.7192 205.827 63.1668 205.984 62.553 205.984ZM62.4548 205.463C62.8026 205.463 63.1054 205.348 63.3632 205.119C63.621 204.89 63.8215 204.569 63.9647 204.155C64.1079 203.742 64.1795 203.261 64.1795 202.713C64.1795 201.89 64.0281 201.246 63.7253 200.779C63.4225 200.313 63.0031 200.08 62.4671 200.08C62.2052 200.08 61.9658 200.139 61.7489 200.258C61.5321 200.372 61.3459 200.532 61.1904 200.736V203.934C61.1904 204.393 61.305 204.763 61.5341 205.045C61.7674 205.324 62.0742 205.463 62.4548 205.463ZM66.6548 205.855V205.53L67.6185 205.328V200.43L66.6671 200.098V199.877L68.9136 199.294H69.0854V205.328L70.0245 205.53V205.855H66.6548ZM68.3428 198.134C68.0645 198.134 67.8456 198.046 67.686 197.87C67.5264 197.694 67.4466 197.494 67.4466 197.269C67.4466 197.023 67.5264 196.814 67.686 196.642C67.8497 196.467 68.0686 196.379 68.3428 196.379C68.621 196.379 68.842 196.467 69.0057 196.642C69.1693 196.814 69.2512 197.023 69.2512 197.269C69.2512 197.494 69.1714 197.694 69.0118 197.87C68.8522 198.046 68.6292 198.134 68.3428 198.134ZM70.5127 205.855V205.53L71.4825 205.328V196.9L70.525 196.575V196.348L72.7714 195.771H72.9433V205.328L73.8824 205.53V205.855H70.5127ZM74.483 205.855V205.53L75.4467 205.328V200.43L74.4953 200.098V199.877L76.7418 199.294H76.9137V205.328L77.8528 205.53V205.855H74.483ZM76.171 198.134C75.8927 198.134 75.6738 198.046 75.5142 197.87C75.3546 197.694 75.2748 197.494 75.2748 197.269C75.2748 197.023 75.3546 196.814 75.5142 196.642C75.6779 196.467 75.8968 196.379 76.171 196.379C76.4492 196.379 76.6702 196.467 76.8339 196.642C76.9975 196.814 77.0794 197.023 77.0794 197.269C77.0794 197.494 76.9996 197.694 76.84 197.87C76.6804 198.046 76.4574 198.134 76.171 198.134ZM80.7592 205.984C80.2477 205.984 79.8672 205.853 79.6176 205.592C79.3721 205.326 79.2493 204.931 79.2493 204.407V199.92H78.433L78.3839 199.65L80.4278 197.809L80.7101 197.846V199.417H82.5085L82.3796 199.92H80.7101V204.284C80.7101 204.951 80.9556 205.285 81.4467 205.285C81.6063 205.285 81.7597 205.248 81.907 205.174C82.0584 205.101 82.1894 204.992 82.2998 204.849L82.5392 205.107C82.3428 205.381 82.0871 205.596 81.772 205.751C81.461 205.907 81.1234 205.984 80.7592 205.984ZM84.1798 209.016C83.836 209.016 83.5517 208.935 83.3266 208.771C83.1056 208.611 82.9952 208.39 82.9952 208.108C82.9952 207.895 83.0627 207.725 83.1977 207.599C83.3368 207.476 83.5107 207.414 83.7194 207.414C83.8913 207.414 84.0304 207.46 84.1368 207.55C84.2473 207.644 84.3271 207.793 84.3762 207.998C84.413 208.165 84.4519 208.274 84.4928 208.323C84.5337 208.376 84.6012 208.403 84.6954 208.403C84.8304 208.403 84.9593 208.327 85.082 208.176C85.2048 208.028 85.3194 207.797 85.4258 207.482L85.9168 206.052L83.4555 200.227C83.3818 200.072 83.2775 199.959 83.1425 199.889C83.0115 199.816 82.8131 199.765 82.5471 199.736V199.417H85.9598V199.736C85.6856 199.756 85.483 199.785 85.3521 199.822C85.2253 199.855 85.1536 199.912 85.1373 199.994C85.1209 200.072 85.1414 200.188 85.1987 200.344L86.6533 203.971H86.7147L87.8871 200.694C88.0139 200.374 88.0119 200.141 87.8809 199.994C87.75 199.846 87.4676 199.761 87.0339 199.736V199.417H89.845V199.736C89.5422 199.789 89.307 199.851 89.1392 199.92C88.9714 199.986 88.8425 200.08 88.7525 200.202C88.6625 200.321 88.5765 200.489 88.4947 200.706L85.9475 207.568C85.8534 207.83 85.749 208.047 85.6344 208.219C85.524 208.395 85.4073 208.536 85.2846 208.642C85.0104 208.892 84.6422 209.016 84.1798 209.016ZM46.1197 220.984C45.6082 220.984 45.2277 220.853 44.9781 220.592C44.7325 220.326 44.6098 219.931 44.6098 219.407V214.92H43.7934L43.7443 214.65L45.7883 212.809L46.0706 212.846V214.417H47.869L47.7401 214.92H46.0706V219.284C46.0706 219.951 46.3161 220.285 46.8072 220.285C46.9667 220.285 47.1202 220.248 47.2675 220.174C47.4189 220.101 47.5498 219.992 47.6603 219.849L47.8997 220.107C47.7033 220.381 47.4475 220.596 47.1325 220.751C46.8215 220.907 46.4839 220.984 46.1197 220.984ZM51.5964 220.984C50.9786 220.984 50.4364 220.849 49.9699 220.579C49.5034 220.305 49.1413 219.925 48.8835 219.438C48.6298 218.947 48.5029 218.38 48.5029 217.737C48.5029 217.054 48.6462 216.455 48.9326 215.939C49.219 215.423 49.618 215.02 50.1295 214.73C50.6451 214.439 51.2404 214.294 51.9156 214.294C52.7667 214.294 53.4153 214.535 53.8613 215.018C54.3114 215.497 54.5467 216.201 54.5672 217.13L54.4812 217.21H49.5402V216.786L52.959 216.663C52.9918 216.565 53.0081 216.405 53.0081 216.185C53.0081 215.243 52.599 214.773 51.7806 214.773C51.2282 214.773 50.8026 214.996 50.5039 215.442C50.2093 215.888 50.062 216.52 50.062 217.338C50.062 219.073 50.733 219.941 52.0752 219.941C52.9672 219.941 53.6567 219.622 54.1437 218.983L54.4076 219.174C54.1948 219.747 53.8409 220.193 53.3457 220.512C52.8547 220.827 52.2716 220.984 51.5964 220.984ZM57.5166 220.984C57.2384 220.984 56.9356 220.96 56.6082 220.911C56.2809 220.862 55.9965 220.796 55.755 220.714L55.6753 218.744H56.0619C56.111 219.325 56.2604 219.765 56.51 220.064C56.7637 220.362 57.1136 220.512 57.5596 220.512C57.9033 220.512 58.1775 220.42 58.3821 220.236C58.5867 220.047 58.689 219.802 58.689 219.499C58.689 219.249 58.6112 219.035 58.4557 218.855C58.3043 218.67 58.0383 218.48 57.6578 218.284L57.1238 218.014C56.6123 217.756 56.244 217.48 56.019 217.185C55.7939 216.886 55.6814 216.53 55.6814 216.117C55.6814 215.528 55.8901 215.078 56.3075 214.767C56.7248 214.452 57.3263 214.294 58.112 214.294C58.4066 214.294 58.691 214.315 58.9652 214.355C59.2393 214.392 59.4562 214.443 59.6158 214.509V216.191H59.2721C59.1534 215.237 58.7094 214.761 57.9401 214.761C57.6373 214.761 57.3939 214.84 57.2097 215C57.0256 215.16 56.9335 215.372 56.9335 215.638C56.9335 215.872 57.0133 216.074 57.1729 216.246C57.3366 216.414 57.6128 216.592 58.0015 216.78L58.5662 217.062C59.0409 217.3 59.3846 217.566 59.5974 217.86C59.8142 218.155 59.9227 218.521 59.9227 218.959C59.9227 219.585 59.7078 220.08 59.2782 220.444C58.8526 220.804 58.2654 220.984 57.5166 220.984ZM63.0708 220.984C62.5593 220.984 62.1788 220.853 61.9292 220.592C61.6837 220.326 61.5609 219.931 61.5609 219.407V214.92H60.7446L60.6955 214.65L62.7394 212.809L63.0217 212.846V214.417H64.8201L64.6912 214.92H63.0217V219.284C63.0217 219.951 63.2673 220.285 63.7583 220.285C63.9179 220.285 64.0713 220.248 64.2186 220.174C64.37 220.101 64.501 219.992 64.6114 219.849L64.8508 220.107C64.6544 220.381 64.3987 220.596 64.0836 220.751C63.7726 220.907 63.435 220.984 63.0708 220.984ZM65.2822 220.855V220.53L66.2459 220.328V215.43L65.2945 215.098V214.877L67.5409 214.294H67.7128V220.328L68.6519 220.53V220.855H65.2822ZM66.9701 213.134C66.6919 213.134 66.473 213.046 66.3134 212.87C66.1538 212.694 66.074 212.494 66.074 212.269C66.074 212.023 66.1538 211.814 66.3134 211.642C66.477 211.467 66.696 211.379 66.9701 211.379C67.2484 211.379 67.4693 211.467 67.633 211.642C67.7967 211.814 67.8785 212.023 67.8785 212.269C67.8785 212.494 67.7987 212.694 67.6392 212.87C67.4796 213.046 67.2566 213.134 66.9701 213.134ZM73.32 220.855V220.53L74.2038 220.334V216.596C74.2038 216.105 74.1036 215.741 73.9031 215.503C73.7067 215.262 73.3957 215.141 72.9701 215.141C72.3727 215.141 71.8817 215.409 71.497 215.945V215.35C71.8244 215.022 72.1906 214.765 72.5957 214.576C73.0008 214.388 73.4182 214.294 73.8478 214.294C75.059 214.294 75.6646 214.898 75.6646 216.105V220.334L76.5792 220.53V220.855H73.32ZM69.2567 220.855V220.53L70.1712 220.328V215.442L69.2567 215.098V214.889L71.3927 214.294H71.5768V215.362L71.632 215.423V220.328L72.522 220.53V220.855H69.2567ZM81.465 214.748C81.5387 214.54 81.6349 214.329 81.7535 214.116C81.8722 213.899 82.0195 213.717 82.1955 213.57C82.3755 213.418 82.5883 213.343 82.8338 213.343C83.0466 213.343 83.2266 213.402 83.3739 213.521C83.5253 213.635 83.601 213.793 83.601 213.993C83.601 214.161 83.5437 214.308 83.4292 214.435C83.3187 214.562 83.1734 214.626 82.9934 214.626C82.8706 214.626 82.7765 214.599 82.711 214.546C82.6456 214.493 82.5862 214.439 82.533 214.386C82.4798 214.333 82.4021 214.306 82.2998 214.306C82.177 214.306 82.0747 214.376 81.9929 214.515C81.9111 214.65 81.8538 214.806 81.821 214.982L81.465 214.748ZM80.0779 218.363C80.3643 218.363 80.5853 218.265 80.7408 218.069C80.9004 217.872 81.0108 217.629 81.0722 217.338C81.1377 217.048 81.1704 216.766 81.1704 216.491C81.1704 216.32 81.1561 216.133 81.1275 215.933C81.0988 215.732 81.0477 215.54 80.974 215.356C80.9045 215.172 80.8022 215.022 80.6671 214.908C80.5321 214.789 80.3582 214.73 80.1454 214.73C79.9203 214.73 79.7362 214.793 79.593 214.92C79.4539 215.047 79.3434 215.211 79.2615 215.411C79.1838 215.608 79.1286 215.814 79.0958 216.031C79.0672 216.248 79.0529 216.446 79.0529 216.626C79.0529 216.856 79.0795 217.105 79.1326 217.375C79.1858 217.645 79.2861 217.879 79.4334 218.075C79.5807 218.267 79.7955 218.363 80.0779 218.363ZM80.084 218.818C79.638 218.818 79.3106 218.867 79.102 218.965C78.8933 219.059 78.7889 219.196 78.7889 219.376C78.7889 219.528 78.8933 219.65 79.102 219.745C79.3106 219.835 79.7157 219.927 80.3173 220.021L81.195 220.174C81.9152 220.289 82.4451 220.483 82.7847 220.757C83.1243 221.027 83.2941 221.389 83.2941 221.844C83.2941 222.232 83.1877 222.566 82.975 222.844C82.7622 223.122 82.4758 223.349 82.1157 223.525C81.7597 223.701 81.3607 223.83 80.9188 223.912C80.4809 223.994 80.037 224.035 79.5868 224.035C79.2513 224.035 78.9219 224.004 78.5986 223.943C78.2754 223.886 77.9828 223.793 77.7209 223.667C77.459 223.544 77.2483 223.382 77.0887 223.182C76.9332 222.981 76.8555 222.738 76.8555 222.451C76.8555 222.12 76.9803 221.821 77.2299 221.555C77.4836 221.293 77.9133 221.042 78.5189 220.8L78.9424 220.972C78.6641 221.095 78.4472 221.277 78.2918 221.518C78.1363 221.76 78.0585 222.016 78.0585 222.286C78.0585 222.572 78.1424 222.807 78.3102 222.991C78.4779 223.18 78.6989 223.319 78.9731 223.409C79.2513 223.499 79.55 223.544 79.8692 223.544C80.2375 223.544 80.5976 223.503 80.9495 223.421C81.3014 223.339 81.5919 223.212 81.821 223.041C82.0543 222.869 82.1709 222.648 82.1709 222.378C82.1709 222.23 82.1218 222.097 82.0236 221.979C81.9254 221.86 81.7412 221.748 81.4712 221.641C81.2011 221.539 80.8083 221.441 80.2927 221.347L79.2861 221.156C78.6846 221.042 78.2447 220.874 77.9664 220.653C77.6923 220.428 77.5552 220.16 77.5552 219.849C77.5552 219.677 77.6064 219.507 77.7087 219.339C77.815 219.168 77.9992 219.012 78.2611 218.873C78.5229 218.734 78.8892 218.634 79.3597 218.572L80.084 218.818ZM80.084 218.818C79.6053 218.818 79.1715 218.726 78.7828 218.541C78.3981 218.353 78.0933 218.091 77.8682 217.756C77.6432 217.416 77.5307 217.015 77.5307 216.553C77.5307 216.119 77.6411 215.732 77.8621 215.393C78.0872 215.053 78.392 214.785 78.7766 214.589C79.1654 214.392 79.6032 214.294 80.0902 214.294C80.5689 214.294 81.0047 214.39 81.3975 214.583C81.7904 214.771 82.1034 215.033 82.3366 215.368C82.5699 215.704 82.6865 216.088 82.6865 216.522C82.6865 216.919 82.578 217.291 82.3612 217.639C82.1443 217.987 81.8395 218.271 81.4466 218.492C81.0579 218.709 80.6037 218.818 80.084 218.818Z" fill="white"/>
<path d="M244.119 239.137L309.741 307.627C312.362 310.364 316.544 310.885 319.757 308.877L378.677 272.052C381.016 270.59 382.437 268.026 382.437 265.268V227.874C382.437 224.732 380.598 221.88 377.734 220.585L301.93 186.297C299.156 185.042 295.91 185.471 293.557 187.403L244.819 227.42C241.218 230.376 240.895 235.773 244.119 239.137Z" fill="#9BC85D"/>
<g filter="url(#filter2_n_807_14061)" style="mix-blend-mode:multiply">
<path d="M244.119 239.137L309.741 307.627C312.362 310.364 316.544 310.885 319.757 308.877L378.677 272.052C381.016 270.59 382.437 268.026 382.437 265.268V227.874C382.437 224.732 380.598 221.88 377.734 220.585L301.93 186.297C299.156 185.042 295.91 185.471 293.557 187.403L244.819 227.42C241.218 230.376 240.895 235.773 244.119 239.137Z" fill="#9BC85D"/>
</g>
<path d="M299.157 245.752V245.396L300.201 245.163V236.981L299.157 236.748V236.404H302.306C302.977 236.404 303.558 236.433 304.049 236.49C304.54 236.547 304.97 236.641 305.338 236.772C305.71 236.899 306.046 237.071 306.345 237.288C306.913 237.693 307.357 238.225 307.676 238.884C307.996 239.538 308.155 240.273 308.155 241.087C308.155 241.918 307.985 242.683 307.646 243.383C307.306 244.078 306.846 244.629 306.265 245.034C305.888 245.292 305.479 245.476 305.037 245.586C304.595 245.697 304.055 245.752 303.417 245.752H299.157ZM303.067 245.212C303.611 245.212 304.065 245.14 304.43 244.997C304.798 244.85 305.117 244.616 305.387 244.297C305.686 243.929 305.911 243.467 306.062 242.91C306.218 242.35 306.295 241.713 306.295 241.001C306.295 240.289 306.218 239.673 306.062 239.154C305.907 238.63 305.676 238.194 305.369 237.846C305.09 237.535 304.751 237.31 304.35 237.171C303.949 237.032 303.443 236.962 302.834 236.962H301.815V244.481C301.815 244.747 301.907 244.936 302.091 245.046C302.279 245.157 302.605 245.212 303.067 245.212ZM312.404 245.881C311.786 245.881 311.244 245.746 310.777 245.476C310.311 245.202 309.948 244.821 309.691 244.334C309.437 243.843 309.31 243.276 309.31 242.634C309.31 241.951 309.453 241.351 309.74 240.836C310.026 240.32 310.425 239.917 310.937 239.626C311.452 239.336 312.048 239.191 312.723 239.191C313.574 239.191 314.222 239.432 314.669 239.915C315.119 240.394 315.354 241.097 315.374 242.026L315.288 242.106H310.347V241.683L313.766 241.56C313.799 241.462 313.815 241.302 313.815 241.081C313.815 240.14 313.406 239.669 312.588 239.669C312.035 239.669 311.61 239.892 311.311 240.338C311.016 240.784 310.869 241.417 310.869 242.235C310.869 243.97 311.54 244.837 312.882 244.837C313.774 244.837 314.464 244.518 314.951 243.88L315.215 244.07C315.002 244.643 314.648 245.089 314.153 245.408C313.662 245.723 313.079 245.881 312.404 245.881ZM318.324 245.881C318.046 245.881 317.743 245.856 317.415 245.807C317.088 245.758 316.804 245.693 316.562 245.611L316.482 243.641H316.869C316.918 244.222 317.068 244.661 317.317 244.96C317.571 245.259 317.921 245.408 318.367 245.408C318.711 245.408 318.985 245.316 319.189 245.132C319.394 244.944 319.496 244.698 319.496 244.395C319.496 244.146 319.418 243.931 319.263 243.751C319.112 243.567 318.846 243.377 318.465 243.18L317.931 242.91C317.419 242.652 317.051 242.376 316.826 242.081C316.601 241.783 316.489 241.427 316.489 241.014C316.489 240.424 316.697 239.974 317.115 239.663C317.532 239.348 318.134 239.191 318.919 239.191C319.214 239.191 319.498 239.211 319.772 239.252C320.047 239.289 320.263 239.34 320.423 239.405V241.087H320.079C319.961 240.134 319.517 239.657 318.747 239.657C318.445 239.657 318.201 239.737 318.017 239.896C317.833 240.056 317.741 240.269 317.741 240.535C317.741 240.768 317.821 240.971 317.98 241.142C318.144 241.31 318.42 241.488 318.809 241.676L319.373 241.959C319.848 242.196 320.192 242.462 320.405 242.757C320.621 243.051 320.73 243.418 320.73 243.855C320.73 244.481 320.515 244.977 320.085 245.341C319.66 245.701 319.073 245.881 318.324 245.881ZM321.63 245.752V245.427L322.593 245.224V240.326L321.642 239.995V239.774L323.889 239.191H324.06V245.224L325 245.427V245.752H321.63ZM323.318 238.03C323.04 238.03 322.821 237.943 322.661 237.767C322.501 237.591 322.422 237.39 322.422 237.165C322.422 236.92 322.501 236.711 322.661 236.539C322.825 236.363 323.044 236.275 323.318 236.275C323.596 236.275 323.817 236.363 323.981 236.539C324.144 236.711 324.226 236.92 324.226 237.165C324.226 237.39 324.146 237.591 323.987 237.767C323.827 237.943 323.604 238.03 323.318 238.03ZM329.889 239.645C329.962 239.436 330.058 239.225 330.177 239.013C330.296 238.796 330.443 238.614 330.619 238.466C330.799 238.315 331.012 238.239 331.257 238.239C331.47 238.239 331.65 238.299 331.797 238.417C331.949 238.532 332.025 238.689 332.025 238.89C332.025 239.058 331.967 239.205 331.853 239.332C331.742 239.459 331.597 239.522 331.417 239.522C331.294 239.522 331.2 239.495 331.135 239.442C331.069 239.389 331.01 239.336 330.957 239.283C330.903 239.229 330.826 239.203 330.723 239.203C330.601 239.203 330.498 239.272 330.416 239.412C330.335 239.547 330.277 239.702 330.245 239.878L329.889 239.645ZM328.501 243.26C328.788 243.26 329.009 243.162 329.164 242.965C329.324 242.769 329.434 242.525 329.496 242.235C329.561 241.944 329.594 241.662 329.594 241.388C329.594 241.216 329.58 241.03 329.551 240.829C329.522 240.629 329.471 240.437 329.398 240.252C329.328 240.068 329.226 239.919 329.091 239.804C328.956 239.686 328.782 239.626 328.569 239.626C328.344 239.626 328.16 239.69 328.017 239.817C327.877 239.943 327.767 240.107 327.685 240.308C327.607 240.504 327.552 240.711 327.519 240.928C327.491 241.144 327.476 241.343 327.476 241.523C327.476 241.752 327.503 242.002 327.556 242.272C327.609 242.542 327.71 242.775 327.857 242.971C328.004 243.164 328.219 243.26 328.501 243.26ZM328.508 243.714C328.062 243.714 327.734 243.763 327.525 243.861C327.317 243.956 327.212 244.093 327.212 244.273C327.212 244.424 327.317 244.547 327.525 244.641C327.734 244.731 328.139 244.823 328.741 244.917L329.618 245.071C330.339 245.185 330.869 245.38 331.208 245.654C331.548 245.924 331.718 246.286 331.718 246.74C331.718 247.129 331.611 247.462 331.398 247.741C331.186 248.019 330.899 248.246 330.539 248.422C330.183 248.598 329.784 248.727 329.342 248.809C328.904 248.89 328.46 248.931 328.01 248.931C327.675 248.931 327.345 248.901 327.022 248.839C326.699 248.782 326.406 248.69 326.144 248.563C325.883 248.44 325.672 248.279 325.512 248.078C325.357 247.878 325.279 247.634 325.279 247.348C325.279 247.016 325.404 246.718 325.653 246.452C325.907 246.19 326.337 245.938 326.942 245.697L327.366 245.869C327.088 245.991 326.871 246.173 326.715 246.415C326.56 246.656 326.482 246.912 326.482 247.182C326.482 247.469 326.566 247.704 326.734 247.888C326.901 248.076 327.122 248.215 327.397 248.305C327.675 248.395 327.974 248.44 328.293 248.44C328.661 248.44 329.021 248.399 329.373 248.318C329.725 248.236 330.015 248.109 330.245 247.937C330.478 247.765 330.594 247.544 330.594 247.274C330.594 247.127 330.545 246.994 330.447 246.875C330.349 246.757 330.165 246.644 329.895 246.538C329.625 246.435 329.232 246.337 328.716 246.243L327.71 246.053C327.108 245.938 326.668 245.77 326.39 245.549C326.116 245.324 325.979 245.056 325.979 244.745C325.979 244.573 326.03 244.404 326.132 244.236C326.239 244.064 326.423 243.909 326.685 243.769C326.946 243.63 327.313 243.53 327.783 243.469L328.508 243.714ZM328.508 243.714C328.029 243.714 327.595 243.622 327.206 243.438C326.822 243.25 326.517 242.988 326.292 242.652C326.067 242.313 325.954 241.912 325.954 241.449C325.954 241.016 326.065 240.629 326.286 240.289C326.511 239.95 326.816 239.682 327.2 239.485C327.589 239.289 328.027 239.191 328.514 239.191C328.992 239.191 329.428 239.287 329.821 239.479C330.214 239.667 330.527 239.929 330.76 240.265C330.993 240.6 331.11 240.985 331.11 241.419C331.11 241.816 331.002 242.188 330.785 242.536C330.568 242.884 330.263 243.168 329.87 243.389C329.481 243.606 329.027 243.714 328.508 243.714ZM336.357 245.752V245.427L337.241 245.23V241.492C337.241 241.001 337.141 240.637 336.94 240.4C336.744 240.158 336.433 240.038 336.007 240.038C335.41 240.038 334.919 240.306 334.534 240.842V240.246C334.861 239.919 335.228 239.661 335.633 239.473C336.038 239.285 336.455 239.191 336.885 239.191C338.096 239.191 338.702 239.794 338.702 241.001V245.23L339.616 245.427V245.752H336.357ZM332.294 245.752V245.427L333.208 245.224V240.338L332.294 239.995V239.786L334.43 239.191H334.614V240.259L334.669 240.32V245.224L335.559 245.427V245.752H332.294ZM300.132 260.881C299.854 260.881 299.551 260.856 299.224 260.807C298.896 260.758 298.612 260.693 298.37 260.611L298.291 258.641H298.677C298.726 259.222 298.876 259.661 299.125 259.96C299.379 260.259 299.729 260.408 300.175 260.408C300.519 260.408 300.793 260.316 300.997 260.132C301.202 259.944 301.304 259.698 301.304 259.395C301.304 259.146 301.227 258.931 301.071 258.751C300.92 258.567 300.654 258.377 300.273 258.18L299.739 257.91C299.228 257.652 298.859 257.376 298.634 257.081C298.409 256.783 298.297 256.427 298.297 256.014C298.297 255.424 298.505 254.974 298.923 254.663C299.34 254.348 299.942 254.191 300.727 254.191C301.022 254.191 301.306 254.211 301.58 254.252C301.855 254.289 302.071 254.34 302.231 254.405V256.087H301.887C301.769 255.134 301.325 254.657 300.555 254.657C300.253 254.657 300.009 254.737 299.825 254.896C299.641 255.056 299.549 255.269 299.549 255.535C299.549 255.768 299.629 255.971 299.788 256.142C299.952 256.31 300.228 256.488 300.617 256.676L301.181 256.959C301.656 257.196 302 257.462 302.213 257.757C302.43 258.051 302.538 258.418 302.538 258.855C302.538 259.481 302.323 259.977 301.893 260.341C301.468 260.701 300.881 260.881 300.132 260.881ZM304.587 263.913C304.243 263.913 303.959 263.831 303.734 263.667C303.513 263.508 303.403 263.287 303.403 263.005C303.403 262.792 303.47 262.622 303.605 262.495C303.744 262.372 303.918 262.311 304.127 262.311C304.299 262.311 304.438 262.356 304.544 262.446C304.655 262.54 304.734 262.689 304.784 262.894C304.82 263.062 304.859 263.17 304.9 263.219C304.941 263.273 305.009 263.299 305.103 263.299C305.238 263.299 305.367 263.223 305.489 263.072C305.612 262.925 305.727 262.694 305.833 262.378L306.324 260.948L303.863 255.124C303.789 254.968 303.685 254.855 303.55 254.786C303.419 254.712 303.22 254.661 302.954 254.632V254.313H306.367V254.632C306.093 254.653 305.89 254.682 305.76 254.718C305.633 254.751 305.561 254.808 305.545 254.89C305.528 254.968 305.549 255.085 305.606 255.24L307.061 258.868H307.122L308.294 255.59C308.421 255.271 308.419 255.038 308.288 254.89C308.157 254.743 307.875 254.657 307.441 254.632V254.313H310.252V254.632C309.95 254.686 309.714 254.747 309.547 254.817C309.379 254.882 309.25 254.976 309.16 255.099C309.07 255.218 308.984 255.385 308.902 255.602L306.355 262.464C306.261 262.726 306.156 262.943 306.042 263.115C305.931 263.291 305.815 263.432 305.692 263.539C305.418 263.788 305.05 263.913 304.587 263.913ZM312.42 260.881C312.141 260.881 311.839 260.856 311.511 260.807C311.184 260.758 310.9 260.693 310.658 260.611L310.578 258.641H310.965C311.014 259.222 311.163 259.661 311.413 259.96C311.667 260.259 312.017 260.408 312.463 260.408C312.806 260.408 313.081 260.316 313.285 260.132C313.49 259.944 313.592 259.698 313.592 259.395C313.592 259.146 313.514 258.931 313.359 258.751C313.207 258.567 312.941 258.377 312.561 258.18L312.027 257.91C311.515 257.652 311.147 257.376 310.922 257.081C310.697 256.783 310.584 256.427 310.584 256.014C310.584 255.424 310.793 254.974 311.211 254.663C311.628 254.348 312.229 254.191 313.015 254.191C313.31 254.191 313.594 254.211 313.868 254.252C314.142 254.289 314.359 254.34 314.519 254.405V256.087H314.175C314.056 255.134 313.612 254.657 312.843 254.657C312.54 254.657 312.297 254.737 312.113 254.896C311.929 255.056 311.837 255.269 311.837 255.535C311.837 255.768 311.916 255.971 312.076 256.142C312.24 256.31 312.516 256.488 312.905 256.676L313.469 256.959C313.944 257.196 314.288 257.462 314.5 257.757C314.717 258.051 314.826 258.418 314.826 258.855C314.826 259.481 314.611 259.977 314.181 260.341C313.756 260.701 313.169 260.881 312.42 260.881ZM317.974 260.881C317.462 260.881 317.082 260.75 316.832 260.488C316.587 260.222 316.464 259.827 316.464 259.303V254.817H315.648L315.599 254.547L317.642 252.705L317.925 252.742V254.313H319.723L319.594 254.817H317.925V259.181C317.925 259.848 318.17 260.181 318.661 260.181C318.821 260.181 318.974 260.144 319.122 260.071C319.273 259.997 319.404 259.889 319.515 259.745L319.754 260.003C319.557 260.277 319.302 260.492 318.987 260.648C318.676 260.803 318.338 260.881 317.974 260.881ZM323.451 260.881C322.833 260.881 322.291 260.746 321.824 260.476C321.358 260.202 320.995 259.821 320.738 259.334C320.484 258.843 320.357 258.276 320.357 257.634C320.357 256.951 320.5 256.351 320.787 255.836C321.073 255.32 321.472 254.917 321.984 254.626C322.499 254.336 323.095 254.191 323.77 254.191C324.621 254.191 325.269 254.432 325.716 254.915C326.166 255.394 326.401 256.097 326.421 257.026L326.335 257.106H321.394V256.683L324.813 256.56C324.846 256.462 324.862 256.302 324.862 256.081C324.862 255.14 324.453 254.669 323.635 254.669C323.082 254.669 322.657 254.892 322.358 255.338C322.063 255.784 321.916 256.417 321.916 257.235C321.916 258.97 322.587 259.837 323.929 259.837C324.821 259.837 325.511 259.518 325.998 258.88L326.262 259.07C326.049 259.643 325.695 260.089 325.2 260.408C324.709 260.723 324.126 260.881 323.451 260.881ZM327.223 260.752V260.427L328.137 260.224V255.338L327.235 254.995V254.786L329.273 254.191H329.549V255.185L329.604 255.246V260.224L330.488 260.427V260.752H327.223ZM331.163 260.752V260.427L332.053 260.23V256.664C332.053 256.083 331.963 255.666 331.783 255.412C331.607 255.158 331.319 255.031 330.918 255.031C330.611 255.031 330.328 255.105 330.071 255.252C329.817 255.396 329.592 255.604 329.395 255.878V255.271C329.719 254.935 330.093 254.671 330.519 254.479C330.948 254.287 331.374 254.191 331.795 254.191C332.38 254.191 332.812 254.35 333.09 254.669C333.373 254.984 333.514 255.48 333.514 256.155V260.23L334.404 260.427V260.752H331.163ZM335.079 260.752V260.427L335.963 260.23V256.64C335.963 256.054 335.877 255.641 335.705 255.4C335.537 255.158 335.251 255.038 334.846 255.038C334.527 255.038 334.238 255.109 333.98 255.252C333.727 255.396 333.504 255.606 333.311 255.885V255.271C333.614 254.923 333.982 254.657 334.416 254.473C334.854 254.285 335.294 254.191 335.736 254.191C336.309 254.191 336.73 254.352 337 254.675C337.27 254.995 337.409 255.5 337.418 256.191V260.23L338.308 260.427V260.752H335.079ZM341.071 260.881C340.793 260.881 340.49 260.856 340.163 260.807C339.835 260.758 339.551 260.693 339.31 260.611L339.23 258.641H339.616C339.666 259.222 339.815 259.661 340.065 259.96C340.318 260.259 340.668 260.408 341.114 260.408C341.458 260.408 341.732 260.316 341.937 260.132C342.141 259.944 342.244 259.698 342.244 259.395C342.244 259.146 342.166 258.931 342.01 258.751C341.859 258.567 341.593 258.377 341.212 258.18L340.678 257.91C340.167 257.652 339.799 257.376 339.574 257.081C339.348 256.783 339.236 256.427 339.236 256.014C339.236 255.424 339.445 254.974 339.862 254.663C340.279 254.348 340.881 254.191 341.667 254.191C341.961 254.191 342.246 254.211 342.52 254.252C342.794 254.289 343.011 254.34 343.17 254.405V256.087H342.827C342.708 255.134 342.264 254.657 341.495 254.657C341.192 254.657 340.948 254.737 340.764 254.896C340.58 255.056 340.488 255.269 340.488 255.535C340.488 255.768 340.568 255.971 340.727 256.142C340.891 256.31 341.167 256.488 341.556 256.676L342.121 256.959C342.595 257.196 342.939 257.462 343.152 257.757C343.369 258.051 343.477 258.418 343.477 258.855C343.477 259.481 343.262 259.977 342.833 260.341C342.407 260.701 341.82 260.881 341.071 260.881Z" fill="white"/>
<path d="M289.629 176.864L240.788 217.694C237.552 220.399 232.772 220.128 229.863 217.074L179.452 164.142C174.958 159.423 177.688 151.6 184.141 150.701L367.096 125.219C371.907 124.549 376.2 128.286 376.2 133.143V198.668C376.2 204.48 370.197 208.352 364.902 205.956L298.058 175.713C295.261 174.448 291.985 174.895 289.629 176.864Z" fill="#77B25D"/>
<g filter="url(#filter3_n_807_14061)" style="mix-blend-mode:multiply">
<path d="M289.619 176.759L240.777 217.589C237.542 220.294 232.762 220.022 229.853 216.968L179.441 164.036C174.948 159.318 177.678 151.494 184.131 150.595L367.086 125.114C371.896 124.444 376.189 128.18 376.189 133.037V198.562C376.189 204.375 370.187 208.247 364.892 205.851L298.048 175.608C295.25 174.342 291.975 174.789 289.619 176.759Z" fill="#77B25D"/>
</g>
<path d="M240.374 170.125L240.333 169.784L241.338 169.404L240.369 161.305L239.304 161.185L239.263 160.844L243.139 160.38C243.805 160.3 244.403 160.34 244.933 160.499C245.463 160.654 245.892 160.92 246.222 161.296C246.551 161.669 246.75 162.146 246.82 162.727C246.92 163.564 246.682 164.246 246.106 164.772C245.534 165.294 244.693 165.621 243.584 165.754L242.542 165.879L242.941 169.212L244.404 169.297L244.445 169.638L240.374 170.125ZM242.477 165.336L243.038 165.269C243.489 165.215 243.848 165.121 244.117 164.986C244.389 164.85 244.601 164.678 244.753 164.47C244.917 164.249 245.019 164.002 245.06 163.729C245.106 163.456 245.109 163.154 245.07 162.825C245.015 162.37 244.896 161.997 244.713 161.706C244.534 161.414 244.302 161.211 244.016 161.097C243.735 160.953 243.31 160.916 242.741 160.984L241.967 161.076L242.477 165.336ZM248.338 169.172L248.3 168.849L249.19 168.539L248.608 163.675L247.666 163.448L247.64 163.235L249.697 162.395L249.874 162.374L250.023 163.623L250.079 163.672L250.64 168.365L252.03 168.403L252.068 168.726L248.338 169.172ZM250.042 164.295L249.963 163.686C250.217 163.231 250.484 162.872 250.761 162.608C251.038 162.344 251.313 162.195 251.586 162.163C251.833 162.133 252.052 162.187 252.242 162.325C252.431 162.463 252.54 162.646 252.567 162.874C252.593 163.089 252.545 163.278 252.425 163.441C252.304 163.6 252.141 163.691 251.938 163.715C251.731 163.74 251.549 163.686 251.393 163.552C251.289 163.47 251.2 163.414 251.126 163.386C251.056 163.353 250.979 163.342 250.893 163.352C250.767 163.367 250.622 163.463 250.458 163.639C250.294 163.815 250.155 164.034 250.042 164.295ZM257.04 168.26C256.378 168.34 255.781 168.263 255.251 168.029C254.723 167.792 254.294 167.439 253.962 166.972C253.629 166.501 253.426 165.954 253.351 165.333C253.277 164.707 253.345 164.128 253.558 163.596C253.77 163.063 254.105 162.622 254.561 162.27C255.021 161.914 255.583 161.697 256.245 161.617C256.907 161.538 257.5 161.618 258.023 161.856C258.549 162.09 258.979 162.44 259.311 162.907C259.647 163.374 259.852 163.92 259.927 164.546C260.002 165.167 259.931 165.747 259.715 166.283C259.503 166.816 259.168 167.26 258.712 167.615C258.26 167.966 257.702 168.181 257.04 168.26ZM256.958 167.683C257.255 167.647 257.5 167.544 257.694 167.372C257.892 167.2 258.045 166.978 258.152 166.705C258.26 166.433 258.326 166.128 258.352 165.791C258.381 165.454 258.374 165.1 258.33 164.731C258.286 164.365 258.212 164.022 258.108 163.7C258.003 163.379 257.867 163.101 257.699 162.865C257.534 162.625 257.335 162.445 257.102 162.325C256.873 162.204 256.611 162.161 256.314 162.196C256.018 162.232 255.77 162.336 255.573 162.508C255.375 162.68 255.222 162.902 255.115 163.175C255.011 163.442 254.946 163.745 254.92 164.082C254.895 164.419 254.904 164.772 254.948 165.142C254.992 165.511 255.067 165.857 255.171 166.178C255.276 166.5 255.41 166.78 255.575 167.02C255.743 167.255 255.942 167.434 256.17 167.555C256.403 167.675 256.666 167.718 256.958 167.683ZM263.934 167.435C263.443 167.494 262.983 167.407 262.555 167.174C262.132 166.94 261.775 166.595 261.486 166.139C261.2 165.679 261.02 165.142 260.947 164.529C260.866 163.854 260.931 163.245 261.142 162.7C261.352 162.152 261.682 161.704 262.131 161.358C262.584 161.007 263.127 160.794 263.761 160.718C264.216 160.663 264.672 160.689 265.13 160.795L264.819 158.199L263.84 157.97L263.815 157.763L265.95 156.907L266.127 156.886L267.202 165.863L268.106 165.984L268.127 166.16L266.128 167.172L265.988 167.189L265.878 166.269L265.821 166.257C265.605 166.592 265.337 166.861 265.015 167.065C264.693 167.264 264.332 167.387 263.934 167.435ZM264.45 166.533C264.731 166.499 264.982 166.407 265.203 166.257C265.428 166.107 265.599 165.919 265.716 165.695L265.327 162.441C265.274 162.002 265.124 161.674 264.875 161.456C264.626 161.234 264.302 161.148 263.904 161.195C263.392 161.256 263.01 161.558 262.758 162.099C262.505 162.636 262.427 163.317 262.526 164.142C262.621 164.938 262.839 165.551 263.179 165.98C263.523 166.409 263.947 166.593 264.45 166.533ZM271.429 166.538C270.812 166.612 270.334 166.514 269.997 166.246C269.664 165.972 269.462 165.541 269.391 164.952L268.889 160.759L267.963 160.66L267.925 160.343L270.277 160.061L270.786 164.315C270.851 164.856 270.991 165.214 271.205 165.39C271.424 165.562 271.734 165.624 272.136 165.576C272.405 165.543 272.658 165.441 272.897 165.268C273.135 165.091 273.334 164.839 273.493 164.511L273.565 165.12C273.308 165.518 272.995 165.842 272.625 166.092C272.254 166.338 271.856 166.487 271.429 166.538ZM273.581 166.28L273.449 165.183L273.383 165.148L272.802 160.291L271.893 160.189L271.856 159.873L274.19 159.593L274.838 165.011L275.734 165.213L275.758 165.414L273.739 166.261L273.581 166.28ZM279.624 165.557C279.051 165.626 278.525 165.551 278.046 165.332C277.57 165.109 277.177 164.77 276.867 164.317C276.557 163.864 276.365 163.324 276.29 162.698C276.21 162.032 276.278 161.424 276.492 160.875C276.707 160.326 277.04 159.876 277.493 159.525C277.949 159.17 278.492 158.955 279.122 158.879C279.565 158.826 279.969 158.85 280.336 158.95C280.702 159.051 281.001 159.208 281.233 159.424C281.464 159.635 281.598 159.887 281.633 160.18C281.66 160.411 281.619 160.6 281.509 160.745C281.402 160.885 281.241 160.968 281.025 160.994C280.786 161.023 280.605 160.974 280.483 160.849C280.364 160.719 280.274 160.536 280.213 160.3C280.128 159.935 280.015 159.679 279.874 159.531C279.732 159.383 279.515 159.327 279.223 159.362C278.678 159.427 278.282 159.713 278.034 160.221C277.789 160.724 277.714 161.376 277.81 162.176C277.907 162.981 278.139 163.577 278.507 163.966C278.879 164.354 279.363 164.513 279.961 164.441C280.363 164.393 280.712 164.277 281.007 164.093C281.302 163.906 281.555 163.63 281.767 163.267L282.069 163.41C281.905 164.035 281.616 164.532 281.202 164.898C280.792 165.261 280.266 165.48 279.624 165.557ZM285.313 164.876C284.805 164.937 284.412 164.852 284.133 164.622C283.857 164.387 283.688 164.009 283.626 163.489L283.093 159.034L282.282 159.131L282.202 158.869L284.012 156.798L284.297 156.801L284.484 158.361L286.269 158.147L286.201 158.662L284.543 158.861L285.062 163.194C285.141 163.856 285.425 164.158 285.912 164.1C286.071 164.081 286.219 164.026 286.356 163.935C286.498 163.844 286.615 163.721 286.708 163.566L286.976 163.793C286.814 164.089 286.585 164.332 286.291 164.524C286 164.716 285.674 164.833 285.313 164.876ZM292.99 163.957C292.483 164.018 292.089 163.933 291.81 163.703C291.535 163.468 291.366 163.09 291.304 162.57L290.77 158.115L289.96 158.212L289.879 157.95L291.69 155.879L291.974 155.882L292.161 157.442L293.947 157.228L293.879 157.743L292.221 157.942L292.74 162.275C292.819 162.937 293.102 163.239 293.59 163.181C293.748 163.162 293.896 163.107 294.034 163.016C294.175 162.925 294.292 162.802 294.385 162.647L294.653 162.874C294.491 163.17 294.263 163.413 293.968 163.605C293.678 163.797 293.352 163.914 292.99 163.957ZM295.085 163.577L295.047 163.254L295.937 162.943L294.936 154.581L293.989 154.361L293.963 154.148L296.069 153.302L296.252 153.28L297.387 162.769L298.289 162.865L298.328 163.188L295.085 163.577ZM299.224 163.081L299.185 162.758L300.039 162.458L299.595 158.747C299.536 158.259 299.394 157.909 299.166 157.698C298.943 157.481 298.62 157.398 298.197 157.449C297.909 157.483 297.642 157.581 297.398 157.742C297.157 157.903 296.937 158.113 296.737 158.372L296.667 157.787C296.984 157.435 297.341 157.148 297.738 156.923C298.14 156.693 298.549 156.554 298.968 156.504C300.17 156.36 300.843 156.887 300.987 158.085L301.49 162.285L302.421 162.371L302.46 162.694L299.224 163.081ZM303.039 162.625L303 162.302L303.933 161.986L303.351 157.123L302.367 156.907L302.34 156.687L304.502 155.841L304.672 155.821L305.389 161.812L306.346 161.901L306.385 162.224L303.039 162.625ZM303.797 154.757C303.521 154.79 303.293 154.729 303.113 154.573C302.934 154.417 302.831 154.228 302.804 154.004C302.775 153.761 302.83 153.544 302.968 153.354C303.109 153.16 303.316 153.047 303.588 153.014C303.865 152.981 304.094 153.042 304.278 153.197C304.461 153.349 304.567 153.546 304.596 153.79C304.623 154.013 304.567 154.222 304.43 154.416C304.292 154.609 304.081 154.723 303.797 154.757ZM311.019 161.669L310.981 161.346L311.835 161.046L311.391 157.335C311.332 156.847 311.19 156.497 310.962 156.286C310.739 156.069 310.416 155.986 309.993 156.037C309.4 156.108 308.944 156.432 308.626 157.01L308.555 156.419C308.841 156.055 309.174 155.756 309.554 155.521C309.934 155.286 310.337 155.143 310.764 155.092C311.966 154.948 312.639 155.475 312.783 156.674L313.286 160.873L314.217 160.959L314.256 161.282L311.019 161.669ZM306.985 162.152L306.946 161.829L307.83 161.519L307.25 156.668L306.301 156.436L306.276 156.228L308.326 155.383L308.509 155.362L308.636 156.422L308.698 156.476L309.281 161.346L310.189 161.441L310.227 161.764L306.985 162.152ZM314.725 161.226L314.686 160.903L315.631 160.586L314.63 152.224L313.646 152.008L313.622 151.801L315.745 150.947L315.922 150.926L317.057 160.415L318.05 160.5L318.089 160.823L314.725 161.226ZM319.826 160.615L317.211 157.775L317.968 156.56L321.165 159.923L322.195 160.004L322.233 160.327L319.826 160.615ZM316.566 158.891L316.345 158.337L318.479 155.349C318.556 155.237 318.613 155.143 318.649 155.069C318.689 154.99 318.706 154.926 318.7 154.877C318.692 154.808 318.62 154.761 318.486 154.736C318.351 154.711 318.092 154.701 317.709 154.705L317.671 154.388L320.633 154.034L320.671 154.351C320.341 154.448 320.087 154.534 319.911 154.609C319.734 154.683 319.596 154.768 319.496 154.862C319.395 154.953 319.291 155.074 319.181 155.228L316.566 158.891ZM322.203 160.331L322.164 160.008L323.097 159.692L322.515 154.829L321.531 154.613L321.504 154.393L323.666 153.547L323.836 153.527L324.553 159.518L325.51 159.607L325.549 159.93L322.203 160.331ZM322.961 152.463C322.685 152.496 322.457 152.435 322.277 152.279C322.098 152.124 321.995 151.934 321.968 151.71C321.939 151.467 321.994 151.25 322.132 151.06C322.273 150.866 322.48 150.753 322.752 150.72C323.029 150.687 323.258 150.748 323.442 150.904C323.625 151.055 323.731 151.252 323.76 151.496C323.787 151.719 323.731 151.928 323.594 152.122C323.456 152.315 323.245 152.429 322.961 152.463ZM330.183 159.375L330.145 159.052L330.999 158.752L330.555 155.041C330.496 154.553 330.354 154.204 330.126 153.992C329.903 153.775 329.58 153.692 329.157 153.743C328.564 153.814 328.108 154.139 327.79 154.716L327.719 154.125C328.005 153.761 328.338 153.462 328.718 153.227C329.098 152.992 329.501 152.849 329.928 152.798C331.13 152.654 331.803 153.181 331.947 154.38L332.45 158.579L333.381 158.665L333.42 158.988L330.183 159.375ZM326.149 159.858L326.11 159.535L326.994 159.225L326.414 154.374L325.465 154.142L325.44 153.935L327.49 153.089L327.673 153.068L327.8 154.128L327.862 154.182L328.445 159.052L329.353 159.147L329.391 159.47L326.149 159.858ZM337.545 152.343C337.593 152.127 337.664 151.907 337.756 151.681C337.848 151.452 337.973 151.254 338.13 151.086C338.291 150.915 338.493 150.814 338.737 150.785C338.948 150.76 339.134 150.797 339.294 150.898C339.458 150.993 339.552 151.141 339.576 151.34C339.596 151.506 339.557 151.66 339.458 151.799C339.363 151.938 339.227 152.018 339.048 152.04C338.926 152.054 338.829 152.039 338.758 151.994C338.687 151.949 338.622 151.903 338.562 151.857C338.503 151.81 338.423 151.793 338.321 151.805C338.199 151.82 338.106 151.901 338.041 152.049C337.976 152.193 337.938 152.354 337.926 152.533L337.545 152.343ZM336.597 156.098C336.882 156.064 337.089 155.94 337.221 155.727C337.356 155.513 337.436 155.258 337.463 154.962C337.493 154.666 337.492 154.381 337.46 154.109C337.439 153.939 337.403 153.755 337.351 153.56C337.298 153.364 337.225 153.179 337.13 153.005C337.039 152.831 336.919 152.694 336.772 152.597C336.624 152.495 336.444 152.457 336.233 152.482C336.009 152.509 335.834 152.594 335.707 152.737C335.584 152.879 335.493 153.055 335.436 153.263C335.382 153.468 335.352 153.679 335.345 153.899C335.342 154.117 335.352 154.316 335.373 154.495C335.4 154.722 335.456 154.967 335.541 155.229C335.626 155.491 335.754 155.71 335.923 155.888C336.092 156.061 336.317 156.131 336.597 156.098ZM336.657 156.548C336.215 156.601 335.895 156.689 335.7 156.811C335.504 156.929 335.416 157.078 335.438 157.257C335.456 157.407 335.574 157.516 335.792 157.585C336.01 157.65 336.424 157.693 337.032 157.715L337.922 157.763C338.65 157.791 339.2 157.921 339.569 158.153C339.939 158.381 340.15 158.72 340.204 159.171C340.251 159.557 340.185 159.901 340.006 160.202C339.828 160.504 339.571 160.764 339.234 160.981C338.902 161.198 338.521 161.373 338.092 161.507C337.667 161.641 337.231 161.734 336.784 161.787C336.451 161.827 336.12 161.836 335.792 161.813C335.464 161.795 335.162 161.738 334.887 161.644C334.613 161.553 334.384 161.417 334.202 161.237C334.024 161.057 333.918 160.824 333.884 160.54C333.844 160.211 333.933 159.899 334.149 159.605C334.37 159.315 334.766 159.014 335.339 158.703L335.78 158.823C335.518 158.978 335.325 159.184 335.199 159.443C335.073 159.701 335.026 159.964 335.058 160.232C335.092 160.517 335.204 160.74 335.392 160.903C335.581 161.07 335.817 161.182 336.1 161.239C336.387 161.295 336.689 161.304 337.006 161.266C337.371 161.223 337.724 161.139 338.064 161.016C338.404 160.893 338.677 160.732 338.884 160.535C339.095 160.336 339.185 160.103 339.153 159.835C339.135 159.689 339.071 159.562 338.959 159.456C338.847 159.35 338.651 159.26 338.37 159.187C338.09 159.117 337.688 159.066 337.165 159.034L336.143 158.965C335.532 158.923 335.075 158.808 334.773 158.622C334.474 158.431 334.306 158.181 334.269 157.872C334.249 157.702 334.279 157.527 334.361 157.348C334.446 157.165 334.61 156.989 334.854 156.82C335.097 156.65 335.449 156.507 335.909 156.39L336.657 156.548ZM336.657 156.548C336.182 156.605 335.74 156.565 335.333 156.428C334.928 156.287 334.594 156.064 334.331 155.757C334.067 155.447 333.908 155.062 333.853 154.603C333.801 154.172 333.865 153.775 334.044 153.411C334.227 153.048 334.498 152.745 334.857 152.504C335.219 152.263 335.642 152.114 336.126 152.056C336.601 151.999 337.045 152.043 337.458 152.187C337.871 152.327 338.213 152.55 338.484 152.855C338.756 153.161 338.917 153.529 338.969 153.959C339.016 154.354 338.952 154.736 338.778 155.107C338.604 155.478 338.335 155.797 337.972 156.063C337.611 156.325 337.173 156.486 336.657 156.548Z" fill="white"/>
<path d="M164.949 76.9654L169.864 134.587C170.25 139.11 174.318 142.406 178.822 141.846L361.277 119.151C368.452 118.259 370.856 109.061 365.034 104.772L252.159 21.61C249.48 19.6362 245.859 19.5269 243.066 21.3355L168.572 69.5703C166.091 71.1767 164.698 74.0203 164.949 76.9654Z" fill="#80C57B"/>
<g filter="url(#filter4_n_807_14061)" style="mix-blend-mode:multiply">
<path d="M164.949 76.9654L169.864 134.587C170.25 139.11 174.318 142.406 178.822 141.846L361.277 119.151C368.452 118.259 370.856 109.061 365.034 104.772L252.159 21.61C249.48 19.6362 245.859 19.5269 243.066 21.3355L168.572 69.5703C166.091 71.1767 164.698 74.0203 164.949 76.9654Z" fill="#80C57B"/>
</g>
<path d="M191.437 97.418V97.062L192.481 96.8287V88.6469L191.437 88.4137V88.07H194.586C195.257 88.07 195.838 88.0986 196.329 88.1559C196.82 88.2132 197.25 88.3073 197.618 88.4382C197.991 88.5651 198.326 88.7369 198.625 88.9538C199.194 89.3589 199.638 89.8909 199.957 90.5497C200.276 91.2044 200.436 91.9389 200.436 92.7532C200.436 93.5838 200.266 94.349 199.926 95.0487C199.586 95.7444 199.126 96.2947 198.545 96.6998C198.169 96.9576 197.759 97.1418 197.317 97.2522C196.876 97.3627 196.335 97.418 195.697 97.418H191.437ZM195.347 96.8778C195.891 96.8778 196.346 96.8062 196.71 96.663C197.078 96.5157 197.397 96.2825 197.667 95.9633C197.966 95.595 198.191 95.1326 198.343 94.5761C198.498 94.0155 198.576 93.3792 198.576 92.6672C198.576 91.9552 198.498 91.3394 198.343 90.8197C198.187 90.296 197.956 89.8602 197.649 89.5124C197.371 89.2014 197.031 88.9763 196.63 88.8372C196.229 88.6981 195.724 88.6285 195.114 88.6285H194.095V96.1474C194.095 96.4134 194.187 96.6016 194.371 96.7121C194.56 96.8226 194.885 96.8778 195.347 96.8778ZM203.095 97.5469C202.637 97.5469 202.268 97.4139 201.99 97.1479C201.716 96.8778 201.579 96.5218 201.579 96.0799C201.579 95.7035 201.694 95.3802 201.923 95.1101C202.156 94.836 202.524 94.6007 203.028 94.4043C203.531 94.2038 204.19 94.0299 205.004 93.8825V92.8207C205.004 92.2928 204.938 91.9286 204.808 91.7281C204.681 91.5235 204.454 91.4212 204.126 91.4212C203.799 91.4212 203.539 91.501 203.347 91.6606C203.154 91.8161 203.058 92.0289 203.058 92.299C203.058 92.3808 203.064 92.4626 203.077 92.5445C203.089 92.6263 203.095 92.7041 203.095 92.7777C203.095 92.9946 203.026 93.1746 202.886 93.3179C202.751 93.457 202.582 93.5265 202.377 93.5265C202.181 93.5265 202.021 93.4631 201.898 93.3363C201.775 93.2094 201.714 93.0437 201.714 92.8391C201.714 92.5772 201.818 92.3112 202.027 92.0412C202.24 91.767 202.524 91.5297 202.88 91.3292C203.429 91.0141 204.051 90.8566 204.746 90.8566C205.131 90.8566 205.45 90.9118 205.704 91.0223C205.957 91.1287 206.144 91.2821 206.262 91.4826C206.336 91.6258 206.387 91.81 206.416 92.035C206.448 92.256 206.465 92.6079 206.465 93.0908V95.7546C206.465 96.1392 206.498 96.4073 206.563 96.5587C206.628 96.706 206.747 96.7796 206.919 96.7796C207.115 96.7796 207.306 96.6712 207.49 96.4543L207.729 96.7244C207.508 97.0108 207.281 97.2195 207.048 97.3505C206.815 97.4814 206.549 97.5469 206.25 97.5469C205.898 97.5469 205.626 97.4609 205.434 97.2891C205.241 97.1131 205.114 96.8492 205.053 96.4973H205.016C204.758 96.8287 204.464 97.0865 204.132 97.2707C203.805 97.4548 203.459 97.5469 203.095 97.5469ZM203.875 96.6446C204.1 96.6446 204.308 96.5914 204.501 96.485C204.697 96.3745 204.865 96.2211 205.004 96.0247V94.3245C204.505 94.4227 204.114 94.5311 203.832 94.6498C203.549 94.7644 203.349 94.9076 203.23 95.0794C203.116 95.2472 203.058 95.462 203.058 95.7239C203.058 96.0226 203.126 96.2518 203.261 96.4114C203.4 96.5668 203.605 96.6446 203.875 96.6446ZM210.392 97.5469C209.881 97.5469 209.5 97.4159 209.25 97.154C209.005 96.8881 208.882 96.4932 208.882 95.9694V91.4826H208.066L208.017 91.2126L210.061 89.3712L210.343 89.408V90.9793H212.141L212.012 91.4826H210.343V95.8467C210.343 96.5137 210.588 96.8471 211.08 96.8471C211.239 96.8471 211.393 96.8103 211.54 96.7367C211.691 96.663 211.822 96.5546 211.933 96.4114L212.172 96.6691C211.976 96.9433 211.72 97.1581 211.405 97.3136C211.094 97.4691 210.756 97.5469 210.392 97.5469ZM214.316 97.5469C213.858 97.5469 213.489 97.4139 213.211 97.1479C212.937 96.8778 212.8 96.5218 212.8 96.0799C212.8 95.7035 212.914 95.3802 213.144 95.1101C213.377 94.836 213.745 94.6007 214.248 94.4043C214.752 94.2038 215.41 94.0299 216.225 93.8825V92.8207C216.225 92.2928 216.159 91.9286 216.028 91.7281C215.902 91.5235 215.674 91.4212 215.347 91.4212C215.02 91.4212 214.76 91.501 214.568 91.6606C214.375 91.8161 214.279 92.0289 214.279 92.299C214.279 92.3808 214.285 92.4626 214.297 92.5445C214.31 92.6263 214.316 92.7041 214.316 92.7777C214.316 92.9946 214.246 93.1746 214.107 93.3179C213.972 93.457 213.802 93.5265 213.598 93.5265C213.401 93.5265 213.242 93.4631 213.119 93.3363C212.996 93.2094 212.935 93.0437 212.935 92.8391C212.935 92.5772 213.039 92.3112 213.248 92.0412C213.461 91.767 213.745 91.5297 214.101 91.3292C214.649 91.0141 215.271 90.8566 215.967 90.8566C216.352 90.8566 216.671 90.9118 216.925 91.0223C217.178 91.1287 217.364 91.2821 217.483 91.4826C217.557 91.6258 217.608 91.81 217.636 92.035C217.669 92.256 217.686 92.6079 217.686 93.0908V95.7546C217.686 96.1392 217.718 96.4073 217.784 96.5587C217.849 96.706 217.968 96.7796 218.14 96.7796C218.336 96.7796 218.526 96.6712 218.711 96.4543L218.95 96.7244C218.729 97.0108 218.502 97.2195 218.269 97.3505C218.035 97.4814 217.769 97.5469 217.471 97.5469C217.119 97.5469 216.847 97.4609 216.654 97.2891C216.462 97.1131 216.335 96.8492 216.274 96.4973H216.237C215.979 96.8287 215.685 97.0865 215.353 97.2707C215.026 97.4548 214.68 97.5469 214.316 97.5469ZM215.095 96.6446C215.32 96.6446 215.529 96.5914 215.721 96.485C215.918 96.3745 216.086 96.2211 216.225 96.0247V94.3245C215.726 94.4227 215.335 94.5311 215.052 94.6498C214.77 94.7644 214.57 94.9076 214.451 95.0794C214.336 95.2472 214.279 95.462 214.279 95.7239C214.279 96.0226 214.347 96.2518 214.482 96.4114C214.621 96.5668 214.825 96.6446 215.095 96.6446ZM224.752 97.5469L222.426 91.8202C222.353 91.632 222.26 91.5051 222.15 91.4397C222.044 91.3701 221.833 91.323 221.518 91.2985V90.9793H224.992V91.2985C224.644 91.319 224.409 91.3558 224.286 91.409C224.167 91.4581 224.108 91.5358 224.108 91.6422C224.108 91.7241 224.13 91.8284 224.175 91.9552L225.556 95.6687H225.606L226.864 92.2192C226.938 92.0105 226.974 91.8509 226.974 91.7404C226.974 91.6177 226.917 91.5276 226.802 91.4704C226.692 91.409 226.463 91.3517 226.115 91.2985V90.9793H228.742V91.2985C228.439 91.3476 228.208 91.4049 228.048 91.4704C227.889 91.5358 227.768 91.6279 227.686 91.7466C227.604 91.8611 227.523 92.0228 227.441 92.2315L225.464 97.5469H224.752ZM228.907 97.418V97.0927L229.871 96.8901V91.9921L228.919 91.6606V91.4397L231.166 90.8566H231.338V96.8901L232.277 97.0927V97.418H228.907ZM230.595 89.6965C230.317 89.6965 230.098 89.6085 229.938 89.4326C229.779 89.2566 229.699 89.0561 229.699 88.8311C229.699 88.5855 229.779 88.3769 229.938 88.205C230.102 88.029 230.321 87.9411 230.595 87.9411C230.873 87.9411 231.094 88.029 231.258 88.205C231.422 88.3769 231.504 88.5855 231.504 88.8311C231.504 89.0561 231.424 89.2566 231.264 89.4326C231.105 89.6085 230.882 89.6965 230.595 89.6965ZM235.024 97.5469C234.746 97.5469 234.443 97.5223 234.115 97.4732C233.788 97.4241 233.504 97.3586 233.262 97.2768L233.182 95.3065H233.569C233.618 95.8876 233.768 96.3275 234.017 96.6262C234.271 96.9249 234.621 97.0742 235.067 97.0742C235.41 97.0742 235.685 96.9822 235.889 96.798C236.094 96.6098 236.196 96.3643 236.196 96.0615C236.196 95.8119 236.118 95.5971 235.963 95.417C235.811 95.2329 235.546 95.0426 235.165 94.8462L234.631 94.5761C234.119 94.3183 233.751 94.0421 233.526 93.7475C233.301 93.4488 233.189 93.0928 233.189 92.6795C233.189 92.0903 233.397 91.6402 233.815 91.3292C234.232 91.0141 234.834 90.8566 235.619 90.8566C235.914 90.8566 236.198 90.877 236.472 90.9179C236.747 90.9548 236.963 91.0059 237.123 91.0714V92.7532H236.779C236.661 91.7998 236.217 91.323 235.447 91.323C235.145 91.323 234.901 91.4028 234.717 91.5624C234.533 91.722 234.441 91.9348 234.441 92.2008C234.441 92.434 234.52 92.6366 234.68 92.8084C234.844 92.9762 235.12 93.1542 235.509 93.3424L236.073 93.6248C236.548 93.8621 236.892 94.1281 237.105 94.4227C237.321 94.7173 237.43 95.0835 237.43 95.5214C237.43 96.1474 237.215 96.6425 236.785 97.0067C236.36 97.3668 235.773 97.5469 235.024 97.5469ZM240.969 97.5469C240.347 97.5469 239.885 97.3934 239.582 97.0865C239.283 96.7755 239.134 96.3234 239.134 95.73V91.5072L238.225 91.2985V90.9793H240.595V95.2636C240.595 95.8078 240.691 96.1802 240.883 96.3807C241.08 96.5771 241.38 96.6753 241.785 96.6753C242.056 96.6753 242.319 96.6037 242.577 96.4605C242.835 96.3131 243.062 96.086 243.259 95.7792V96.3929C242.956 96.7571 242.606 97.0415 242.209 97.2461C241.812 97.4466 241.399 97.5469 240.969 97.5469ZM243.136 97.5469V96.442L243.074 96.3991V91.5072L242.184 91.2985V90.9793H244.535V96.4359L245.401 96.7428V96.9454L243.295 97.5469H243.136ZM247.799 97.5469C247.34 97.5469 246.972 97.4139 246.694 97.1479C246.42 96.8778 246.283 96.5218 246.283 96.0799C246.283 95.7035 246.397 95.3802 246.626 95.1101C246.859 94.836 247.228 94.6007 247.731 94.4043C248.234 94.2038 248.893 94.0299 249.707 93.8825V92.8207C249.707 92.2928 249.642 91.9286 249.511 91.7281C249.384 91.5235 249.157 91.4212 248.83 91.4212C248.502 91.4212 248.243 91.501 248.05 91.6606C247.858 91.8161 247.762 92.0289 247.762 92.299C247.762 92.3808 247.768 92.4626 247.78 92.5445C247.792 92.6263 247.799 92.7041 247.799 92.7777C247.799 92.9946 247.729 93.1746 247.59 93.3179C247.455 93.457 247.285 93.5265 247.08 93.5265C246.884 93.5265 246.724 93.4631 246.602 93.3363C246.479 93.2094 246.418 93.0437 246.418 92.8391C246.418 92.5772 246.522 92.3112 246.731 92.0412C246.943 91.767 247.228 91.5297 247.584 91.3292C248.132 91.0141 248.754 90.8566 249.45 90.8566C249.834 90.8566 250.153 90.9118 250.407 91.0223C250.661 91.1287 250.847 91.2821 250.966 91.4826C251.039 91.6258 251.091 91.81 251.119 92.035C251.152 92.256 251.168 92.6079 251.168 93.0908V95.7546C251.168 96.1392 251.201 96.4073 251.266 96.5587C251.332 96.706 251.451 96.7796 251.622 96.7796C251.819 96.7796 252.009 96.6712 252.193 96.4543L252.433 96.7244C252.212 97.0108 251.985 97.2195 251.751 97.3505C251.518 97.4814 251.252 97.5469 250.953 97.5469C250.602 97.5469 250.329 97.4609 250.137 97.2891C249.945 97.1131 249.818 96.8492 249.757 96.4973H249.72C249.462 96.8287 249.167 97.0865 248.836 97.2707C248.509 97.4548 248.163 97.5469 247.799 97.5469ZM248.578 96.6446C248.803 96.6446 249.012 96.5914 249.204 96.485C249.401 96.3745 249.568 96.2211 249.707 96.0247V94.3245C249.208 94.4227 248.817 94.5311 248.535 94.6498C248.253 94.7644 248.052 94.9076 247.934 95.0794C247.819 95.2472 247.762 95.462 247.762 95.7239C247.762 96.0226 247.829 96.2518 247.964 96.4114C248.103 96.5668 248.308 96.6446 248.578 96.6446ZM252.677 97.418V97.0927L253.647 96.8901V88.4628L252.69 88.1375V87.9104L254.936 87.3334H255.108V96.8901L256.047 97.0927V97.418H252.677ZM256.648 97.418V97.0927L257.611 96.8901V91.9921L256.66 91.6606V91.4397L258.906 90.8566H259.078V96.8901L260.017 97.0927V97.418H256.648ZM258.336 89.6965C258.057 89.6965 257.838 89.6085 257.679 89.4326C257.519 89.2566 257.439 89.0561 257.439 88.8311C257.439 88.5855 257.519 88.3769 257.679 88.205C257.842 88.029 258.061 87.9411 258.336 87.9411C258.614 87.9411 258.835 88.029 258.998 88.205C259.162 88.3769 259.244 88.5855 259.244 88.8311C259.244 89.0561 259.164 89.2566 259.005 89.4326C258.845 89.6085 258.622 89.6965 258.336 89.6965ZM260.696 97.418V97.0558L264.421 91.4458H261.979C261.766 91.9778 261.608 92.389 261.506 92.6795C261.408 92.97 261.336 93.2094 261.291 93.3976L260.947 93.367L261.125 90.9793H266.275V91.3353L262.531 96.9515H265.158C265.309 96.6078 265.444 96.2661 265.563 95.9265C265.686 95.5827 265.774 95.2963 265.827 95.0672L266.171 95.0917L266.066 97.418H260.696ZM268.85 97.5469C268.391 97.5469 268.023 97.4139 267.745 97.1479C267.471 96.8778 267.334 96.5218 267.334 96.0799C267.334 95.7035 267.448 95.3802 267.677 95.1101C267.911 94.836 268.279 94.6007 268.782 94.4043C269.285 94.2038 269.944 94.0299 270.759 93.8825V92.8207C270.759 92.2928 270.693 91.9286 270.562 91.7281C270.435 91.5235 270.208 91.4212 269.881 91.4212C269.553 91.4212 269.294 91.501 269.101 91.6606C268.909 91.8161 268.813 92.0289 268.813 92.299C268.813 92.3808 268.819 92.4626 268.831 92.5445C268.843 92.6263 268.85 92.7041 268.85 92.7777C268.85 92.9946 268.78 93.1746 268.641 93.3179C268.506 93.457 268.336 93.5265 268.131 93.5265C267.935 93.5265 267.775 93.4631 267.653 93.3363C267.53 93.2094 267.469 93.0437 267.469 92.8391C267.469 92.5772 267.573 92.3112 267.782 92.0412C267.994 91.767 268.279 91.5297 268.635 91.3292C269.183 91.0141 269.805 90.8566 270.501 90.8566C270.885 90.8566 271.205 90.9118 271.458 91.0223C271.712 91.1287 271.898 91.2821 272.017 91.4826C272.09 91.6258 272.142 91.81 272.17 92.035C272.203 92.256 272.219 92.6079 272.219 93.0908V95.7546C272.219 96.1392 272.252 96.4073 272.318 96.5587C272.383 96.706 272.502 96.7796 272.674 96.7796C272.87 96.7796 273.06 96.6712 273.244 96.4543L273.484 96.7244C273.263 97.0108 273.036 97.2195 272.802 97.3505C272.569 97.4814 272.303 97.5469 272.004 97.5469C271.653 97.5469 271.38 97.4609 271.188 97.2891C270.996 97.1131 270.869 96.8492 270.808 96.4973H270.771C270.513 96.8287 270.218 97.0865 269.887 97.2707C269.56 97.4548 269.214 97.5469 268.85 97.5469ZM269.629 96.6446C269.854 96.6446 270.063 96.5914 270.255 96.485C270.452 96.3745 270.619 96.2211 270.759 96.0247V94.3245C270.259 94.4227 269.869 94.5311 269.586 94.6498C269.304 94.7644 269.103 94.9076 268.985 95.0794C268.87 95.2472 268.813 95.462 268.813 95.7239C268.813 96.0226 268.88 96.2518 269.015 96.4114C269.154 96.5668 269.359 96.6446 269.629 96.6446ZM276.147 97.5469C275.635 97.5469 275.255 97.4159 275.005 97.154C274.759 96.8881 274.637 96.4932 274.637 95.9694V91.4826H273.82L273.771 91.2126L275.815 89.3712L276.098 89.408V90.9793H277.896L277.767 91.4826H276.098V95.8467C276.098 96.5137 276.343 96.8471 276.834 96.8471C276.994 96.8471 277.147 96.8103 277.294 96.7367C277.446 96.663 277.577 96.5546 277.687 96.4114L277.927 96.6691C277.73 96.9433 277.474 97.1581 277.159 97.3136C276.848 97.4691 276.511 97.5469 276.147 97.5469ZM278.358 97.418V97.0927L279.322 96.8901V91.9921L278.37 91.6606V91.4397L280.617 90.8566H280.789V96.8901L281.728 97.0927V97.418H278.358ZM280.046 89.6965C279.768 89.6965 279.549 89.6085 279.389 89.4326C279.23 89.2566 279.15 89.0561 279.15 88.8311C279.15 88.5855 279.23 88.3769 279.389 88.205C279.553 88.029 279.772 87.9411 280.046 87.9411C280.324 87.9411 280.545 88.029 280.709 88.205C280.872 88.3769 280.954 88.5855 280.954 88.8311C280.954 89.0561 280.875 89.2566 280.715 89.4326C280.555 89.6085 280.332 89.6965 280.046 89.6965ZM285.782 97.5469C285.115 97.5469 284.532 97.3996 284.033 97.1049C283.538 96.8062 283.153 96.4052 282.879 95.9019C282.605 95.3945 282.467 94.8278 282.467 94.2017C282.467 93.5716 282.605 93.0048 282.879 92.5015C283.153 91.9982 283.538 91.5992 284.033 91.3046C284.532 91.0059 285.115 90.8566 285.782 90.8566C286.449 90.8566 287.028 91.0059 287.519 91.3046C288.014 91.5992 288.399 91.9982 288.673 92.5015C288.951 93.0048 289.09 93.5716 289.09 94.2017C289.09 94.8278 288.951 95.3945 288.673 95.9019C288.399 96.4052 288.014 96.8062 287.519 97.1049C287.028 97.3996 286.449 97.5469 285.782 97.5469ZM285.77 96.9638C286.068 96.9638 286.324 96.8901 286.537 96.7428C286.754 96.5955 286.932 96.3929 287.071 96.1351C287.21 95.8774 287.312 95.5827 287.378 95.2513C287.447 94.9198 287.482 94.5679 287.482 94.1956C287.482 93.8273 287.449 93.4774 287.384 93.146C287.318 92.8146 287.216 92.522 287.077 92.2683C286.942 92.0105 286.766 91.8079 286.549 91.6606C286.336 91.5133 286.081 91.4397 285.782 91.4397C285.483 91.4397 285.225 91.5133 285.009 91.6606C284.792 91.8079 284.614 92.0105 284.475 92.2683C284.34 92.522 284.239 92.8146 284.174 93.146C284.108 93.4774 284.076 93.8293 284.076 94.2017C284.076 94.5741 284.108 94.926 284.174 95.2574C284.239 95.5889 284.34 95.8835 284.475 96.1413C284.614 96.395 284.79 96.5955 285.002 96.7428C285.219 96.8901 285.475 96.9638 285.77 96.9638ZM294.008 97.418V97.0927L294.892 96.8962V93.1583C294.892 92.6672 294.792 92.3031 294.591 92.0657C294.395 91.8243 294.084 91.7036 293.658 91.7036C293.061 91.7036 292.57 91.9716 292.185 92.5077V91.9123C292.513 91.5849 292.879 91.3271 293.284 91.1389C293.689 90.9507 294.106 90.8566 294.536 90.8566C295.747 90.8566 296.353 91.4601 296.353 92.6672V96.8962L297.267 97.0927V97.418H294.008ZM289.945 97.418V97.0927L290.859 96.8901V92.0043L289.945 91.6606V91.4519L292.081 90.8566H292.265V91.9246L292.32 91.9859V96.8901L293.21 97.0927V97.418H289.945ZM300.011 97.5469C299.733 97.5469 299.43 97.5223 299.103 97.4732C298.775 97.4241 298.491 97.3586 298.25 97.2768L298.17 95.3065H298.556C298.606 95.8876 298.755 96.3275 299.005 96.6262C299.258 96.9249 299.608 97.0742 300.054 97.0742C300.398 97.0742 300.672 96.9822 300.877 96.798C301.081 96.6098 301.183 96.3643 301.183 96.0615C301.183 95.8119 301.106 95.5971 300.95 95.417C300.799 95.2329 300.533 95.0426 300.152 94.8462L299.618 94.5761C299.107 94.3183 298.739 94.0421 298.513 93.7475C298.288 93.4488 298.176 93.0928 298.176 92.6795C298.176 92.0903 298.385 91.6402 298.802 91.3292C299.219 91.0141 299.821 90.8566 300.607 90.8566C300.901 90.8566 301.186 90.877 301.46 90.9179C301.734 90.9548 301.951 91.0059 302.11 91.0714V92.7532H301.767C301.648 91.7998 301.204 91.323 300.435 91.323C300.132 91.323 299.888 91.4028 299.704 91.5624C299.52 91.722 299.428 91.9348 299.428 92.2008C299.428 92.434 299.508 92.6366 299.667 92.8084C299.831 92.9762 300.107 93.1542 300.496 93.3424L301.061 93.6248C301.535 93.8621 301.879 94.1281 302.092 94.4227C302.309 94.7173 302.417 95.0835 302.417 95.5214C302.417 96.1474 302.202 96.6425 301.773 97.0067C301.347 97.3668 300.76 97.5469 300.011 97.5469Z" fill="white"/>
<path d="M156.819 137.042L153.868 82.5218C153.665 78.7854 150.9 75.6884 147.21 75.0657L29.3095 55.1699C24.5934 54.3741 20.2374 57.8668 19.9892 62.6432L15.8745 141.81C15.5797 147.481 21.1238 151.646 26.4888 149.782L91.5859 127.169C93.3194 126.567 95.2073 126.579 96.933 127.204L146.109 144.998C151.497 146.947 157.129 142.765 156.819 137.042Z" fill="#307436"/>
<g filter="url(#filter5_n_807_14061)" style="mix-blend-mode:multiply">
<path d="M156.819 137.042L153.868 82.5218C153.665 78.7854 150.9 75.6884 147.21 75.0657L29.3095 55.1699C24.5934 54.3741 20.2374 57.8668 19.9892 62.6432L15.8745 141.81C15.5797 147.481 21.1238 151.646 26.4888 149.782L91.5859 127.169C93.3194 126.567 95.2073 126.579 96.933 127.204L146.109 144.998C151.497 146.947 157.129 142.765 156.819 137.042Z" fill="#307436"/>
</g>
<path d="M67.3506 100.105C66.6796 100.105 66.0842 100.001 65.5645 99.7924C65.0448 99.5796 64.6397 99.283 64.3492 98.9024C64.1774 98.6815 64.0505 98.4216 63.9687 98.1229C63.8909 97.8201 63.852 97.415 63.852 96.9076V91.2055L62.7841 90.9723V90.6286H66.565V90.9723L65.4847 91.2055V97.0058C65.4847 97.8037 65.6811 98.4134 66.074 98.8349C66.4668 99.2523 67.0028 99.461 67.6821 99.461C68.525 99.461 69.1306 99.2093 69.4989 98.706C69.6749 98.4728 69.8017 98.1536 69.8795 97.7485C69.9572 97.3393 69.9961 96.7992 69.9961 96.1281V91.2055L68.9158 90.9723V90.6286H71.7147V90.9723L70.6283 91.2055V96.7173C70.6283 97.2084 70.5853 97.6339 70.4994 97.994C70.4175 98.3541 70.2927 98.6651 70.125 98.927C69.8713 99.3075 69.5071 99.6001 69.0324 99.8047C68.5619 100.005 68.0013 100.105 67.3506 100.105ZM71.9498 99.9766V99.6451C72.445 99.5837 72.8255 99.4937 73.0915 99.375C73.3575 99.2523 73.5887 99.0559 73.7851 98.7858L76.2709 95.4284L73.6807 91.494C73.6071 91.3876 73.5232 91.3037 73.4291 91.2423C73.3391 91.181 73.2061 91.1298 73.0301 91.0889C72.8542 91.048 72.6045 91.0091 72.2813 90.9723V90.6286H76.541V90.9723C76.0459 91.0009 75.7512 91.0541 75.6571 91.1319C75.563 91.2055 75.5957 91.3712 75.7553 91.629L77.4739 94.2376L79.2417 91.85C79.4381 91.5717 79.481 91.3692 79.3706 91.2423C79.2601 91.1155 78.9655 91.0255 78.4867 90.9723V90.6286H81.6661V90.9723C81.351 91.0296 81.0973 91.0889 80.905 91.1503C80.7127 91.2117 80.549 91.2935 80.414 91.3958C80.2831 91.4981 80.146 91.6372 80.0028 91.8132L77.8054 94.7471L80.6963 99.1111C80.815 99.2912 80.9684 99.416 81.1567 99.4855C81.349 99.551 81.6313 99.6001 82.0037 99.6328V99.9766H77.7686V99.6328C78.1368 99.6124 78.3967 99.5796 78.5481 99.5346C78.6995 99.4855 78.7731 99.416 78.769 99.3259C78.769 99.2359 78.722 99.1193 78.6279 98.9761L76.6883 96.0176L74.5462 98.7674C74.3334 99.0456 74.2863 99.2482 74.405 99.375C74.5278 99.4978 74.8469 99.5878 75.3625 99.6451V99.9766H71.9498ZM90.0258 100.105C89.1256 100.105 88.3338 99.905 87.6505 99.5039C86.9671 99.1029 86.4331 98.5464 86.0485 97.8344C85.6679 97.1224 85.4777 96.2979 85.4777 95.3609C85.4777 94.6489 85.5881 93.9962 85.8091 93.4029C86.0342 92.8096 86.3513 92.296 86.7605 91.8623C87.1697 91.4285 87.6546 91.093 88.2152 90.8557C88.7758 90.6183 89.3916 90.4997 90.0627 90.4997C90.5537 90.4997 91.0345 90.5651 91.5051 90.6961C91.9797 90.8229 92.4053 91.0071 92.7817 91.2485H92.8309L93.4017 90.6286H93.684V93.4949H93.2237C93.15 93.274 93.0702 93.0735 92.9843 92.8934C92.8984 92.7093 92.8083 92.5415 92.7142 92.3901C92.4278 91.94 92.0902 91.6147 91.7015 91.4142C91.3127 91.2137 90.8545 91.1134 90.3266 91.1134C89.3568 91.1134 88.6141 91.4674 88.0985 92.1753C87.583 92.8832 87.3252 93.9103 87.3252 95.2565C87.3252 96.6069 87.583 97.6483 88.0985 98.3807C88.6182 99.1091 89.3568 99.4733 90.3143 99.4733C90.8053 99.4733 91.2473 99.373 91.6401 99.1725C92.037 98.9679 92.3685 98.6733 92.6344 98.2886C92.7817 98.08 92.9086 97.8447 93.015 97.5828C93.1255 97.3168 93.2073 97.0263 93.2605 96.7112H93.684V99.9766H93.3219L92.7879 99.1786C92.3419 99.5019 91.8979 99.7372 91.456 99.8845C91.014 100.032 90.5373 100.105 90.0258 100.105ZM98.2657 100.105C97.5987 100.105 97.0156 99.9581 96.5164 99.6635C96.0212 99.3648 95.6366 98.9638 95.3624 98.4605C95.0883 97.9531 94.9512 97.3864 94.9512 96.7603C94.9512 96.1302 95.0883 95.5634 95.3624 95.0601C95.6366 94.5568 96.0212 94.1578 96.5164 93.8632C97.0156 93.5645 97.5987 93.4152 98.2657 93.4152C98.9326 93.4152 99.5117 93.5645 100.003 93.8632C100.498 94.1578 100.882 94.5568 101.157 95.0601C101.435 95.5634 101.574 96.1302 101.574 96.7603C101.574 97.3864 101.435 97.9531 101.157 98.4605C100.882 98.9638 100.498 99.3648 100.003 99.6635C99.5117 99.9581 98.9326 100.105 98.2657 100.105ZM98.2534 99.5224C98.5521 99.5224 98.8078 99.4487 99.0206 99.3014C99.2375 99.1541 99.4155 98.9515 99.5546 98.6937C99.6937 98.436 99.796 98.1413 99.8615 97.8099C99.9311 97.4784 99.9659 97.1265 99.9659 96.7542C99.9659 96.3859 99.9331 96.036 99.8677 95.7046C99.8022 95.3731 99.6999 95.0806 99.5608 94.8269C99.4257 94.5691 99.2498 94.3665 99.0329 94.2192C98.8201 94.0719 98.5644 93.9983 98.2657 93.9983C97.967 93.9983 97.7092 94.0719 97.4923 94.2192C97.2754 94.3665 97.0974 94.5691 96.9583 94.8269C96.8233 95.0806 96.723 95.3731 96.6575 95.7046C96.5921 96.036 96.5593 96.3879 96.5593 96.7603C96.5593 97.1327 96.5921 97.4846 96.6575 97.816C96.723 98.1475 96.8233 98.4421 96.9583 98.6999C97.0974 98.9536 97.2734 99.1541 97.4862 99.3014C97.703 99.4487 97.9588 99.5224 98.2534 99.5224ZM102.275 103.015V102.757L103.251 102.518V94.5507L102.306 94.2192V93.9983L104.448 93.4152H104.644V94.4156H104.693C104.935 94.0801 105.236 93.8305 105.596 93.6668C105.956 93.499 106.324 93.4152 106.701 93.4152C107.22 93.4152 107.676 93.5543 108.069 93.8325C108.462 94.1108 108.771 94.4934 108.996 94.9803C109.221 95.4632 109.334 96.0156 109.334 96.6375C109.334 97.325 109.188 97.9306 108.898 98.4544C108.607 98.974 108.204 99.3791 107.689 99.6697C107.173 99.9602 106.57 100.105 105.878 100.105C105.673 100.105 105.475 100.089 105.283 100.056C105.094 100.028 104.906 99.9807 104.718 99.9152V102.518L106.093 102.757V103.015H102.275ZM105.921 99.6144C106.281 99.6144 106.596 99.4978 106.866 99.2646C107.14 99.0272 107.353 98.6999 107.505 98.2825C107.656 97.8651 107.732 97.3843 107.732 96.8401C107.732 96.0463 107.578 95.4202 107.271 94.9619C106.969 94.5036 106.555 94.2745 106.032 94.2745C105.782 94.2745 105.53 94.342 105.277 94.477C105.027 94.612 104.851 94.7798 104.749 94.9803V98.3562C104.749 98.7162 104.861 99.017 105.086 99.2584C105.315 99.4958 105.594 99.6144 105.921 99.6144ZM111.148 103.138C110.804 103.138 110.52 103.056 110.295 102.892C110.074 102.732 109.963 102.512 109.963 102.229C109.963 102.016 110.031 101.847 110.166 101.72C110.305 101.597 110.479 101.536 110.688 101.536C110.859 101.536 110.998 101.581 111.105 101.671C111.215 101.765 111.295 101.914 111.344 102.119C111.381 102.286 111.42 102.395 111.461 102.444C111.502 102.497 111.569 102.524 111.663 102.524C111.798 102.524 111.927 102.448 112.05 102.297C112.173 102.149 112.287 101.918 112.394 101.603L112.885 100.173L110.424 94.3481C110.35 94.1926 110.246 94.0801 110.111 94.0105C109.98 93.9369 109.781 93.8857 109.515 93.8571V93.5379H112.928V93.8571C112.654 93.8775 112.451 93.9062 112.32 93.943C112.193 93.9758 112.122 94.033 112.105 94.1149C112.089 94.1926 112.109 94.3092 112.167 94.4647L113.621 98.0922H113.683L114.855 94.8146C114.982 94.4954 114.98 94.2622 114.849 94.1149C114.718 93.9676 114.436 93.8816 114.002 93.8571V93.5379H116.813V93.8571C116.51 93.9103 116.275 93.9717 116.107 94.0412C115.939 94.1067 115.811 94.2008 115.721 94.3236C115.631 94.4422 115.545 94.61 115.463 94.8269L112.916 101.689C112.821 101.951 112.717 102.168 112.603 102.34C112.492 102.516 112.375 102.657 112.253 102.763C111.979 103.013 111.61 103.138 111.148 103.138Z" fill="white"/>
<path d="M238.931 3.95613L152.49 60.1517C150.311 61.5685 147.674 62.1025 145.115 61.6452L23.6125 39.933C17.54 38.8478 11.8956 43.3439 11.5953 49.5053L2.01229 246.119C1.81564 250.153 4.01152 253.926 7.61687 255.747L230.541 368.376C233.761 370.003 237.6 369.813 240.644 367.877L387.949 274.19C390.901 272.312 392.689 269.056 392.689 265.558V119.098C392.689 115.93 391.221 112.94 388.713 111.003L250.761 4.4372C247.32 1.77957 242.576 1.58663 238.931 3.95613Z" stroke="#EDFFFA" stroke-width="4" stroke-linecap="round" stroke-dasharray="11.25 11.25"/>
<defs>
<filter id="filter0_n_807_14061" x="118.943" y="168.883" width="186.482" height="187.199" filterUnits="userSpaceOnUse" color-interpolation-filters="sRGB">
<feFlood flood-opacity="0" result="BackgroundImageFix"/>
<feBlend mode="normal" in="SourceGraphic" in2="BackgroundImageFix" result="shape"/>
<feTurbulence type="fractalNoise" baseFrequency="3.0060174465179443 3.0060174465179443" stitchTiles="stitch" numOctaves="3" result="noise" seed="794" />
<feColorMatrix in="noise" type="luminanceToAlpha" result="alphaNoise" />
<feComponentTransfer in="alphaNoise" result="coloredNoise1">
<feFuncA type="discrete" tableValues="1 1 1 1 1 1 1 1 1 1 1 1 1 1 1 1 1 1 1 1 1 1 1 1 1 1 1 1 1 1 1 1 1 1 1 1 1 1 1 1 1 1 1 1 1 1 1 1 1 1 1 0 0 0 0 0 0 0 0 0 0 0 0 0 0 0 0 0 0 0 0 0 0 0 0 0 0 0 0 0 0 0 0 0 0 0 0 0 0 0 0 0 0 0 0 0 0 0 0 0 "/>
</feComponentTransfer>
<feComposite operator="in" in2="shape" in="coloredNoise1" result="noise1Clipped" />
<feFlood flood-color="rgba(255, 255, 255, 0.25)" result="color1Flood" />
<feComposite operator="in" in2="noise1Clipped" in="color1Flood" result="color1" />
<feMerge result="effect1_noise_807_14061">
<feMergeNode in="shape" />
<feMergeNode in="color1" />
</feMerge>
</filter>
<filter id="filter1_n_807_14061" x="10.9219" y="138.984" width="138.652" height="171.943" filterUnits="userSpaceOnUse" color-interpolation-filters="sRGB">
<feFlood flood-opacity="0" result="BackgroundImageFix"/>
<feBlend mode="normal" in="SourceGraphic" in2="BackgroundImageFix" result="shape"/>
<feTurbulence type="fractalNoise" baseFrequency="3.0060174465179443 3.0060174465179443" stitchTiles="stitch" numOctaves="3" result="noise" seed="794" />
<feColorMatrix in="noise" type="luminanceToAlpha" result="alphaNoise" />
<feComponentTransfer in="alphaNoise" result="coloredNoise1">
<feFuncA type="discrete" tableValues="1 1 1 1 1 1 1 1 1 1 1 1 1 1 1 1 1 1 1 1 1 1 1 1 1 1 1 1 1 1 1 1 1 1 1 1 1 1 1 1 1 1 1 1 1 1 1 1 1 1 1 0 0 0 0 0 0 0 0 0 0 0 0 0 0 0 0 0 0 0 0 0 0 0 0 0 0 0 0 0 0 0 0 0 0 0 0 0 0 0 0 0 0 0 0 0 0 0 0 0 "/>
</feComponentTransfer>
<feComposite operator="in" in2="shape" in="coloredNoise1" result="noise1Clipped" />
<feFlood flood-color="rgba(255, 255, 255, 0.25)" result="color1Flood" />
<feComposite operator="in" in2="noise1Clipped" in="color1Flood" result="color1" />
<feMerge result="effect1_noise_807_14061">
<feMergeNode in="shape" />
<feMergeNode in="color1" />
</feMerge>
</filter>
<filter id="filter2_n_807_14061" x="241.896" y="185.586" width="140.542" height="124.508" filterUnits="userSpaceOnUse" color-interpolation-filters="sRGB">
<feFlood flood-opacity="0" result="BackgroundImageFix"/>
<feBlend mode="normal" in="SourceGraphic" in2="BackgroundImageFix" result="shape"/>
<feTurbulence type="fractalNoise" baseFrequency="3.0060174465179443 3.0060174465179443" stitchTiles="stitch" numOctaves="3" result="noise" seed="794" />
<feColorMatrix in="noise" type="luminanceToAlpha" result="alphaNoise" />
<feComponentTransfer in="alphaNoise" result="coloredNoise1">
<feFuncA type="discrete" tableValues="1 1 1 1 1 1 1 1 1 1 1 1 1 1 1 1 1 1 1 1 1 1 1 1 1 1 1 1 1 1 1 1 1 1 1 1 1 1 1 1 1 1 1 1 1 1 1 1 1 1 1 0 0 0 0 0 0 0 0 0 0 0 0 0 0 0 0 0 0 0 0 0 0 0 0 0 0 0 0 0 0 0 0 0 0 0 0 0 0 0 0 0 0 0 0 0 0 0 0 0 "/>
</feComponentTransfer>
<feComposite operator="in" in2="shape" in="coloredNoise1" result="noise1Clipped" />
<feFlood flood-color="rgba(255, 255, 255, 0.25)" result="color1Flood" />
<feComposite operator="in" in2="noise1Clipped" in="color1Flood" result="color1" />
<feMerge result="effect1_noise_807_14061">
<feMergeNode in="shape" />
<feMergeNode in="color1" />
</feMerge>
</filter>
<filter id="filter3_n_807_14061" x="177.226" y="125.035" width="198.964" height="94.416" filterUnits="userSpaceOnUse" color-interpolation-filters="sRGB">
<feFlood flood-opacity="0" result="BackgroundImageFix"/>
<feBlend mode="normal" in="SourceGraphic" in2="BackgroundImageFix" result="shape"/>
<feTurbulence type="fractalNoise" baseFrequency="3.0060174465179443 3.0060174465179443" stitchTiles="stitch" numOctaves="3" result="noise" seed="794" />
<feColorMatrix in="noise" type="luminanceToAlpha" result="alphaNoise" />
<feComponentTransfer in="alphaNoise" result="coloredNoise1">
<feFuncA type="discrete" tableValues="1 1 1 1 1 1 1 1 1 1 1 1 1 1 1 1 1 1 1 1 1 1 1 1 1 1 1 1 1 1 1 1 1 1 1 1 1 1 1 1 1 1 1 1 1 1 1 1 1 1 1 0 0 0 0 0 0 0 0 0 0 0 0 0 0 0 0 0 0 0 0 0 0 0 0 0 0 0 0 0 0 0 0 0 0 0 0 0 0 0 0 0 0 0 0 0 0 0 0 0 "/>
</feComponentTransfer>
<feComposite operator="in" in2="shape" in="coloredNoise1" result="noise1Clipped" />
<feFlood flood-color="rgba(255, 255, 255, 0.25)" result="color1Flood" />
<feComposite operator="in" in2="noise1Clipped" in="color1Flood" result="color1" />
<feMerge result="effect1_noise_807_14061">
<feMergeNode in="shape" />
<feMergeNode in="color1" />
</feMerge>
</filter>
<filter id="filter4_n_807_14061" x="164.92" y="20.0508" width="203.377" height="121.857" filterUnits="userSpaceOnUse" color-interpolation-filters="sRGB">
<feFlood flood-opacity="0" result="BackgroundImageFix"/>
<feBlend mode="normal" in="SourceGraphic" in2="BackgroundImageFix" result="shape"/>
<feTurbulence type="fractalNoise" baseFrequency="3.0060174465179443 3.0060174465179443" stitchTiles="stitch" numOctaves="3" result="noise" seed="794" />
<feColorMatrix in="noise" type="luminanceToAlpha" result="alphaNoise" />
<feComponentTransfer in="alphaNoise" result="coloredNoise1">
<feFuncA type="discrete" tableValues="1 1 1 1 1 1 1 1 1 1 1 1 1 1 1 1 1 1 1 1 1 1 1 1 1 1 1 1 1 1 1 1 1 1 1 1 1 1 1 1 1 1 1 1 1 1 1 1 1 1 1 0 0 0 0 0 0 0 0 0 0 0 0 0 0 0 0 0 0 0 0 0 0 0 0 0 0 0 0 0 0 0 0 0 0 0 0 0 0 0 0 0 0 0 0 0 0 0 0 0 "/>
</feComponentTransfer>
<feComposite operator="in" in2="shape" in="coloredNoise1" result="noise1Clipped" />
<feFlood flood-color="rgba(255, 255, 255, 0.25)" result="color1Flood" />
<feComposite operator="in" in2="noise1Clipped" in="color1Flood" result="color1" />
<feMerge result="effect1_noise_807_14061">
<feMergeNode in="shape" />
<feMergeNode in="color1" />
</feMerge>
</filter>
<filter id="filter5_n_807_14061" x="15.8633" y="55.0566" width="140.968" height="95.1758" filterUnits="userSpaceOnUse" color-interpolation-filters="sRGB">
<feFlood flood-opacity="0" result="BackgroundImageFix"/>
<feBlend mode="normal" in="SourceGraphic" in2="BackgroundImageFix" result="shape"/>
<feTurbulence type="fractalNoise" baseFrequency="3.0060174465179443 3.0060174465179443" stitchTiles="stitch" numOctaves="3" result="noise" seed="794" />
<feColorMatrix in="noise" type="luminanceToAlpha" result="alphaNoise" />
<feComponentTransfer in="alphaNoise" result="coloredNoise1">
<feFuncA type="discrete" tableValues="1 1 1 1 1 1 1 1 1 1 1 1 1 1 1 1 1 1 1 1 1 1 1 1 1 1 1 1 1 1 1 1 1 1 1 1 1 1 1 1 1 1 1 1 1 1 1 1 1 1 1 0 0 0 0 0 0 0 0 0 0 0 0 0 0 0 0 0 0 0 0 0 0 0 0 0 0 0 0 0 0 0 0 0 0 0 0 0 0 0 0 0 0 0 0 0 0 0 0 0 "/>
</feComponentTransfer>
<feComposite operator="in" in2="shape" in="coloredNoise1" result="noise1Clipped" />
<feFlood flood-color="rgba(255, 255, 255, 0.25)" result="color1Flood" />
<feComposite operator="in" in2="noise1Clipped" in="color1Flood" result="color1" />
<feMerge result="effect1_noise_807_14061">
<feMergeNode in="shape" />
<feMergeNode in="color1" />
</feMerge>
</filter>
</defs>
</svg>
