<svg width="463" height="895" viewBox="0 0 463 895" fill="none" xmlns="http://www.w3.org/2000/svg">
<g filter="url(#filter0_n_804_14003)">
<g clip-path="url(#clip0_804_14003)">
<rect x="3.18994" y="3.18945" width="456" height="888" rx="20.4596" fill="#D1EAE4"/>
<g filter="url(#filter1_f_804_14003)">
<path fill-rule="evenodd" clip-rule="evenodd" d="M89.6121 -34.3907C103.979 -30.3192 110.545 -14.4156 121.057 -3.83089C129.013 4.18055 138.287 10.4574 143.883 20.2566C149.88 30.7585 152.667 42.2645 154.224 54.2509C156.27 70.0096 164.216 88.4726 154.361 100.956C144.594 113.329 124.843 113.028 109.146 111.354C96.1332 109.966 88.6587 93.5632 75.6104 92.5563C56.5537 91.0857 37.8095 113.087 20.7281 104.531C5.50241 96.9041 0.0753846 73.4367 4.89732 57.1345C9.84451 40.4088 36.9588 40.163 44.4303 24.3976C51.7234 9.00888 33.7409 -12.1251 44.1227 -25.6335C53.7135 -38.1125 74.4499 -38.6876 89.6121 -34.3907Z" fill="#54AB94" fill-opacity="0.09"/>
</g>
<g filter="url(#filter2_f_804_14003)">
<path fill-rule="evenodd" clip-rule="evenodd" d="M239.613 254.77C253.979 250.698 260.545 234.795 271.057 224.21C279.013 216.198 288.288 209.921 293.883 200.122C299.88 189.62 302.668 178.114 304.224 166.128C306.27 150.369 314.216 131.906 304.361 119.423C294.594 107.049 274.844 107.351 259.147 109.025C246.134 110.413 238.659 126.816 225.611 127.823C206.554 129.293 187.81 107.291 170.729 115.848C155.503 123.475 150.076 146.942 154.898 163.244C159.845 179.97 186.959 180.216 194.431 195.981C201.724 211.37 183.741 232.504 194.123 246.012C203.714 258.491 224.45 259.066 239.613 254.77Z" fill="#54AB94" fill-opacity="0.09"/>
</g>
<g filter="url(#filter3_f_804_14003)">
<path fill-rule="evenodd" clip-rule="evenodd" d="M250.981 555.133C263.805 547.482 266.031 530.421 273.445 517.476C279.057 507.678 286.39 499.215 289.259 488.301C292.334 476.605 292.048 464.77 290.449 452.789C288.347 437.038 291.244 417.147 278.494 407.639C265.857 398.216 246.857 403.618 232.129 409.298C219.918 414.007 216.944 431.786 204.601 436.135C186.574 442.488 162.774 426.087 148.489 438.773C135.756 450.081 136.588 474.153 145.465 488.652C154.572 503.527 180.826 496.747 192.124 510.042C203.151 523.018 191.251 548.086 204.776 558.447C217.269 568.019 237.448 563.208 250.981 555.133Z" fill="#54AB94" fill-opacity="0.09"/>
</g>
<g filter="url(#filter4_f_804_14003)">
<path fill-rule="evenodd" clip-rule="evenodd" d="M51.605 902.783C64.4286 895.132 66.6546 878.071 74.0687 865.126C79.6803 855.329 87.0139 846.865 89.8827 835.952C92.9573 824.255 92.6718 812.42 91.0728 800.439C88.9705 784.688 91.8672 764.798 79.1172 755.29C66.4804 745.866 47.4809 751.269 32.7521 756.949C20.5416 761.658 17.5672 779.436 5.2241 783.786C-12.8026 790.138 -36.6027 773.738 -50.8874 786.424C-63.6203 797.731 -62.7886 821.804 -53.9117 836.302C-44.8041 851.178 -18.5501 844.398 -7.25279 857.692C3.77465 870.669 -8.12519 895.737 5.39912 906.098C17.8929 915.669 38.0715 910.858 51.605 902.783Z" fill="#54AB94" fill-opacity="0.09"/>
</g>
<g filter="url(#filter5_f_804_14003)">
<path fill-rule="evenodd" clip-rule="evenodd" d="M455.605 902.783C468.429 895.132 470.655 878.071 478.069 865.126C483.68 855.329 491.014 846.865 493.883 835.952C496.957 824.255 496.672 812.42 495.073 800.439C492.971 784.688 495.867 764.798 483.117 755.29C470.48 745.866 451.481 751.269 436.752 756.949C424.542 761.658 421.567 779.436 409.224 783.786C391.197 790.138 367.397 773.738 353.113 786.424C340.38 797.731 341.211 821.804 350.088 836.302C359.196 851.178 385.45 844.398 396.747 857.692C407.775 870.669 395.875 895.737 409.399 906.098C421.893 915.669 442.072 910.858 455.605 902.783Z" fill="#54AB94" fill-opacity="0.09"/>
</g>
<g filter="url(#filter6_f_804_14003)">
<path fill-rule="evenodd" clip-rule="evenodd" d="M122.227 202.698C140.283 210.442 143.953 234.247 157.756 248.231C167.517 258.12 181.331 262.049 190.826 272.194C203.858 286.119 219.859 299.239 223.088 318.038C226.683 338.966 221.338 361.488 209.149 378.874C196.416 397.036 175.819 407.533 154.995 415.162C133.096 423.185 106.127 436.942 86.9731 423.634C66.2969 409.268 72.8406 376.889 65.3219 352.856C61.1236 339.436 56.0461 327.171 52.5353 313.555C48.5437 298.074 42.2489 283.432 43.3083 267.48C44.7392 245.933 42.9802 219.855 59.6676 206.157C76.1463 192.63 102.636 194.294 122.227 202.698Z" fill="#54AB94" fill-opacity="0.09"/>
</g>
<g filter="url(#filter7_f_804_14003)">
<path fill-rule="evenodd" clip-rule="evenodd" d="M104.227 489.698C122.283 497.442 125.953 521.247 139.756 535.231C149.517 545.12 163.331 549.049 172.826 559.194C185.858 573.119 201.859 586.239 205.088 605.038C208.683 625.966 203.338 648.488 191.149 665.874C178.416 684.036 157.819 694.533 136.995 702.162C115.096 710.185 88.1271 723.942 68.9731 710.634C48.2969 696.268 54.8406 663.889 47.3219 639.856C43.1236 626.436 38.0461 614.171 34.5353 600.555C30.5437 585.074 24.2489 570.432 25.3083 554.48C26.7392 532.933 24.9802 506.855 41.6676 493.157C58.1463 479.63 84.6357 481.294 104.227 489.698Z" fill="#54AB94" fill-opacity="0.09"/>
</g>
<g filter="url(#filter8_f_804_14003)">
<path fill-rule="evenodd" clip-rule="evenodd" d="M366.227 211.698C384.283 219.442 387.953 243.247 401.756 257.231C411.517 267.12 425.331 271.049 434.826 281.194C447.858 295.119 463.859 308.239 467.088 327.038C470.683 347.966 465.338 370.488 453.149 387.874C440.416 406.036 419.819 416.533 398.995 424.162C377.096 432.185 350.127 445.942 330.973 432.634C310.297 418.268 316.841 385.889 309.322 361.856C305.124 348.436 300.046 336.171 296.535 322.555C292.544 307.074 286.249 292.432 287.308 276.48C288.739 254.933 286.98 228.855 303.668 215.157C320.146 201.63 346.636 203.294 366.227 211.698Z" fill="#54AB94" fill-opacity="0.09"/>
</g>
<g filter="url(#filter9_f_804_14003)">
<path fill-rule="evenodd" clip-rule="evenodd" d="M346.227 526.698C364.283 534.442 367.953 558.247 381.756 572.231C391.517 582.12 405.331 586.049 414.826 596.194C427.858 610.119 443.859 623.239 447.088 642.038C450.683 662.966 445.338 685.488 433.149 702.874C420.416 721.036 399.819 731.533 378.995 739.162C357.096 747.185 330.127 760.942 310.973 747.634C290.297 733.268 296.841 700.889 289.322 676.856C285.124 663.436 280.046 651.171 276.535 637.555C272.544 622.074 266.249 607.432 267.308 591.48C268.739 569.933 266.98 543.855 283.668 530.157C300.146 516.63 326.636 518.294 346.227 526.698Z" fill="#54AB94" fill-opacity="0.09"/>
</g>
<g filter="url(#filter10_f_804_14003)">
<path fill-rule="evenodd" clip-rule="evenodd" d="M215.228 724.698C233.283 732.442 236.953 756.247 250.756 770.231C260.518 780.12 274.331 784.049 283.826 794.194C296.858 808.119 312.86 821.239 316.089 840.038C319.683 860.966 314.338 883.488 302.15 900.874C289.416 919.036 268.819 929.533 247.995 937.162C226.096 945.185 199.128 958.942 179.974 945.634C159.297 931.268 165.841 898.889 158.322 874.856C154.124 861.436 149.047 849.171 145.536 835.555C141.544 820.074 135.249 805.432 136.309 789.48C137.74 767.933 135.981 741.855 152.668 728.157C169.147 714.63 195.636 716.294 215.228 724.698Z" fill="#54AB94" fill-opacity="0.09"/>
</g>
<g filter="url(#filter11_f_804_14003)">
<path fill-rule="evenodd" clip-rule="evenodd" d="M316.227 -132.302C334.283 -124.558 337.953 -100.753 351.756 -86.7691C361.517 -76.8799 375.331 -72.9512 384.826 -62.8059C397.858 -48.8814 413.859 -35.7609 417.088 -16.962C420.683 3.96578 415.338 26.4885 403.149 43.8737C390.416 62.0359 369.819 72.5333 348.995 80.1624C327.096 88.1852 300.127 101.942 280.973 88.6339C260.297 74.2677 266.841 41.8892 259.322 17.856C255.124 4.43636 250.046 -7.82905 246.535 -21.4449C242.544 -36.9257 236.249 -51.5682 237.308 -67.5205C238.739 -89.0666 236.98 -115.145 253.668 -128.843C270.146 -142.37 296.636 -140.706 316.227 -132.302Z" fill="#54AB94" fill-opacity="0.09"/>
</g>
</g>
<rect x="1.59507" y="1.59458" width="459.19" height="891.19" rx="22.0545" stroke="#CAE3DC" stroke-width="3.18974"/>
</g>
<defs>
<filter id="filter0_n_804_14003" x="0" y="0" width="462.38" height="894.379" filterUnits="userSpaceOnUse" color-interpolation-filters="sRGB">
<feFlood flood-opacity="0" result="BackgroundImageFix"/>
<feBlend mode="normal" in="SourceGraphic" in2="BackgroundImageFix" result="shape"/>
<feTurbulence type="fractalNoise" baseFrequency="0.43478262424468994 0.43478262424468994" stitchTiles="stitch" numOctaves="3" result="noise" seed="1233" />
<feColorMatrix in="noise" type="luminanceToAlpha" result="alphaNoise" />
<feComponentTransfer in="alphaNoise" result="coloredNoise1">
<feFuncA type="discrete" tableValues="1 1 1 1 1 1 1 1 1 1 1 1 1 1 1 1 1 1 1 1 1 1 1 1 1 1 1 1 1 1 1 1 1 1 1 1 1 1 1 1 1 1 1 1 1 1 1 1 1 1 1 0 0 0 0 0 0 0 0 0 0 0 0 0 0 0 0 0 0 0 0 0 0 0 0 0 0 0 0 0 0 0 0 0 0 0 0 0 0 0 0 0 0 0 0 0 0 0 0 0 "/>
</feComponentTransfer>
<feComposite operator="in" in2="shape" in="coloredNoise1" result="noise1Clipped" />
<feFlood flood-color="rgba(84, 174, 151, 0.09)" result="color1Flood" />
<feComposite operator="in" in2="noise1Clipped" in="color1Flood" result="color1" />
<feMerge result="effect1_noise_804_14003">
<feMergeNode in="shape" />
<feMergeNode in="color1" />
</feMerge>
</filter>
<filter id="filter1_f_804_14003" x="-21.8101" y="-61.8105" width="206" height="199" filterUnits="userSpaceOnUse" color-interpolation-filters="sRGB">
<feFlood flood-opacity="0" result="BackgroundImageFix"/>
<feBlend mode="normal" in="SourceGraphic" in2="BackgroundImageFix" result="shape"/>
<feGaussianBlur stdDeviation="12.5" result="effect1_foregroundBlur_804_14003"/>
</filter>
<filter id="filter2_f_804_14003" x="128.19" y="83.1895" width="206" height="199" filterUnits="userSpaceOnUse" color-interpolation-filters="sRGB">
<feFlood flood-opacity="0" result="BackgroundImageFix"/>
<feBlend mode="normal" in="SourceGraphic" in2="BackgroundImageFix" result="shape"/>
<feGaussianBlur stdDeviation="12.5" result="effect1_foregroundBlur_804_14003"/>
</filter>
<filter id="filter3_f_804_14003" x="113.852" y="377.516" width="202.771" height="211.227" filterUnits="userSpaceOnUse" color-interpolation-filters="sRGB">
<feFlood flood-opacity="0" result="BackgroundImageFix"/>
<feBlend mode="normal" in="SourceGraphic" in2="BackgroundImageFix" result="shape"/>
<feGaussianBlur stdDeviation="12.5" result="effect1_foregroundBlur_804_14003"/>
</filter>
<filter id="filter4_f_804_14003" x="-85.5244" y="725.166" width="202.771" height="211.227" filterUnits="userSpaceOnUse" color-interpolation-filters="sRGB">
<feFlood flood-opacity="0" result="BackgroundImageFix"/>
<feBlend mode="normal" in="SourceGraphic" in2="BackgroundImageFix" result="shape"/>
<feGaussianBlur stdDeviation="12.5" result="effect1_foregroundBlur_804_14003"/>
</filter>
<filter id="filter5_f_804_14003" x="318.476" y="725.166" width="202.771" height="211.227" filterUnits="userSpaceOnUse" color-interpolation-filters="sRGB">
<feFlood flood-opacity="0" result="BackgroundImageFix"/>
<feBlend mode="normal" in="SourceGraphic" in2="BackgroundImageFix" result="shape"/>
<feGaussianBlur stdDeviation="12.5" result="effect1_foregroundBlur_804_14003"/>
</filter>
<filter id="filter6_f_804_14003" x="18.1899" y="171.189" width="231" height="283" filterUnits="userSpaceOnUse" color-interpolation-filters="sRGB">
<feFlood flood-opacity="0" result="BackgroundImageFix"/>
<feBlend mode="normal" in="SourceGraphic" in2="BackgroundImageFix" result="shape"/>
<feGaussianBlur stdDeviation="12.5" result="effect1_foregroundBlur_804_14003"/>
</filter>
<filter id="filter7_f_804_14003" x="0.189941" y="458.189" width="231" height="283" filterUnits="userSpaceOnUse" color-interpolation-filters="sRGB">
<feFlood flood-opacity="0" result="BackgroundImageFix"/>
<feBlend mode="normal" in="SourceGraphic" in2="BackgroundImageFix" result="shape"/>
<feGaussianBlur stdDeviation="12.5" result="effect1_foregroundBlur_804_14003"/>
</filter>
<filter id="filter8_f_804_14003" x="262.19" y="180.189" width="231" height="283" filterUnits="userSpaceOnUse" color-interpolation-filters="sRGB">
<feFlood flood-opacity="0" result="BackgroundImageFix"/>
<feBlend mode="normal" in="SourceGraphic" in2="BackgroundImageFix" result="shape"/>
<feGaussianBlur stdDeviation="12.5" result="effect1_foregroundBlur_804_14003"/>
</filter>
<filter id="filter9_f_804_14003" x="242.19" y="495.189" width="231" height="283" filterUnits="userSpaceOnUse" color-interpolation-filters="sRGB">
<feFlood flood-opacity="0" result="BackgroundImageFix"/>
<feBlend mode="normal" in="SourceGraphic" in2="BackgroundImageFix" result="shape"/>
<feGaussianBlur stdDeviation="12.5" result="effect1_foregroundBlur_804_14003"/>
</filter>
<filter id="filter10_f_804_14003" x="111.19" y="693.189" width="231" height="283" filterUnits="userSpaceOnUse" color-interpolation-filters="sRGB">
<feFlood flood-opacity="0" result="BackgroundImageFix"/>
<feBlend mode="normal" in="SourceGraphic" in2="BackgroundImageFix" result="shape"/>
<feGaussianBlur stdDeviation="12.5" result="effect1_foregroundBlur_804_14003"/>
</filter>
<filter id="filter11_f_804_14003" x="212.19" y="-163.811" width="231" height="283" filterUnits="userSpaceOnUse" color-interpolation-filters="sRGB">
<feFlood flood-opacity="0" result="BackgroundImageFix"/>
<feBlend mode="normal" in="SourceGraphic" in2="BackgroundImageFix" result="shape"/>
<feGaussianBlur stdDeviation="12.5" result="effect1_foregroundBlur_804_14003"/>
</filter>
<clipPath id="clip0_804_14003">
<rect x="3.18994" y="3.18945" width="456" height="888" rx="20.4596" fill="white"/>
</clipPath>
</defs>
</svg>
